<svg width="32" height="32" viewBox="0 0 32 32" fill="none" xmlns="http://www.w3.org/2000/svg">
<path d="M18.1764 19.3625L19.4418 14.6402C20.1406 12.0321 18.5929 9.35137 15.9848 8.65254C13.3767 7.95372 10.696 9.50145 9.99716 12.1095L6.83381 23.9153C6.13499 26.5233 7.68272 29.2041 10.2908 29.9029C11.4884 30.2238 12.7014 30.071 13.7307 29.5593C14.3624 29.2453 14.9249 28.7961 15.3723 28.2383M14.7195 13.3748L13.4541 18.0972C12.7553 20.7052 14.303 23.386 16.9111 24.0848C19.5191 24.7836 22.1999 23.2359 22.8987 20.6278L26.0621 8.82207C26.7609 6.21401 25.2132 3.53325 22.6051 2.83442C21.4075 2.51352 20.1945 2.66635 19.1652 3.17804C18.5335 3.49205 17.9709 3.94123 17.5235 4.49901" stroke="#868686" stroke-width="2" stroke-linecap="round"/>
</svg>
