<svg width="32" height="32" viewBox="0 0 32 32" fill="none" xmlns="http://www.w3.org/2000/svg">
<g clip-path="url(#clip0_61195_21400)">
<path d="M15.3333 21.3333H16.6668V30.6668H15.3333V21.3333ZM6 18.6668H26V20H6V18.6668ZM28.6668 10C26.8286 10 25.3333 8.50463 25.3333 6.66675C25.3333 4.82863 26.8286 3.33325 28.6668 3.33325C30.5046 3.33325 32 4.82863 32 6.66675C32 8.50463 30.5046 10 28.6668 10ZM28.6668 4.66675C27.5639 4.66675 26.6668 5.56394 26.6668 6.66675C26.6668 7.76925 27.5639 8.66675 28.6668 8.66675C29.7693 8.66675 30.6668 7.76925 30.6668 6.66675C30.6668 5.56394 29.7693 4.66675 28.6668 4.66675Z" fill="#4073D0"/>
<path d="M21.9993 30.6668C21.9114 30.6668 21.822 30.6499 21.7366 30.6126C21.398 30.4673 21.2412 30.0754 21.3867 29.7373L23.3867 25.0706C23.438 24.9506 23.5234 24.8484 23.6323 24.7766C23.7412 24.7048 23.8688 24.6666 23.9993 24.6668H28.666C29.7685 24.6668 30.666 23.7693 30.666 22.6668V14C30.666 13.2646 30.0679 12.6668 29.3325 12.6668H28.666C28.198 12.6668 27.772 12.9761 27.198 13.7361C26.554 14.5867 24.5994 16.9866 24.5166 17.0879C24.4539 17.1646 24.375 17.2264 24.2855 17.2688C24.1961 17.3112 24.0983 17.3333 23.9993 17.3333H20.666C20.2979 17.3333 19.9993 17.6321 19.9993 18V19.3333C19.9993 19.4208 19.9821 19.5076 19.9486 19.5885C19.9152 19.6694 19.8661 19.7429 19.8041 19.8049C19.7422 19.8668 19.6687 19.9159 19.5877 19.9494C19.5068 19.9829 19.4201 20.0001 19.3325 20C19.245 20.0001 19.1582 19.9829 19.0773 19.9494C18.9964 19.9159 18.9229 19.8668 18.861 19.8048C18.7991 19.7429 18.75 19.6694 18.7165 19.5885C18.6831 19.5075 18.6659 19.4208 18.666 19.3333V18C18.666 16.8972 19.5632 16 20.666 16H23.6819C24.2073 15.3533 25.6233 13.6067 26.134 12.9314C26.6973 12.1873 27.4931 11.3333 28.666 11.3333H29.3325C30.8032 11.3333 31.9993 12.5293 31.9993 14V22.6668C31.9993 24.5046 30.5039 26 28.666 26H24.4387L22.6118 30.2627C22.5039 30.5154 22.2578 30.6668 21.9993 30.6668Z" fill="#4073D0"/>
<path d="M19.3323 30.6667C19.263 30.6667 19.1917 30.6552 19.1216 30.6321C18.773 30.5161 18.5838 30.1387 18.7005 29.7886L20.9111 23.1561C21.273 22.0667 22.2903 21.3332 23.4405 21.3332H25.3323V19.3332C25.3323 18.9646 25.6305 18.6667 25.9991 18.6667C26.3677 18.6667 26.6658 18.9646 26.6658 19.3332V22C26.6659 22.0876 26.6487 22.1743 26.6152 22.2552C26.5817 22.3362 26.5326 22.4097 26.4707 22.4716C26.4088 22.5335 26.3352 22.5826 26.2543 22.6161C26.1734 22.6496 26.0867 22.6668 25.9991 22.6667H23.4405C22.8658 22.6667 22.357 23.0327 22.1763 23.5774L19.9651 30.2107C19.9208 30.3434 19.8358 30.4589 19.7222 30.5407C19.6087 30.6225 19.4723 30.6666 19.3323 30.6667Z" fill="#4073D0"/>
<path d="M25.9993 20C25.8601 20 25.72 19.9568 25.6001 19.8667C25.3054 19.646 25.2454 19.228 25.4666 18.9341L27.4666 16.2673C27.6873 15.9726 28.1053 15.9133 28.3994 16.1341C28.6941 16.3547 28.7539 16.7727 28.5327 17.0666L26.5327 19.7334C26.4026 19.9079 26.2027 20 25.9993 20ZM3.33325 10C1.49538 10 0 8.50463 0 6.66675C0 4.82863 1.49538 3.33325 3.33325 3.33325C5.17138 3.33325 6.66675 4.82863 6.66675 6.66675C6.66675 8.50463 5.17138 10 3.33325 10ZM3.33325 4.66675C2.23075 4.66675 1.33325 5.56394 1.33325 6.66675C1.33325 7.76925 2.23075 8.66675 3.33325 8.66675C4.43606 8.66675 5.33325 7.76925 5.33325 6.66675C5.33325 5.56394 4.43606 4.66675 3.33325 4.66675ZM10 30.6668C9.74144 30.6668 9.49538 30.5154 9.3875 30.2627L7.5605 26H3.33325C1.49538 26 0 24.5046 0 22.6668V14C0 12.5293 1.19606 11.3333 2.66675 11.3333H3.33325C4.50613 11.3333 5.30275 12.1873 5.86475 12.9314C6.376 13.6067 7.79125 15.3533 8.31663 16H11.3333C12.4361 16 13.3333 16.8972 13.3333 18V19.3333C13.3333 19.7019 13.0347 20 12.6668 20C12.2986 20 12 19.7019 12 19.3333V18C12 17.6321 11.7006 17.3333 11.3333 17.3333H8C7.79938 17.3333 7.61013 17.2434 7.48338 17.0879C7.40063 16.9866 5.44531 14.5866 4.802 13.7354C4.22731 12.9761 3.802 12.6668 3.33325 12.6668H2.66675C1.93138 12.6668 1.33325 13.2646 1.33325 14V22.6668C1.33325 23.7693 2.23075 24.6668 3.33325 24.6668H8C8.13042 24.6666 8.258 24.7049 8.36689 24.7766C8.47578 24.8484 8.56119 24.9506 8.6125 25.0705L10.6125 29.7373C10.7581 30.0754 10.6006 30.4673 10.2627 30.6126C10.1798 30.6486 10.0904 30.667 10 30.6668Z" fill="#4073D0"/>
<path d="M12.6675 30.6667C12.5275 30.6666 12.3911 30.6225 12.2776 30.5407C12.164 30.4589 12.0791 30.3434 12.0347 30.2107L9.82398 23.5779C9.73566 23.3124 9.56594 23.0815 9.33893 22.9179C9.11192 22.7544 8.83915 22.6665 8.55936 22.6667H6.00073C5.6328 22.6667 5.33398 22.3686 5.33398 22V19.3332C5.33398 18.9646 5.6328 18.6667 6.00073 18.6667C6.36867 18.6667 6.66748 18.9646 6.66748 19.3332V21.3332H8.55936C9.11913 21.3326 9.66488 21.5084 10.1191 21.8356C10.5732 22.1628 10.9127 22.6248 11.0894 23.156L13.3 29.7886C13.4167 30.1379 13.228 30.5161 12.8787 30.6321C12.8106 30.6548 12.7393 30.6665 12.6675 30.6667Z" fill="#4073D0"/>
<path d="M5.99969 20C5.89606 20.0001 5.79382 19.9761 5.7011 19.9298C5.60837 19.8835 5.52771 19.8163 5.46551 19.7334L3.46551 17.0666C3.24426 16.7727 3.30438 16.3547 3.59907 16.1341C3.89494 15.9133 4.31219 15.9727 4.53238 16.2673L6.53238 18.9341C6.75363 19.228 6.69351 19.6459 6.39882 19.8667C6.28379 19.9533 6.14368 20.0001 5.99969 20ZM21.3322 17.3333C21.2446 17.3333 21.1579 17.3162 21.077 17.2827C20.9961 17.2492 20.9226 17.2001 20.8607 17.1382C20.7988 17.0763 20.7497 17.0028 20.7162 16.9219C20.6828 16.841 20.6656 16.7543 20.6657 16.6667V12C20.6657 10.5293 19.4696 9.33325 17.9989 9.33325H13.9989C12.5283 9.33325 11.3322 10.5293 11.3322 12V14C11.3322 14.3679 11.0336 14.6667 10.6657 14.6667C10.2976 14.6667 9.99894 14.3679 9.99894 14V12C9.99894 9.79394 11.7929 8 13.9989 8H17.9989C20.205 8 21.9989 9.79394 21.9989 12V16.6667C21.9989 17.0354 21.7008 17.3333 21.3322 17.3333ZM15.9989 6.66675C14.1611 6.66675 12.6657 5.17138 12.6657 3.33325C12.6657 1.49538 14.1611 0 15.9989 0C17.8368 0 19.3322 1.49538 19.3322 3.33325C19.3322 5.17138 17.8368 6.66675 15.9989 6.66675ZM15.9989 1.33325C14.8961 1.33325 13.9989 2.23075 13.9989 3.33325C13.9989 4.43606 14.8961 5.33325 15.9989 5.33325C17.1018 5.33325 17.9989 4.43606 17.9989 3.33325C17.9989 2.23075 17.1018 1.33325 15.9989 1.33325Z" fill="#4073D0"/>
<path d="M15.334 10.6667H16.6675V12H15.334V10.6667Z" fill="#4073D0"/>
</g>
<defs>
<clipPath id="clip0_61195_21400">
<rect width="32" height="32" fill="white"/>
</clipPath>
</defs>
</svg>
