<svg width="32" height="32" viewBox="0 0 32 32" fill="none" xmlns="http://www.w3.org/2000/svg">
<path d="M26.6673 18.6667H5.33398V20.0001H26.6673V18.6667Z" fill="#4073D0"/>
<line x1="26.0013" y1="28" x2="26.0013" y2="20" stroke="#4073D0" stroke-width="1.33333"/>
<line x1="6.0013" y1="28" x2="6.0013" y2="18.6667" stroke="#4073D0" stroke-width="1.33333"/>
<path d="M21.6672 19.3333C21.5797 19.3333 21.493 19.3162 21.4121 19.2827C21.3312 19.2492 21.2577 19.2001 21.1957 19.1382C21.1338 19.0763 21.0847 19.0028 21.0513 18.9219C21.0178 18.841 21.0006 18.7543 21.0007 18.6667V14C21.0007 12.5293 19.8047 11.3333 18.334 11.3333H14.334C12.8633 11.3333 11.6672 12.5293 11.6672 14V16C11.6672 16.3679 11.3687 16.6667 11.0007 16.6667C10.6326 16.6667 10.334 16.3679 10.334 16V14C10.334 11.7939 12.1279 10 14.334 10H18.334C20.54 10 22.334 11.7939 22.334 14V18.6667C22.334 19.0354 22.0359 19.3333 21.6672 19.3333ZM16.334 8.66675C14.4961 8.66675 13.0007 7.17138 13.0007 5.33325C13.0007 3.49538 14.4961 2 16.334 2C18.1719 2 19.6672 3.49538 19.6672 5.33325C19.6672 7.17138 18.1719 8.66675 16.334 8.66675ZM16.334 3.33325C15.2312 3.33325 14.334 4.23075 14.334 5.33325C14.334 6.43606 15.2312 7.33325 16.334 7.33325C17.4368 7.33325 18.334 6.43606 18.334 5.33325C18.334 4.23075 17.4368 3.33325 16.334 3.33325Z" fill="#4073D0"/>
</svg>
