<svg width="100" height="100" viewBox="0 0 100 100" fill="none" xmlns="http://www.w3.org/2000/svg">
<path d="M50.0007 60.4166C55.7536 60.4166 60.4173 55.7529 60.4173 49.9999C60.4173 44.247 55.7536 39.5833 50.0007 39.5833C44.2477 39.5833 39.584 44.247 39.584 49.9999C39.584 55.7529 44.2477 60.4166 50.0007 60.4166Z" stroke="#3BC377" stroke-width="6.25" stroke-miterlimit="10" stroke-linecap="round" stroke-linejoin="round"/>
<path d="M77.084 39.5833V60.4166" stroke="#3BC377" stroke-width="6.25" stroke-miterlimit="10" stroke-linecap="round" stroke-linejoin="round"/>
<path d="M37.5013 75.0002C37.5013 78.1252 36.6264 81.0835 35.0847 83.5835C32.2097 88.4168 26.918 91.6668 20.8346 91.6668C14.7513 91.6668 9.45958 88.4168 6.58458 83.5835C5.04291 81.0835 4.16797 78.1252 4.16797 75.0002C4.16797 65.7918 11.6263 58.3335 20.8346 58.3335C30.043 58.3335 37.5013 65.7918 37.5013 75.0002Z" stroke="#3BC377" stroke-width="6.25" stroke-miterlimit="10" stroke-linecap="round" stroke-linejoin="round"/>
<path d="M27.0494 74.9148H14.6328" stroke="#3BC377" stroke-width="6.25" stroke-miterlimit="10" stroke-linecap="round" stroke-linejoin="round"/>
<path d="M20.834 68.8315V81.2898" stroke="#3BC377" stroke-width="6.25" stroke-miterlimit="10" stroke-linecap="round" stroke-linejoin="round"/>
<path d="M8.33398 63.75V37.5001C8.33398 22.9167 16.6673 16.6667 29.1673 16.6667H70.834C83.334 16.6667 91.6673 22.9167 91.6673 37.5001V62.5001C91.6673 77.0834 83.334 83.3334 70.834 83.3334H35.4173" stroke="#3BC377" stroke-width="6.25" stroke-miterlimit="10" stroke-linecap="round" stroke-linejoin="round"/>
</svg>
