<svg width="34" height="34" viewBox="0 0 34 34" fill="none" xmlns="http://www.w3.org/2000/svg">
<path d="M17.0035 20.4723C18.9211 20.4723 20.4757 18.9177 20.4757 17.0001C20.4757 15.0824 18.9211 13.5278 17.0035 13.5278C15.0858 13.5278 13.5312 15.0824 13.5312 17.0001C13.5312 18.9177 15.0858 20.4723 17.0035 20.4723Z" stroke="#4073D0" stroke-width="1.66667" stroke-miterlimit="10" stroke-linecap="round" stroke-linejoin="round"/>
<path d="M7.23501 27.2245V27.0268C7.23501 26.3865 7.63053 26.0475 8.02603 25.7744C8.41211 25.5107 8.79814 25.1717 8.79814 24.5502C8.79814 23.6839 8.10134 22.9871 7.23501 22.9871C6.36868 22.9871 5.67188 23.6839 5.67188 24.5502" stroke="#4073D0" stroke-width="1.66667" stroke-linecap="round" stroke-linejoin="round"/>
<path d="M26.0273 13.5278V20.4723" stroke="#4073D0" stroke-width="1.66667" stroke-miterlimit="10" stroke-linecap="round" stroke-linejoin="round"/>
<path d="M12.8357 25.3331C12.8357 26.3748 12.5441 27.3609 12.0302 28.1943C11.0718 29.8054 9.30794 30.8887 7.28016 30.8887C5.25239 30.8887 3.48848 29.8054 2.53015 28.1943C2.01626 27.3609 1.72461 26.3748 1.72461 25.3331C1.72461 22.2637 4.21072 19.7776 7.28016 19.7776C10.3496 19.7776 12.8357 22.2637 12.8357 25.3331Z" stroke="#4073D0" stroke-width="1.66667" stroke-miterlimit="10" stroke-linecap="round" stroke-linejoin="round"/>
<path d="M3.11133 21.5831V12.8331C3.11133 7.972 5.88911 5.88867 10.0558 5.88867H23.9447C28.1113 5.88867 30.8891 7.972 30.8891 12.8331V21.1664C30.8891 26.0276 28.1113 28.1109 23.9447 28.1109H12.1391" stroke="#4073D0" stroke-width="1.66667" stroke-miterlimit="10" stroke-linecap="round" stroke-linejoin="round"/>
</svg>
