<svg width="100" height="100" viewBox="0 0 100 100" fill="none" xmlns="http://www.w3.org/2000/svg">
<g clip-path="url(#clip0_61092_19788)">
<path d="M97.9167 100C97.5633 100 97.2158 99.9101 96.9067 99.7388C96.5977 99.5676 96.3373 99.3205 96.15 99.0208C93.1641 94.2079 88.9957 90.2394 84.042 87.4934C79.0882 84.7474 73.5139 83.3152 67.85 83.3333H66.6667V93.75C66.6674 94.1626 66.5456 94.5661 66.3167 94.9094C66.0879 95.2527 65.7622 95.5203 65.3811 95.6783C65 95.8363 64.5805 95.8775 64.1759 95.7968C63.7713 95.7161 63.3997 95.5171 63.1083 95.225L42.275 74.3917C41.8844 74.001 41.665 73.4712 41.665 72.9187C41.665 72.3663 41.8844 71.8365 42.275 71.4458L63.1083 50.6125C63.3995 50.3206 63.7706 50.1217 64.1749 50.0409C64.5791 49.9601 64.9982 50.001 65.3792 50.1584C65.7601 50.3159 66.0858 50.5829 66.315 50.9255C66.5442 51.2682 66.6666 51.6711 66.6667 52.0833V62.5625C85.2292 63.6458 100 79.0917 100 97.9167C100 98.4692 99.7805 98.9991 99.3898 99.3898C98.9991 99.7805 98.4692 100 97.9167 100ZM64.5833 79.1667H67.85C72.9293 79.1504 77.9585 80.1716 82.6292 82.1677C87.2999 84.1638 91.5138 87.0928 95.0125 90.775C91.7708 76.975 79.3583 66.6667 64.5833 66.6667C64.0308 66.6667 63.5009 66.4472 63.1102 66.0565C62.7195 65.6658 62.5 65.1359 62.5 64.5833V57.1125L46.6958 72.9167L62.5 88.7208V81.25C62.5 80.6975 62.7195 80.1676 63.1102 79.7769C63.5009 79.3862 64.0308 79.1667 64.5833 79.1667ZM39.5833 87.5H10.4167C7.65501 87.4967 5.00741 86.3982 3.05462 84.4454C1.10184 82.4926 0.00330804 79.845 0 77.0833L0 22.9167C0 17.1708 4.675 12.5 10.4167 12.5H18.75C19.3025 12.5 19.8324 12.7195 20.2231 13.1102C20.6138 13.5009 20.8333 14.0308 20.8333 14.5833C20.8333 15.1359 20.6138 15.6658 20.2231 16.0565C19.8324 16.4472 19.3025 16.6667 18.75 16.6667H10.4167C6.97083 16.6667 4.16667 19.4708 4.16667 22.9167V77.0833C4.16667 80.5292 6.97083 83.3333 10.4167 83.3333H39.5833C40.1359 83.3333 40.6658 83.5528 41.0565 83.9435C41.4472 84.3342 41.6667 84.8641 41.6667 85.4167C41.6667 85.9692 41.4472 86.4991 41.0565 86.8898C40.6658 87.2805 40.1359 87.5 39.5833 87.5Z" fill="#44C0ED"/>
<path d="M47.9167 25H22.9167C19.4708 25 16.6667 22.1958 16.6667 18.75V10.4167C16.6667 9.86413 16.8862 9.33423 17.2769 8.94353C17.6676 8.55283 18.1975 8.33333 18.75 8.33333H25.2083C26.1792 3.58333 30.3833 0 35.4167 0C40.45 0 44.6542 3.58333 45.625 8.33333H52.0833C52.6359 8.33333 53.1658 8.55283 53.5565 8.94353C53.9472 9.33423 54.1667 9.86413 54.1667 10.4167V18.75C54.1667 22.1958 51.3625 25 47.9167 25ZM20.8333 12.5V18.75C20.8333 19.3025 21.0528 19.8324 21.4435 20.2231C21.8342 20.6138 22.3641 20.8333 22.9167 20.8333H47.9167C48.4692 20.8333 48.9991 20.6138 49.3898 20.2231C49.7805 19.8324 50 19.3025 50 18.75V12.5H43.75C43.1975 12.5 42.6676 12.2805 42.2769 11.8898C41.8862 11.4991 41.6667 10.9692 41.6667 10.4167C41.6667 6.97083 38.8625 4.16667 35.4167 4.16667C31.9708 4.16667 29.1667 6.97083 29.1667 10.4167C29.1667 10.9692 28.9472 11.4991 28.5565 11.8898C28.1658 12.2805 27.6359 12.5 27.0833 12.5H20.8333ZM56.25 37.5H14.5833C14.0308 37.5 13.5009 37.2805 13.1102 36.8898C12.7195 36.4991 12.5 35.9692 12.5 35.4167C12.5 34.8641 12.7195 34.3342 13.1102 33.9435C13.5009 33.5528 14.0308 33.3333 14.5833 33.3333H56.25C56.8025 33.3333 57.3324 33.5528 57.7231 33.9435C58.1138 34.3342 58.3333 34.8641 58.3333 35.4167C58.3333 35.9692 58.1138 36.4991 57.7231 36.8898C57.3324 37.2805 56.8025 37.5 56.25 37.5ZM52.0833 50H14.5833C14.0308 50 13.5009 49.7805 13.1102 49.3898C12.7195 48.9991 12.5 48.4692 12.5 47.9167C12.5 47.3641 12.7195 46.8342 13.1102 46.4435C13.5009 46.0528 14.0308 45.8333 14.5833 45.8333H52.0833C52.6359 45.8333 53.1658 46.0528 53.5565 46.4435C53.9472 46.8342 54.1667 47.3641 54.1667 47.9167C54.1667 48.4692 53.9472 48.9991 53.5565 49.3898C53.1658 49.7805 52.6359 50 52.0833 50ZM39.5833 62.5H14.5833C14.0308 62.5 13.5009 62.2805 13.1102 61.8898C12.7195 61.4991 12.5 60.9692 12.5 60.4167C12.5 59.8641 12.7195 59.3342 13.1102 58.9435C13.5009 58.5528 14.0308 58.3333 14.5833 58.3333H39.5833C40.1359 58.3333 40.6658 58.5528 41.0565 58.9435C41.4472 59.3342 41.6667 59.8641 41.6667 60.4167C41.6667 60.9692 41.4472 61.4991 41.0565 61.8898C40.6658 62.2805 40.1359 62.5 39.5833 62.5Z" fill="#69CDF1"/>
<path d="M68.75 41.6667C68.1975 41.6667 67.6676 41.4472 67.2769 41.0565C66.8862 40.6658 66.6667 40.1359 66.6667 39.5833V22.9167C66.6667 19.4708 63.8625 16.6667 60.4167 16.6667H52.0833C51.5308 16.6667 51.0009 16.4472 50.6102 16.0565C50.2195 15.6658 50 15.1359 50 14.5833C50 14.0308 50.2195 13.5009 50.6102 13.1102C51.0009 12.7195 51.5308 12.5 52.0833 12.5H60.4167C66.1583 12.5 70.8333 17.1708 70.8333 22.9167V39.5833C70.8333 40.1359 70.6138 40.6658 70.2231 41.0565C69.8324 41.4472 69.3025 41.6667 68.75 41.6667Z" fill="#69CDF1"/>
</g>
<defs>
<clipPath id="clip0_61092_19788">
<rect width="100" height="100" fill="white"/>
</clipPath>
</defs>
</svg>
