<svg width="80" height="16" viewBox="0 0 80 16" fill="none" xmlns="http://www.w3.org/2000/svg">
<path d="M9.15327 2.34001L10.3266 4.68668C10.4866 5.01334 10.9133 5.32668 11.2733 5.38668L13.3999 5.74001C14.7599 5.96668 15.0799 6.95334 14.0999 7.92668L12.4466 9.58001C12.1666 9.86001 12.0133 10.4 12.0999 10.7867L12.5733 12.8333C12.9466 14.4533 12.0866 15.08 10.6533 14.2333L8.65994 13.0533C8.29994 12.84 7.70661 12.84 7.33994 13.0533L5.34661 14.2333C3.91994 15.08 3.05327 14.4467 3.42661 12.8333L3.89994 10.7867C3.98661 10.4 3.83327 9.86001 3.55327 9.58001L1.89994 7.92668C0.926606 6.95334 1.23994 5.96668 2.59994 5.74001L4.72661 5.38668C5.07994 5.32668 5.50661 5.01334 5.66661 4.68668L6.83994 2.34001C7.47994 1.06668 8.51994 1.06668 9.15327 2.34001Z" fill="#FFDC68"/>
<path d="M25.1533 2.34001L26.3266 4.68668C26.4866 5.01334 26.9133 5.32668 27.2733 5.38668L29.3999 5.74001C30.7599 5.96668 31.0799 6.95334 30.0999 7.92668L28.4466 9.58001C28.1666 9.86001 28.0133 10.4 28.0999 10.7867L28.5733 12.8333C28.9466 14.4533 28.0866 15.08 26.6533 14.2333L24.6599 13.0533C24.2999 12.84 23.7066 12.84 23.3399 13.0533L21.3466 14.2333C19.9199 15.08 19.0533 14.4467 19.4266 12.8333L19.8999 10.7867C19.9866 10.4 19.8333 9.86001 19.5533 9.58001L17.8999 7.92668C16.9266 6.95334 17.2399 5.96668 18.5999 5.74001L20.7266 5.38668C21.0799 5.32668 21.5066 5.01334 21.6666 4.68668L22.8399 2.34001C23.4799 1.06668 24.5199 1.06668 25.1533 2.34001Z" fill="#FFDC68"/>
<path d="M41.1533 2.34001L42.3266 4.68668C42.4866 5.01334 42.9133 5.32668 43.2733 5.38668L45.3999 5.74001C46.7599 5.96668 47.0799 6.95334 46.0999 7.92668L44.4466 9.58001C44.1666 9.86001 44.0133 10.4 44.0999 10.7867L44.5733 12.8333C44.9466 14.4533 44.0866 15.08 42.6533 14.2333L40.6599 13.0533C40.2999 12.84 39.7066 12.84 39.3399 13.0533L37.3466 14.2333C35.9199 15.08 35.0533 14.4467 35.4266 12.8333L35.8999 10.7867C35.9866 10.4 35.8333 9.86001 35.5533 9.58001L33.8999 7.92668C32.9266 6.95334 33.2399 5.96668 34.5999 5.74001L36.7266 5.38668C37.0799 5.32668 37.5066 5.01334 37.6666 4.68668L38.8399 2.34001C39.4799 1.06668 40.5199 1.06668 41.1533 2.34001Z" fill="#FFDC68"/>
<path d="M57.1533 2.34001L58.3266 4.68668C58.4866 5.01334 58.9133 5.32668 59.2733 5.38668L61.3999 5.74001C62.7599 5.96668 63.0799 6.95334 62.0999 7.92668L60.4466 9.58001C60.1666 9.86001 60.0133 10.4 60.0999 10.7867L60.5733 12.8333C60.9466 14.4533 60.0866 15.08 58.6533 14.2333L56.6599 13.0533C56.2999 12.84 55.7066 12.84 55.3399 13.0533L53.3466 14.2333C51.9199 15.08 51.0533 14.4467 51.4266 12.8333L51.8999 10.7867C51.9866 10.4 51.8333 9.86001 51.5533 9.58001L49.8999 7.92668C48.9266 6.95334 49.2399 5.96668 50.5999 5.74001L52.7266 5.38668C53.0799 5.32668 53.5066 5.01334 53.6666 4.68668L54.8399 2.34001C55.4799 1.06668 56.5199 1.06668 57.1533 2.34001Z" fill="#FFDC68"/>
<path d="M73.1533 2.34001L74.3266 4.68668C74.4866 5.01334 74.9133 5.32668 75.2733 5.38668L77.3999 5.74001C78.7599 5.96668 79.0799 6.95334 78.0999 7.92668L76.4466 9.58001C76.1666 9.86001 76.0133 10.4 76.0999 10.7867L76.5733 12.8333C76.9466 14.4533 76.0866 15.08 74.6533 14.2333L72.6599 13.0533C72.2999 12.84 71.7066 12.84 71.3399 13.0533L69.3466 14.2333C67.9199 15.08 67.0533 14.4467 67.4266 12.8333L67.8999 10.7867C67.9866 10.4 67.8333 9.86001 67.5533 9.58001L65.8999 7.92668C64.9266 6.95334 65.2399 5.96668 66.5999 5.74001L68.7266 5.38668C69.0799 5.32668 69.5066 5.01334 69.6666 4.68668L70.8399 2.34001C71.4799 1.06668 72.5199 1.06668 73.1533 2.34001Z" fill="#FFDC68"/>
</svg>
