<svg width="6" height="26" viewBox="0 0 6 26" fill="none" xmlns="http://www.w3.org/2000/svg">
<path d="M0.169922 13.0001C0.169922 11.6557 1.25977 10.5659 2.60417 10.5659C3.94857 10.5659 5.03842 11.6557 5.03842 13.0001C5.03842 14.3445 3.94857 15.4344 2.60417 15.4344C1.25977 15.4344 0.169922 14.3445 0.169922 13.0001Z" fill="#606060"/>
<path d="M0.169922 22.7371C0.169922 21.3927 1.25977 20.3029 2.60417 20.3029C3.94857 20.3029 5.03842 21.3927 5.03842 22.7371C5.03842 24.0815 3.94857 25.1714 2.60417 25.1714C1.25977 25.1714 0.169922 24.0815 0.169922 22.7371Z" fill="#606060"/>
<path d="M0.169922 3.26313C0.169922 1.91873 1.25977 0.828878 2.60417 0.828878C3.94857 0.828878 5.03842 1.91873 5.03842 3.26313C5.03842 4.60753 3.94857 5.69738 2.60417 5.69738C1.25977 5.69738 0.169922 4.60753 0.169922 3.26313Z" fill="#606060"/>
</svg>
