<svg width="120" height="25" viewBox="0 0 120 25" fill="none" xmlns="http://www.w3.org/2000/svg">
<path d="M13.727 3.84296L15.487 7.36296C15.727 7.85296 16.367 8.32296 16.907 8.41296L20.097 8.94296C22.137 9.28296 22.617 10.763 21.147 12.223L18.667 14.703C18.247 15.123 18.017 15.933 18.147 16.513L18.857 19.583C19.417 22.013 18.127 22.953 15.977 21.683L12.987 19.913C12.447 19.593 11.557 19.593 11.007 19.913L8.01698 21.683C5.87698 22.953 4.57698 22.003 5.13698 19.583L5.84698 16.513C5.97698 15.933 5.74698 15.123 5.32698 14.703L2.84698 12.223C1.38698 10.763 1.85698 9.28296 3.89698 8.94296L7.08698 8.41296C7.61698 8.32296 8.25698 7.85296 8.49698 7.36296L10.257 3.84296C11.217 1.93296 12.777 1.93296 13.727 3.84296Z" fill="#FDD00E"/>
<path d="M37.727 3.84296L39.487 7.36296C39.727 7.85296 40.367 8.32296 40.907 8.41296L44.097 8.94296C46.137 9.28296 46.617 10.763 45.147 12.223L42.667 14.703C42.247 15.123 42.017 15.933 42.147 16.513L42.857 19.583C43.417 22.013 42.127 22.953 39.977 21.683L36.987 19.913C36.447 19.593 35.557 19.593 35.007 19.913L32.017 21.683C29.877 22.953 28.577 22.003 29.137 19.583L29.847 16.513C29.977 15.933 29.747 15.123 29.327 14.703L26.847 12.223C25.387 10.763 25.857 9.28296 27.897 8.94296L31.087 8.41296C31.617 8.32296 32.257 7.85296 32.497 7.36296L34.257 3.84296C35.217 1.93296 36.777 1.93296 37.727 3.84296Z" fill="#FDD00E"/>
<path d="M61.727 3.84296L63.487 7.36296C63.727 7.85296 64.367 8.32296 64.907 8.41296L68.097 8.94296C70.137 9.28296 70.617 10.763 69.147 12.223L66.667 14.703C66.247 15.123 66.017 15.933 66.147 16.513L66.857 19.583C67.417 22.013 66.127 22.953 63.977 21.683L60.987 19.913C60.447 19.593 59.557 19.593 59.007 19.913L56.017 21.683C53.877 22.953 52.577 22.003 53.137 19.583L53.847 16.513C53.977 15.933 53.747 15.123 53.327 14.703L50.847 12.223C49.387 10.763 49.857 9.28296 51.897 8.94296L55.087 8.41296C55.617 8.32296 56.257 7.85296 56.497 7.36296L58.257 3.84296C59.217 1.93296 60.777 1.93296 61.727 3.84296Z" fill="#FDD00E"/>
<path d="M85.727 3.84296L87.487 7.36296C87.727 7.85296 88.367 8.32296 88.907 8.41296L92.097 8.94296C94.137 9.28296 94.617 10.763 93.147 12.223L90.667 14.703C90.247 15.123 90.017 15.933 90.147 16.513L90.857 19.583C91.417 22.013 90.127 22.953 87.977 21.683L84.987 19.913C84.447 19.593 83.557 19.593 83.007 19.913L80.017 21.683C77.877 22.953 76.577 22.003 77.137 19.583L77.847 16.513C77.977 15.933 77.747 15.123 77.327 14.703L74.847 12.223C73.387 10.763 73.857 9.28296 75.897 8.94296L79.087 8.41296C79.617 8.32296 80.257 7.85296 80.497 7.36296L82.257 3.84296C83.217 1.93296 84.777 1.93296 85.727 3.84296Z" fill="#FDD00E"/>
<path d="M109.727 3.84296L111.487 7.36296C111.727 7.85296 112.367 8.32296 112.907 8.41296L116.097 8.94296C118.137 9.28296 118.617 10.763 117.147 12.223L114.667 14.703C114.247 15.123 114.017 15.933 114.147 16.513L114.857 19.583C115.417 22.013 114.127 22.953 111.977 21.683L108.987 19.913C108.447 19.593 107.557 19.593 107.007 19.913L104.017 21.683C101.877 22.953 100.577 22.003 101.137 19.583L101.847 16.513C101.977 15.933 101.747 15.123 101.327 14.703L98.847 12.223C97.387 10.763 97.857 9.28296 99.897 8.94296L103.087 8.41296C103.617 8.32296 104.257 7.85296 104.497 7.36296L106.257 3.84296C107.217 1.93296 108.777 1.93296 109.727 3.84296Z" fill="#FDD00E"/>
</svg>
