<svg width="80" height="16" viewBox="0 0 80 16" fill="none" xmlns="http://www.w3.org/2000/svg">
<path d="M9.1523 2.33995L10.3256 4.68662C10.4856 5.01328 10.9123 5.32662 11.2723 5.38662L13.399 5.73995C14.759 5.96662 15.079 6.95328 14.099 7.92662L12.4456 9.57995C12.1656 9.85995 12.0123 10.3999 12.099 10.7866L12.5723 12.8333C12.9456 14.4533 12.0856 15.0799 10.6523 14.2333L8.65896 13.0533C8.29896 12.8399 7.70563 12.8399 7.33896 13.0533L5.34563 14.2333C3.91896 15.0799 3.0523 14.4466 3.42563 12.8333L3.89896 10.7866C3.98563 10.3999 3.8323 9.85995 3.5523 9.57995L1.89896 7.92662C0.925629 6.95328 1.23896 5.96662 2.59896 5.73995L4.72563 5.38662C5.07896 5.32662 5.50563 5.01328 5.66563 4.68662L6.83896 2.33995C7.47896 1.06662 8.51896 1.06662 9.1523 2.33995Z" fill="#FDD013"/>
<path d="M25.1523 2.33995L26.3256 4.68662C26.4856 5.01328 26.9123 5.32662 27.2723 5.38662L29.399 5.73995C30.759 5.96662 31.079 6.95328 30.099 7.92662L28.4456 9.57995C28.1656 9.85995 28.0123 10.3999 28.099 10.7866L28.5723 12.8333C28.9456 14.4533 28.0856 15.0799 26.6523 14.2333L24.659 13.0533C24.299 12.8399 23.7056 12.8399 23.339 13.0533L21.3456 14.2333C19.919 15.0799 19.0523 14.4466 19.4256 12.8333L19.899 10.7866C19.9856 10.3999 19.8323 9.85995 19.5523 9.57995L17.899 7.92662C16.9256 6.95328 17.239 5.96662 18.599 5.73995L20.7256 5.38662C21.079 5.32662 21.5056 5.01328 21.6656 4.68662L22.839 2.33995C23.479 1.06662 24.519 1.06662 25.1523 2.33995Z" fill="#FDD013"/>
<path d="M41.1523 2.33995L42.3256 4.68662C42.4856 5.01328 42.9123 5.32662 43.2723 5.38662L45.399 5.73995C46.759 5.96662 47.079 6.95328 46.099 7.92662L44.4456 9.57995C44.1656 9.85995 44.0123 10.3999 44.099 10.7866L44.5723 12.8333C44.9456 14.4533 44.0856 15.0799 42.6523 14.2333L40.659 13.0533C40.299 12.8399 39.7056 12.8399 39.339 13.0533L37.3456 14.2333C35.919 15.0799 35.0523 14.4466 35.4256 12.8333L35.899 10.7866C35.9856 10.3999 35.8323 9.85995 35.5523 9.57995L33.899 7.92662C32.9256 6.95328 33.239 5.96662 34.599 5.73995L36.7256 5.38662C37.079 5.32662 37.5056 5.01328 37.6656 4.68662L38.839 2.33995C39.479 1.06662 40.519 1.06662 41.1523 2.33995Z" fill="#FDD013"/>
<path d="M57.1523 2.33995L58.3256 4.68662C58.4856 5.01328 58.9123 5.32662 59.2723 5.38662L61.399 5.73995C62.759 5.96662 63.079 6.95328 62.099 7.92662L60.4456 9.57995C60.1656 9.85995 60.0123 10.3999 60.099 10.7866L60.5723 12.8333C60.9456 14.4533 60.0856 15.0799 58.6523 14.2333L56.659 13.0533C56.299 12.8399 55.7056 12.8399 55.339 13.0533L53.3456 14.2333C51.919 15.0799 51.0523 14.4466 51.4256 12.8333L51.899 10.7866C51.9856 10.3999 51.8323 9.85995 51.5523 9.57995L49.899 7.92662C48.9256 6.95328 49.239 5.96662 50.599 5.73995L52.7256 5.38662C53.079 5.32662 53.5056 5.01328 53.6656 4.68662L54.839 2.33995C55.479 1.06662 56.519 1.06662 57.1523 2.33995Z" fill="#FDD013"/>
<path d="M73.1523 2.33995L74.3256 4.68662C74.4856 5.01328 74.9123 5.32662 75.2723 5.38662L77.399 5.73995C78.759 5.96662 79.079 6.95328 78.099 7.92662L76.4456 9.57995C76.1656 9.85995 76.0123 10.3999 76.099 10.7866L76.5723 12.8333C76.9456 14.4533 76.0856 15.0799 74.6523 14.2333L72.659 13.0533C72.299 12.8399 71.7056 12.8399 71.339 13.0533L69.3456 14.2333C67.919 15.0799 67.0523 14.4466 67.4256 12.8333L67.899 10.7866C67.9856 10.3999 67.8323 9.85995 67.5523 9.57995L65.899 7.92662C64.9256 6.95328 65.239 5.96662 66.599 5.73995L68.7256 5.38662C69.079 5.32662 69.5056 5.01328 69.6656 4.68662L70.839 2.33995C71.479 1.06662 72.519 1.06662 73.1523 2.33995Z" fill="#FDD013"/>
</svg>
