<svg width="33" height="32" viewBox="0 0 33 32" fill="none" xmlns="http://www.w3.org/2000/svg">
<g clip-path="url(#clip0_60935_6155)">
<path d="M16.5 7.125C11.6063 7.125 7.625 11.1063 7.625 16C7.625 20.8937 11.6063 24.875 16.5 24.875C21.3937 24.875 25.375 20.8937 25.375 16C25.375 11.1063 21.3937 7.125 16.5 7.125ZM16.5 23.625C12.2956 23.625 8.875 20.2044 8.875 16C8.875 11.7956 12.2956 8.375 16.5 8.375C20.7044 8.375 24.125 11.7956 24.125 16C24.125 20.2044 20.7044 23.625 16.5 23.625ZM32.1682 0.072996C32.068 0.0198054 31.9552 -0.00512482 31.8419 0.00087546C31.7286 0.00687574 31.6191 0.0435805 31.5251 0.107058C28.4568 2.18025 26.625 5.62875 26.625 9.33181V17.4413C26.625 18.3111 26.9638 19.1289 27.5788 19.7439L28.75 20.9152V30.125C28.75 31.1589 29.5911 32 30.625 32C31.6589 32 32.5 31.1589 32.5 30.125V0.624996C32.5 0.393808 32.3724 0.181496 32.1682 0.072996ZM31.25 30.125C31.25 30.4696 30.9696 30.75 30.625 30.75C30.2804 30.75 30 30.4696 30 30.125V20.6562C30 20.4905 29.9341 20.3316 29.8169 20.2143L28.4626 18.86C28.0837 18.4811 27.875 17.9772 27.875 17.4413V9.33181C27.875 6.45806 29.1176 3.75718 31.25 1.89356V30.125Z" fill="#253359"/>
<path d="M15.0661 11.0433C14.9306 10.7259 14.5633 10.5784 14.2459 10.7139C13.2095 11.1552 12.3258 11.8917 11.705 12.8317C11.0842 13.7717 10.7537 14.8735 10.7547 16C10.7547 16.3451 11.0345 16.625 11.3797 16.625C11.7249 16.625 12.0047 16.3451 12.0047 16C12.0039 15.1185 12.2626 14.2563 12.7484 13.5208C13.2342 12.7852 13.9257 12.2089 14.7367 11.8636C15.0541 11.7281 15.2016 11.3608 15.0661 11.0433ZM16.5 10.2547L16.4684 10.2548C16.1233 10.2571 15.8453 10.5388 15.8476 10.8839C15.8499 11.2277 16.1293 11.5048 16.4726 11.5048H16.4768L16.5 11.5047C16.8452 11.5047 17.125 11.2249 17.125 10.8797C17.125 10.5345 16.8452 10.2547 16.5 10.2547ZM25.1639 7.77994C24.0597 6.61644 22.7581 5.70094 21.2952 5.05894C19.7805 4.39419 18.1671 4.05713 16.5 4.05713C14.595 4.05713 12.774 4.4925 11.0876 5.35125C10.7801 5.50787 10.6576 5.88419 10.8142 6.19181C10.9709 6.49931 11.3472 6.62169 11.6549 6.46513C13.1639 5.69675 14.794 5.30713 16.5 5.30713C19.4622 5.30713 22.2172 6.49087 24.2572 8.64044C24.3156 8.70206 24.3859 8.75113 24.4639 8.78461C24.5418 8.8181 24.6258 8.83531 24.7107 8.83519C24.8708 8.83538 25.0248 8.7739 25.1408 8.6635C25.3912 8.42587 25.4015 8.03031 25.1639 7.77994ZM25.7707 22.5237C25.4999 22.3097 25.1069 22.3556 24.8928 22.6264C22.8495 25.2108 19.7904 26.6929 16.5 26.6929C14.4406 26.6929 12.4414 26.1064 10.7186 24.9967C10.4284 24.8098 10.0416 24.8936 9.85469 25.1838C9.66781 25.474 9.75156 25.8608 10.0417 26.0476C11.9669 27.2875 14.2001 27.9428 16.5 27.9428C20.175 27.9428 23.5914 26.2876 25.8733 23.4016C26.0874 23.1309 26.0415 22.7378 25.7707 22.5237ZM8.99737 23.6203L8.98819 23.6097C8.98488 23.6056 8.98156 23.6015 8.97812 23.5975C8.75581 23.3334 8.36156 23.2996 8.0975 23.5219C7.83344 23.7443 7.79956 24.1384 8.02194 24.4026L8.028 24.4097L8.02831 24.4095C8.03494 24.4179 8.04181 24.4263 8.04894 24.4345C8.10758 24.503 8.18037 24.5579 8.26228 24.5955C8.3442 24.6331 8.4333 24.6525 8.52344 24.6524C8.67273 24.6525 8.81711 24.599 8.93025 24.5016C9.19213 24.2768 9.22219 23.8822 8.99737 23.6203ZM8.25 0C7.90481 0 7.625 0.279813 7.625 0.625V7.375H6.4995C6.49956 7.3715 6.5 7.36812 6.5 7.36456V0.625C6.5 0.279813 6.22019 0 5.875 0C5.52981 0 5.25 0.279813 5.25 0.625V7.36456C5.25 7.36806 5.2505 7.3715 5.2505 7.375H4.1245C4.12456 7.3715 4.125 7.36812 4.125 7.36456V0.625C4.125 0.279813 3.84519 0 3.5 0C3.15481 0 2.875 0.279813 2.875 0.625V7.36456C2.875 7.36806 2.8755 7.3715 2.8755 7.375H1.75V0.625C1.75 0.279813 1.47019 0 1.125 0C0.779813 0 0.5 0.279813 0.5 0.625V8.25C0.5 9.78312 1.43025 11.1668 2.8125 11.7649V30.125C2.8125 31.1589 3.65363 32 4.6875 32C5.72137 32 6.5625 31.1589 6.5625 30.125V11.7649C7.94475 11.1668 8.875 9.78312 8.875 8.25V0.625C8.875 0.279813 8.59519 0 8.25 0ZM5.764 10.7262C5.63383 10.7639 5.5194 10.8428 5.43797 10.9511C5.35653 11.0594 5.3125 11.1912 5.3125 11.3267V30.125C5.3125 30.4696 5.03212 30.75 4.6875 30.75C4.34288 30.75 4.0625 30.4696 4.0625 30.125V11.3267C4.0625 11.1912 4.01847 11.0594 3.93703 10.9511C3.8556 10.8428 3.74117 10.7639 3.611 10.7262C2.63706 10.4448 1.92469 9.60881 1.77825 8.625H7.59669C7.45031 9.60881 6.73794 10.4448 5.764 10.7262Z" fill="#253359"/>
<path d="M16.4999 4.5L16.5001 27.3283L16.4552 27.3224C12.615 26.8217 5.99993 25.9591 6 15.5C6.5 6 13.1666 4.5 16.4999 4.5Z" fill="white"/>
<path d="M16.5 7.125C11.6063 7.125 7.625 11.1063 7.625 16C7.625 20.8937 11.6063 24.875 16.5 24.875C21.3937 24.875 25.375 20.8937 25.375 16C25.375 11.1063 21.3937 7.125 16.5 7.125ZM16.5 23.625C12.2956 23.625 8.875 20.2044 8.875 16C8.875 11.7956 12.2956 8.375 16.5 8.375C20.7044 8.375 24.125 11.7956 24.125 16C24.125 20.2044 20.7044 23.625 16.5 23.625ZM32.1682 0.072996C32.068 0.0198054 31.9552 -0.00512482 31.8419 0.00087546C31.7286 0.00687574 31.6191 0.0435805 31.5251 0.107058C28.4568 2.18025 26.625 5.62875 26.625 9.33181V17.4413C26.625 18.3111 26.9638 19.1289 27.5788 19.7439L28.75 20.9152V30.125C28.75 31.1589 29.5911 32 30.625 32C31.6589 32 32.5 31.1589 32.5 30.125V0.624996C32.5 0.393808 32.3724 0.181496 32.1682 0.072996ZM31.25 30.125C31.25 30.4696 30.9696 30.75 30.625 30.75C30.2804 30.75 30 30.4696 30 30.125V20.6562C30 20.4905 29.9341 20.3316 29.8169 20.2143L28.4626 18.86C28.0837 18.4811 27.875 17.9772 27.875 17.4413V9.33181C27.875 6.45806 29.1176 3.75718 31.25 1.89356V30.125Z" fill="#253359"/>
<path d="M15.0661 11.0433C14.9306 10.7259 14.5633 10.5784 14.2459 10.7139C13.2095 11.1552 12.3258 11.8917 11.705 12.8317C11.0842 13.7717 10.7537 14.8735 10.7547 16C10.7547 16.3451 11.0345 16.625 11.3797 16.625C11.7249 16.625 12.0047 16.3451 12.0047 16C12.0039 15.1185 12.2626 14.2563 12.7484 13.5208C13.2342 12.7852 13.9257 12.2089 14.7367 11.8636C15.0541 11.7281 15.2016 11.3608 15.0661 11.0433ZM16.5 10.2547L16.4684 10.2548C16.1233 10.2571 15.8453 10.5388 15.8476 10.8839C15.8499 11.2277 16.1293 11.5048 16.4726 11.5048H16.4768L16.5 11.5047C16.8452 11.5047 17.125 11.2249 17.125 10.8797C17.125 10.5345 16.8452 10.2547 16.5 10.2547ZM25.1639 7.77994C24.0597 6.61644 22.7581 5.70094 21.2952 5.05894C19.7805 4.39419 18.1671 4.05713 16.5 4.05713C14.595 4.05713 12.774 4.4925 11.0876 5.35125C10.7801 5.50787 10.6576 5.88419 10.8142 6.19181C10.9709 6.49931 11.3472 6.62169 11.6549 6.46513C13.1639 5.69675 14.794 5.30713 16.5 5.30713C19.4622 5.30713 22.2172 6.49087 24.2572 8.64044C24.3156 8.70206 24.3859 8.75113 24.4639 8.78461C24.5418 8.8181 24.6258 8.83531 24.7107 8.83519C24.8708 8.83538 25.0248 8.7739 25.1408 8.6635C25.3912 8.42587 25.4015 8.03031 25.1639 7.77994ZM25.7707 22.5237C25.4999 22.3097 25.1069 22.3556 24.8928 22.6264C22.8495 25.2108 19.7904 26.6929 16.5 26.6929C14.4406 26.6929 12.4414 26.1064 10.7186 24.9967C10.4284 24.8098 10.0416 24.8936 9.85469 25.1838C9.66781 25.474 9.75156 25.8608 10.0417 26.0476C11.9669 27.2875 14.2001 27.9428 16.5 27.9428C20.175 27.9428 23.5914 26.2876 25.8733 23.4016C26.0874 23.1309 26.0415 22.7378 25.7707 22.5237ZM8.99737 23.6203L8.98819 23.6097C8.98488 23.6056 8.98156 23.6015 8.97812 23.5975C8.75581 23.3334 8.36156 23.2996 8.0975 23.5219C7.83344 23.7443 7.79956 24.1384 8.02194 24.4026L8.028 24.4097L8.02831 24.4095C8.03494 24.4179 8.04181 24.4263 8.04894 24.4345C8.10758 24.503 8.18037 24.5579 8.26228 24.5955C8.3442 24.6331 8.4333 24.6525 8.52344 24.6524C8.67273 24.6525 8.81711 24.599 8.93025 24.5016C9.19213 24.2768 9.22219 23.8822 8.99737 23.6203ZM8.25 0C7.90481 0 7.625 0.279813 7.625 0.625V7.375H6.4995C6.49956 7.3715 6.5 7.36812 6.5 7.36456V0.625C6.5 0.279813 6.22019 0 5.875 0C5.52981 0 5.25 0.279813 5.25 0.625V7.36456C5.25 7.36806 5.2505 7.3715 5.2505 7.375H4.1245C4.12456 7.3715 4.125 7.36812 4.125 7.36456V0.625C4.125 0.279813 3.84519 0 3.5 0C3.15481 0 2.875 0.279813 2.875 0.625V7.36456C2.875 7.36806 2.8755 7.3715 2.8755 7.375H1.75V0.625C1.75 0.279813 1.47019 0 1.125 0C0.779813 0 0.5 0.279813 0.5 0.625V8.25C0.5 9.78312 1.43025 11.1668 2.8125 11.7649V30.125C2.8125 31.1589 3.65363 32 4.6875 32C5.72137 32 6.5625 31.1589 6.5625 30.125V11.7649C7.94475 11.1668 8.875 9.78312 8.875 8.25V0.625C8.875 0.279813 8.59519 0 8.25 0ZM5.764 10.7262C5.63383 10.7639 5.5194 10.8428 5.43797 10.9511C5.35653 11.0594 5.3125 11.1912 5.3125 11.3267V30.125C5.3125 30.4696 5.03212 30.75 4.6875 30.75C4.34288 30.75 4.0625 30.4696 4.0625 30.125V11.3267C4.0625 11.1912 4.01847 11.0594 3.93703 10.9511C3.8556 10.8428 3.74117 10.7639 3.611 10.7262C2.63706 10.4448 1.92469 9.60881 1.77825 8.625H7.59669C7.45031 9.60881 6.73794 10.4448 5.764 10.7262Z" fill="#253359"/>
</g>
<defs>
<clipPath id="clip0_60935_6155">
<rect width="32" height="32" fill="white" transform="translate(0.5)"/>
</clipPath>
</defs>
</svg>
