<svg width="32" height="32" viewBox="0 0 32 32" fill="none" xmlns="http://www.w3.org/2000/svg">
<path d="M27.0776 23.0331C27.0776 23.4331 26.9887 23.8442 26.7998 24.2442C26.6109 24.6442 26.3665 25.022 26.0442 25.3776C25.4998 25.9776 24.8998 26.4109 24.222 26.6887C23.5553 26.9664 22.8331 27.1109 22.0553 27.1109C20.922 27.1109 19.7109 26.8442 18.4331 26.2998C17.1553 25.7553 15.8776 25.022 14.6109 24.0998C13.3331 23.1664 12.122 22.1331 10.9664 20.9887C9.82201 19.8331 8.78867 18.622 7.86645 17.3553C6.95534 16.0887 6.22201 14.822 5.68867 13.5664C5.15534 12.2998 4.88867 11.0887 4.88867 9.93312C4.88867 9.17756 5.02201 8.45534 5.28867 7.78867C5.55534 7.11089 5.97756 6.48867 6.56645 5.93312C7.27756 5.23312 8.05534 4.88867 8.87756 4.88867C9.18867 4.88867 9.49978 4.95534 9.77756 5.08867C10.0664 5.22201 10.322 5.42201 10.522 5.71089L13.0998 9.34423C13.2998 9.62201 13.4442 9.87756 13.5442 10.122C13.6442 10.3553 13.6998 10.5887 13.6998 10.7998C13.6998 11.0664 13.622 11.3331 13.4665 11.5887C13.322 11.8442 13.1109 12.1109 12.8442 12.3776L11.9998 13.2553C11.8776 13.3776 11.822 13.522 11.822 13.6998C11.822 13.7887 11.8331 13.8664 11.8553 13.9553C11.8887 14.0442 11.922 14.1109 11.9442 14.1776C12.1442 14.5442 12.4887 15.022 12.9776 15.5998C13.4776 16.1776 14.0109 16.7664 14.5887 17.3553C15.1887 17.9442 15.7664 18.4887 16.3553 18.9887C16.9331 19.4776 17.4109 19.8109 17.7887 20.0109C17.8442 20.0331 17.9109 20.0664 17.9887 20.0998C18.0776 20.1331 18.1665 20.1442 18.2665 20.1442C18.4553 20.1442 18.5998 20.0776 18.722 19.9553L19.5665 19.122C19.8442 18.8442 20.1109 18.6331 20.3665 18.4998C20.622 18.3442 20.8776 18.2664 21.1553 18.2664C21.3664 18.2664 21.5887 18.3109 21.8331 18.4109C22.0776 18.5109 22.3331 18.6553 22.6109 18.8442L26.2887 21.4553C26.5776 21.6553 26.7776 21.8887 26.8998 22.1664C27.0109 22.4442 27.0776 22.722 27.0776 23.0331Z" stroke="#253359" stroke-width="1.23077" stroke-miterlimit="10"/>
<path d="M23.2219 12.6665C23.2219 11.9998 22.6997 10.9776 21.9219 10.1443C21.2108 9.37759 20.2663 8.77759 19.333 8.77759" stroke="#FF9568" stroke-width="1.23077" stroke-linecap="round" stroke-linejoin="round"/>
<circle cx="18.2222" cy="14.1478" r="1.60684" stroke="#FF9568" stroke-width="1.23077"/>
<path d="M27.1108 12.6664C27.1108 8.36645 23.633 4.88867 19.333 4.88867" stroke="#FF9568" stroke-width="1.23077" stroke-linecap="round" stroke-linejoin="round"/>
</svg>
