<svg width="33" height="32" viewBox="0 0 33 32" fill="none" xmlns="http://www.w3.org/2000/svg">
<g clip-path="url(#clip0_60935_8493)">
<path d="M6.99955 21.5C7.49955 22.25 15.9995 22.5 15.9995 22.5V0.5H11.4996L8.99961 2L7.99961 14.5L9.99961 16.5H13.9996V19H6.99961C6.99961 19 6.49955 20.75 6.99955 21.5Z" fill="white"/>
<path d="M29.8403 12.9041C29.8403 11.8958 29.02 11.0754 28.0119 11.0754H26.6636C25.6553 11.0754 24.8349 11.8958 24.8349 12.9041V15.157L24.8347 19.1777C24.8347 19.1902 24.8323 19.2024 24.8275 19.2139C24.8228 19.2254 24.8158 19.2358 24.807 19.2445C24.7983 19.2533 24.7879 19.2603 24.7764 19.265C24.7649 19.2698 24.7527 19.2722 24.7402 19.2722H24.2041C23.9529 18.7844 23.4441 18.4499 22.8584 18.4499H16.5288V16.9986H19.4055C20.4211 16.9986 21.3924 16.5644 22.0696 15.8076C22.4046 15.4328 22.657 14.9915 22.8102 14.5127C22.9634 14.0338 23.014 13.528 22.9587 13.0283L21.8631 3.17969C21.6612 1.36694 20.1337 0 18.31 0H12.0305C10.2066 0 8.67925 1.36694 8.47756 3.17969L8.31056 4.68044C8.29685 4.804 8.33277 4.92795 8.41041 5.02505C8.48805 5.12215 8.60107 5.18444 8.72462 5.19825C8.84819 5.21196 8.97214 5.17604 9.06924 5.0984C9.16634 5.02076 9.22863 4.90774 9.24244 4.78419L9.40919 3.28319C9.55812 1.94606 10.6848 0.9375 12.0305 0.9375H18.3101C19.6555 0.9375 20.7825 1.94606 20.9311 3.28319L22.0269 13.1321C22.0677 13.5007 22.0303 13.8738 21.9173 14.2271C21.8043 14.5804 21.6181 14.9059 21.3709 15.1824C21.1234 15.4587 20.8205 15.6798 20.4818 15.8312C20.1432 15.9826 19.7764 16.0609 19.4055 16.0611H10.9348C10.5639 16.0608 10.1972 15.9825 9.85855 15.8311C9.51993 15.6797 9.217 15.4586 8.9695 15.1824C8.72228 14.9059 8.53609 14.5804 8.42306 14.2271C8.31003 13.8738 8.2727 13.5007 8.3135 13.1321L9.03494 6.64744C9.04693 6.52477 9.01013 6.40232 8.9325 6.30658C8.85487 6.21085 8.74266 6.14955 8.62017 6.13594C8.49767 6.12233 8.37474 6.15752 8.27799 6.23388C8.18125 6.31024 8.11847 6.42163 8.10325 6.54394L7.38181 13.0283C7.32645 13.528 7.37702 14.0338 7.53023 14.5127C7.68344 14.9916 7.93585 15.4328 8.271 15.8076C8.60645 16.1821 9.01704 16.4817 9.47602 16.6869C9.93499 16.8921 10.4321 16.9983 10.9348 16.9986H13.8118V18.4499H7.48194C6.8965 18.4499 6.38744 18.7844 6.13625 19.2722H5.60012C5.57508 19.2722 5.55106 19.2622 5.53334 19.2445C5.51563 19.2268 5.50566 19.2028 5.50562 19.1777L5.50537 15.157V12.9041C5.50537 11.8958 4.68506 11.0754 3.67675 11.0754H2.32862C1.32031 11.0754 0.5 11.8958 0.5 12.9041C0.5 14.2591 1.49563 15.3859 2.79375 15.5921V19.1777C2.79375 20.7253 4.05275 21.9841 5.60012 21.9841H6.89888C7.36619 22.3865 7.97363 22.6299 8.637 22.6299H13.8118V26.7432H9.42113C7.2715 26.7432 5.52269 28.4919 5.52269 30.6416C5.52269 31.3906 6.13206 32 6.88112 32C7.63037 32 8.23975 31.3906 8.23975 30.6416C8.23975 29.99 8.76956 29.4599 9.42113 29.4599H13.8118V30.6416C13.8118 31.3906 14.4211 32 15.1702 32C15.9194 32 16.5288 31.3906 16.5288 30.6416V29.4599H20.9194C21.5708 29.4599 22.1008 29.9899 22.1008 30.6414C22.1008 31.3904 22.7102 32 23.4592 32C24.2085 32 24.8179 31.3904 24.8179 30.6414C24.8179 28.4917 23.0689 26.7429 20.9194 26.7429H16.5288V22.6296H17.4431C17.7021 22.6296 17.9119 22.4199 17.9119 22.1609C17.9119 22.0366 17.8625 21.9173 17.7746 21.8294C17.6867 21.7415 17.5674 21.6921 17.4431 21.6921H8.63688C7.68306 21.6921 6.90688 20.916 6.90688 19.9621C6.90688 19.6453 7.165 19.3872 7.48187 19.3872H22.8583C23.1755 19.3872 23.4333 19.6453 23.4333 19.9622C23.4333 20.916 22.6574 21.6922 21.7033 21.6922H19.3197C19.1954 21.6922 19.0762 21.7416 18.9883 21.8295C18.9004 21.9174 18.851 22.0366 18.851 22.1609C18.851 22.2853 18.9004 22.4045 18.9883 22.4924C19.0762 22.5803 19.1954 22.6297 19.3197 22.6297H21.7033C22.3666 22.6297 22.9743 22.3862 23.4414 21.9841H24.7401C26.2878 21.9841 27.5466 20.7251 27.5466 19.1777V15.5918C28.8449 15.386 29.8403 14.2591 29.8403 12.9041ZM16.0601 27.6806H20.9194C22.552 27.6806 23.8804 29.0088 23.8804 30.6416C23.8804 30.8737 23.6914 31.0624 23.4592 31.0624C23.2271 31.0624 23.0383 30.8737 23.0383 30.6416C23.0383 29.4731 22.0877 28.5224 20.9194 28.5224H16.0601C15.9357 28.5224 15.8165 28.5718 15.7286 28.6597C15.6407 28.7476 15.5913 28.8668 15.5913 28.9911V30.6416C15.5913 30.8737 15.4023 31.0624 15.1702 31.0624C14.9381 31.0624 14.7493 30.8737 14.7493 30.6416V28.9911C14.7493 28.7324 14.5393 28.5224 14.2805 28.5224H9.42113C8.25269 28.5224 7.30225 29.4731 7.30225 30.6413C7.30225 30.8735 7.11325 31.0624 6.88112 31.0624C6.649 31.0624 6.46019 30.8735 6.46019 30.6413C6.46019 29.0087 7.78831 27.6804 9.42113 27.6804H14.2805C14.4048 27.6804 14.524 27.631 14.612 27.5431C14.6999 27.4552 14.7493 27.3359 14.7493 27.2116V22.6296H15.5913V27.2116C15.5913 27.2732 15.6034 27.3342 15.6269 27.3911C15.6505 27.448 15.685 27.4997 15.7285 27.5432C15.772 27.5868 15.8237 27.6213 15.8806 27.6449C15.9375 27.6685 15.9985 27.6806 16.0601 27.6806ZM1.4375 12.9041C1.4375 12.4126 1.83719 12.0129 2.32862 12.0129H3.67675C4.16819 12.0129 4.56787 12.4126 4.56787 12.9041V14.6882H3.22163C2.23788 14.6882 1.4375 13.8877 1.4375 12.9041ZM3.73125 19.1777V15.6257H4.56812V19.1777C4.56812 19.7468 5.031 20.2097 5.60012 20.2097H5.98094C6.00762 20.4989 6.08163 20.7817 6.2 21.0469H5.60019C4.56962 21.0466 3.73125 20.2083 3.73125 19.1777ZM14.7493 16.9986H15.5913V18.4499H14.7493V16.9986ZM24.7402 21.0467H24.1404C24.2588 20.7816 24.3329 20.4988 24.3596 20.2097H24.7402C25.3093 20.2097 25.7722 19.7468 25.7722 19.1777L25.7724 15.6255H26.6091V19.1777C26.6091 20.2083 25.7708 21.0466 24.7402 21.0466V21.0467ZM27.1186 14.6882H25.7725V12.9041C25.7725 12.4126 26.1722 12.0129 26.6634 12.0129H28.0118C28.5033 12.0129 28.9029 12.4126 28.9029 12.9041C28.9029 13.8877 28.1026 14.6882 27.1186 14.6882Z" fill="#253359"/>
<path d="M29.8403 12.9041C29.8403 11.8958 29.02 11.0754 28.0119 11.0754H26.6636C25.6553 11.0754 24.8349 11.8958 24.8349 12.9041V15.157L24.8347 19.1777C24.8347 19.1902 24.8323 19.2024 24.8275 19.2139C24.8228 19.2254 24.8158 19.2358 24.807 19.2445C24.7983 19.2533 24.7879 19.2603 24.7764 19.265C24.7649 19.2698 24.7527 19.2722 24.7402 19.2722H24.2041C23.9529 18.7844 23.4441 18.4499 22.8584 18.4499H16.5288V16.9986H19.4055C20.4211 16.9986 21.3924 16.5644 22.0696 15.8076C22.4046 15.4328 22.657 14.9915 22.8102 14.5127C22.9634 14.0338 23.014 13.528 22.9587 13.0283L21.8631 3.17969C21.6612 1.36694 20.1337 0 18.31 0H12.0305C10.2066 0 8.67925 1.36694 8.47756 3.17969L8.31056 4.68044C8.29685 4.804 8.33277 4.92795 8.41041 5.02505C8.48805 5.12215 8.60107 5.18444 8.72462 5.19825C8.84819 5.21196 8.97214 5.17604 9.06924 5.0984C9.16634 5.02076 9.22863 4.90774 9.24244 4.78419L9.40919 3.28319C9.55812 1.94606 10.6848 0.9375 12.0305 0.9375H18.3101C19.6555 0.9375 20.7825 1.94606 20.9311 3.28319L22.0269 13.1321C22.0677 13.5007 22.0303 13.8738 21.9173 14.2271C21.8043 14.5804 21.6181 14.9059 21.3709 15.1824C21.1234 15.4587 20.8205 15.6798 20.4818 15.8312C20.1432 15.9826 19.7764 16.0609 19.4055 16.0611H10.9348C10.5639 16.0608 10.1972 15.9825 9.85855 15.8311C9.51993 15.6797 9.217 15.4586 8.9695 15.1824C8.72228 14.9059 8.53609 14.5804 8.42306 14.2271C8.31003 13.8738 8.2727 13.5007 8.3135 13.1321L9.03494 6.64744C9.04693 6.52477 9.01013 6.40232 8.9325 6.30658C8.85487 6.21085 8.74266 6.14955 8.62017 6.13594C8.49767 6.12233 8.37474 6.15752 8.27799 6.23388C8.18125 6.31024 8.11847 6.42163 8.10325 6.54394L7.38181 13.0283C7.32645 13.528 7.37702 14.0338 7.53023 14.5127C7.68344 14.9916 7.93585 15.4328 8.271 15.8076C8.60645 16.1821 9.01704 16.4817 9.47602 16.6869C9.93499 16.8921 10.4321 16.9983 10.9348 16.9986H13.8118V18.4499H7.48194C6.8965 18.4499 6.38744 18.7844 6.13625 19.2722H5.60012C5.57508 19.2722 5.55106 19.2622 5.53334 19.2445C5.51563 19.2268 5.50566 19.2028 5.50562 19.1777L5.50537 15.157V12.9041C5.50537 11.8958 4.68506 11.0754 3.67675 11.0754H2.32862C1.32031 11.0754 0.5 11.8958 0.5 12.9041C0.5 14.2591 1.49563 15.3859 2.79375 15.5921V19.1777C2.79375 20.7253 4.05275 21.9841 5.60012 21.9841H6.89888C7.36619 22.3865 7.97363 22.6299 8.637 22.6299H13.8118V26.7432H9.42113C7.2715 26.7432 5.52269 28.4919 5.52269 30.6416C5.52269 31.3906 6.13206 32 6.88112 32C7.63037 32 8.23975 31.3906 8.23975 30.6416C8.23975 29.99 8.76956 29.4599 9.42113 29.4599H13.8118V30.6416C13.8118 31.3906 14.4211 32 15.1702 32C15.9194 32 16.5288 31.3906 16.5288 30.6416V29.4599H20.9194C21.5708 29.4599 22.1008 29.9899 22.1008 30.6414C22.1008 31.3904 22.7102 32 23.4592 32C24.2085 32 24.8179 31.3904 24.8179 30.6414C24.8179 28.4917 23.0689 26.7429 20.9194 26.7429H16.5288V22.6296H17.4431C17.7021 22.6296 17.9119 22.4199 17.9119 22.1609C17.9119 22.0366 17.8625 21.9173 17.7746 21.8294C17.6867 21.7415 17.5674 21.6921 17.4431 21.6921H8.63688C7.68306 21.6921 6.90688 20.916 6.90688 19.9621C6.90688 19.6453 7.165 19.3872 7.48187 19.3872H22.8583C23.1755 19.3872 23.4333 19.6453 23.4333 19.9622C23.4333 20.916 22.6574 21.6922 21.7033 21.6922H19.3197C19.1954 21.6922 19.0762 21.7416 18.9883 21.8295C18.9004 21.9174 18.851 22.0366 18.851 22.1609C18.851 22.2853 18.9004 22.4045 18.9883 22.4924C19.0762 22.5803 19.1954 22.6297 19.3197 22.6297H21.7033C22.3666 22.6297 22.9743 22.3862 23.4414 21.9841H24.7401C26.2878 21.9841 27.5466 20.7251 27.5466 19.1777V15.5918C28.8449 15.386 29.8403 14.2591 29.8403 12.9041ZM16.0601 27.6806H20.9194C22.552 27.6806 23.8804 29.0088 23.8804 30.6416C23.8804 30.8737 23.6914 31.0624 23.4592 31.0624C23.2271 31.0624 23.0383 30.8737 23.0383 30.6416C23.0383 29.4731 22.0877 28.5224 20.9194 28.5224H16.0601C15.9357 28.5224 15.8165 28.5718 15.7286 28.6597C15.6407 28.7476 15.5913 28.8668 15.5913 28.9911V30.6416C15.5913 30.8737 15.4023 31.0624 15.1702 31.0624C14.9381 31.0624 14.7493 30.8737 14.7493 30.6416V28.9911C14.7493 28.7324 14.5393 28.5224 14.2805 28.5224H9.42113C8.25269 28.5224 7.30225 29.4731 7.30225 30.6413C7.30225 30.8735 7.11325 31.0624 6.88112 31.0624C6.649 31.0624 6.46019 30.8735 6.46019 30.6413C6.46019 29.0087 7.78831 27.6804 9.42113 27.6804H14.2805C14.4048 27.6804 14.524 27.631 14.612 27.5431C14.6999 27.4552 14.7493 27.3359 14.7493 27.2116V22.6296H15.5913V27.2116C15.5913 27.2732 15.6034 27.3342 15.6269 27.3911C15.6505 27.448 15.685 27.4997 15.7285 27.5432C15.772 27.5868 15.8237 27.6213 15.8806 27.6449C15.9375 27.6685 15.9985 27.6806 16.0601 27.6806ZM1.4375 12.9041C1.4375 12.4126 1.83719 12.0129 2.32862 12.0129H3.67675C4.16819 12.0129 4.56787 12.4126 4.56787 12.9041V14.6882H3.22163C2.23788 14.6882 1.4375 13.8877 1.4375 12.9041ZM3.73125 19.1777V15.6257H4.56812V19.1777C4.56812 19.7468 5.031 20.2097 5.60012 20.2097H5.98094C6.00762 20.4989 6.08163 20.7817 6.2 21.0469H5.60019C4.56962 21.0466 3.73125 20.2083 3.73125 19.1777ZM14.7493 16.9986H15.5913V18.4499H14.7493V16.9986ZM24.7402 21.0467H24.1404C24.2588 20.7816 24.3329 20.4988 24.3596 20.2097H24.7402C25.3093 20.2097 25.7722 19.7468 25.7722 19.1777L25.7724 15.6255H26.6091V19.1777C26.6091 20.2083 25.7708 21.0466 24.7402 21.0466V21.0467ZM27.1186 14.6882H25.7725V12.9041C25.7725 12.4126 26.1722 12.0129 26.6634 12.0129H28.0118C28.5033 12.0129 28.9029 12.4126 28.9029 12.9041C28.9029 13.8877 28.1026 14.6882 27.1186 14.6882Z" fill="#253359"/>
</g>
<defs>
<clipPath id="clip0_60935_8493">
<rect width="32" height="32" fill="white" transform="translate(0.5)"/>
</clipPath>
</defs>
</svg>
