<svg width="33" height="32" viewBox="0 0 33 32" fill="none" xmlns="http://www.w3.org/2000/svg">
<g clip-path="url(#clip0_60935_9937)">
<path d="M13.5 0.5L13 31.5L2.5 18.5L4 15.5H8.5V2L10 0.5H13.5Z" fill="white"/>
<mask id="mask0_60935_9937" style="mask-type:luminance" maskUnits="userSpaceOnUse" x="0" y="0" width="33" height="32">
<path d="M0.5 0H32.5V32H0.5V0Z" fill="white"/>
</mask>
<g mask="url(#mask0_60935_9937)">
<path fill-rule="evenodd" clip-rule="evenodd" d="M25.1613 12.672C25.2863 12.797 25.3565 12.9666 25.3565 13.1433C25.3565 13.3201 25.2863 13.4896 25.1613 13.6147L19.448 19.328C19.3865 19.3917 19.3129 19.4425 19.2316 19.4774C19.1503 19.5123 19.0628 19.5307 18.9743 19.5315C18.8857 19.5323 18.7979 19.5154 18.716 19.4819C18.6341 19.4484 18.5597 19.3989 18.4971 19.3363C18.4345 19.2737 18.385 19.1992 18.3514 19.1173C18.3179 19.0354 18.301 18.9476 18.3018 18.8591C18.3026 18.7705 18.321 18.6831 18.3559 18.6017C18.3909 18.5204 18.4416 18.4468 18.5053 18.3853L24.2187 12.672C24.3437 12.547 24.5132 12.4768 24.69 12.4768C24.8668 12.4768 25.0363 12.547 25.1613 12.672ZM19.7387 14.476C19.8902 14.476 20.0355 14.4158 20.1426 14.3087C20.2498 14.2015 20.31 14.0562 20.31 13.9047C20.31 13.7531 20.2498 13.6078 20.1426 13.5007C20.0355 13.3935 19.8902 13.3333 19.7387 13.3333C19.5871 13.3333 19.4418 13.3935 19.3347 13.5007C19.2275 13.6078 19.1673 13.7531 19.1673 13.9047C19.1673 14.0562 19.2275 14.2015 19.3347 14.3087C19.4418 14.4158 19.5871 14.476 19.7387 14.476ZM19.7387 15.8093C19.9888 15.8093 20.2365 15.7601 20.4675 15.6643C20.6986 15.5686 20.9086 15.4283 21.0855 15.2515C21.2623 15.0746 21.4026 14.8646 21.4983 14.6336C21.5941 14.4025 21.6433 14.1548 21.6433 13.9047C21.6433 13.6545 21.5941 13.4069 21.4983 13.1758C21.4026 12.9447 21.2623 12.7347 21.0855 12.5579C20.9086 12.381 20.6986 12.2407 20.4675 12.145C20.2365 12.0493 19.9888 12 19.7387 12C19.2335 12 18.749 12.2007 18.3918 12.5579C18.0347 12.9151 17.834 13.3995 17.834 13.9047C17.834 14.4098 18.0347 14.8943 18.3918 15.2515C18.749 15.6087 19.2335 15.8093 19.7387 15.8093ZM23.928 18.6667C24.0053 18.6704 24.0826 18.6584 24.1552 18.6314C24.2278 18.6043 24.2941 18.5629 24.3502 18.5094C24.4062 18.456 24.4509 18.3918 24.4814 18.3206C24.5119 18.2494 24.5276 18.1728 24.5276 18.0953C24.5276 18.0179 24.5119 17.9413 24.4814 17.8701C24.4509 17.7989 24.4062 17.7346 24.3502 17.6812C24.2941 17.6278 24.2278 17.5863 24.1552 17.5593C24.0826 17.5323 24.0053 17.5203 23.928 17.524C23.7812 17.5311 23.6428 17.5944 23.5415 17.7008C23.4401 17.8071 23.3836 17.9484 23.3836 18.0953C23.3836 18.2423 23.4401 18.3835 23.5415 18.4899C23.6428 18.5963 23.7812 18.6596 23.928 18.6667ZM23.928 20C24.1823 20.0067 24.4355 19.9624 24.6725 19.8698C24.9094 19.7771 25.1254 19.6378 25.3077 19.4603C25.49 19.2828 25.6349 19.0705 25.7338 18.8361C25.8327 18.6017 25.8837 18.3498 25.8837 18.0953C25.8837 17.8409 25.8327 17.589 25.7338 17.3546C25.6349 17.1201 25.49 16.9079 25.3077 16.7304C25.1254 16.5528 24.9094 16.4136 24.6725 16.3209C24.4355 16.2282 24.1823 16.1839 23.928 16.1907C23.4316 16.2038 22.9599 16.4102 22.6134 16.766C22.2669 17.1218 22.073 17.5987 22.073 18.0953C22.073 18.5919 22.2669 19.0689 22.6134 19.4247C22.9599 19.7804 23.4316 19.9869 23.928 20Z" fill="#253359"/>
<path fill-rule="evenodd" clip-rule="evenodd" d="M25.162 13.6134C25.2281 13.5525 25.2812 13.4788 25.3181 13.3969C25.3549 13.315 25.3749 13.2264 25.3767 13.1365C25.3785 13.0467 25.3621 12.9574 25.3285 12.874C25.2949 12.7907 25.2448 12.715 25.1812 12.6515C25.1176 12.588 25.0419 12.538 24.9585 12.5045C24.875 12.471 24.7857 12.4548 24.6959 12.4567C24.606 12.4586 24.5175 12.4787 24.4356 12.5157C24.3537 12.5527 24.2801 12.6059 24.2193 12.6721L18.506 18.3854C18.4423 18.4469 18.3915 18.5205 18.3566 18.6018C18.3216 18.6831 18.3033 18.7706 18.3025 18.8591C18.3017 18.9477 18.3186 19.0354 18.3521 19.1174C18.3856 19.1993 18.4351 19.2737 18.4977 19.3363C18.5603 19.3989 18.6348 19.4484 18.7167 19.4819C18.7986 19.5155 18.8864 19.5323 18.9749 19.5316C19.0634 19.5308 19.1509 19.5124 19.2323 19.4775C19.3136 19.4425 19.3872 19.3917 19.4487 19.3281L25.162 13.6134ZM21.6433 13.9054C21.6433 14.4105 21.4426 14.895 21.0855 15.2522C20.7283 15.6094 20.2438 15.8101 19.7387 15.8101C19.2335 15.8101 18.749 15.6094 18.3918 15.2522C18.0347 14.895 17.834 14.4105 17.834 13.9054C17.834 13.4003 18.0347 12.9158 18.3918 12.5586C18.749 12.2014 19.2335 12.0007 19.7387 12.0007C20.2438 12.0007 20.7283 12.2014 21.0855 12.5586C21.4426 12.9158 21.6433 13.4003 21.6433 13.9054ZM25.834 18.0934C25.8407 18.3478 25.7964 18.6009 25.7037 18.8379C25.611 19.0748 25.4718 19.2908 25.2943 19.4731C25.1168 19.6554 24.9045 19.8003 24.6701 19.8992C24.4356 19.9982 24.1838 20.0491 23.9293 20.0491C23.6749 20.0491 23.423 19.9982 23.1886 19.8992C22.9541 19.8003 22.7419 19.6554 22.5643 19.4731C22.3868 19.2908 22.2476 19.0748 22.1549 18.8379C22.0622 18.6009 22.0179 18.3478 22.0247 18.0934C22.0378 17.597 22.2442 17.1253 22.6 16.7788C22.9557 16.4323 23.4327 16.2385 23.9293 16.2385C24.4259 16.2385 24.9029 16.4323 25.2587 16.7788C25.6144 17.1253 25.8208 17.597 25.834 18.0934ZM20.31 13.9041C20.31 14.0556 20.2498 14.2009 20.1426 14.3081C20.0355 14.4152 19.8902 14.4754 19.7387 14.4754C19.5871 14.4754 19.4418 14.4152 19.3347 14.3081C19.2275 14.2009 19.1673 14.0556 19.1673 13.9041C19.1673 13.7525 19.2275 13.6072 19.3347 13.5001C19.4418 13.3929 19.5871 13.3327 19.7387 13.3327C19.8902 13.3327 20.0355 13.3929 20.1426 13.5001C20.2498 13.6072 20.31 13.7525 20.31 13.9041ZM23.9287 18.6667C24.006 18.6705 24.0833 18.6585 24.1559 18.6314C24.2285 18.6044 24.2948 18.5629 24.3508 18.5095C24.4069 18.4561 24.4515 18.3918 24.482 18.3207C24.5125 18.2495 24.5283 18.1728 24.5283 18.0954C24.5283 18.018 24.5125 17.9413 24.482 17.8701C24.4515 17.799 24.4069 17.7347 24.3508 17.6813C24.2948 17.6279 24.2285 17.5864 24.1559 17.5594C24.0833 17.5323 24.006 17.5203 23.9287 17.5241C23.7819 17.5312 23.6435 17.5944 23.5421 17.7008C23.4408 17.8072 23.3843 17.9485 23.3843 18.0954C23.3843 18.2423 23.4408 18.3836 23.5421 18.49C23.6435 18.5964 23.7819 18.6596 23.9287 18.6667Z" fill="#253359"/>
<path fill-rule="evenodd" clip-rule="evenodd" d="M10.9671 -0.00402832C10.083 -0.00402832 9.23516 0.347161 8.61004 0.972282C7.98492 1.5974 7.63373 2.44525 7.63373 3.32931V14.7293H5.17373C2.3804 14.7293 0.825732 17.9586 2.5684 20.1426L11.0284 30.7453C11.3406 31.1368 11.737 31.4529 12.1882 31.6701C12.6394 31.8874 13.1337 32.0002 13.6344 32.0002C14.1351 32.0002 14.6294 31.8874 15.0806 31.6701C15.5318 31.4529 15.9282 31.1368 16.2404 30.7453L20.6204 25.2546C21.9786 25.4313 23.3591 25.3069 24.6638 24.8902C25.9685 24.4735 27.1655 23.7747 28.1699 22.8435C29.1743 21.9123 29.9614 20.7714 30.4754 19.5019C30.9894 18.2323 31.2177 16.8652 31.1441 15.4976C31.0705 14.1299 30.6967 12.7952 30.0494 11.5881C29.4021 10.3811 28.497 9.33134 27.3985 8.51334C26.2999 7.69533 25.0348 7.12913 23.6929 6.85491C22.351 6.58069 20.9651 6.60518 19.6337 6.92664V3.33064C19.6337 2.44658 19.2825 1.59874 18.6574 0.973616C18.0323 0.348495 17.1845 -0.00269499 16.3004 -0.00269499L10.9671 -0.00402832ZM10.9671 1.32931C10.4366 1.32931 9.92793 1.54002 9.55285 1.91509C9.17778 2.29016 8.96707 2.79887 8.96707 3.32931V15.396C8.96707 15.5728 8.89683 15.7424 8.7718 15.8674C8.64678 15.9924 8.47721 16.0626 8.3004 16.0626H5.17373C3.49773 16.0626 2.5644 18 3.60973 19.3106L12.0711 29.9146C12.2584 30.1494 12.4962 30.339 12.7669 30.4693C13.0375 30.5996 13.334 30.6672 13.6344 30.6672C13.9348 30.6672 14.2313 30.5996 14.5019 30.4693C14.7726 30.339 15.0104 30.1494 15.1977 29.9146L19.1617 24.9453C17.3116 24.3917 15.6786 23.2781 14.4877 21.7578C13.2968 20.2376 12.6065 18.3854 12.5121 16.4566C12.4176 14.5277 12.9235 12.617 13.9602 10.9876C14.9968 9.35821 16.5132 8.09035 18.3004 7.35864V3.32931C18.3004 2.79887 18.0897 2.29016 17.7146 1.91509C17.3395 1.54002 16.8308 1.32931 16.3004 1.32931H10.9671ZM21.8337 24C23.9555 24 25.9903 23.1571 27.4906 21.6568C28.9909 20.1565 29.8337 18.1217 29.8337 16C29.8337 13.8782 28.9909 11.8434 27.4906 10.3431C25.9903 8.84283 23.9555 7.99997 21.8337 7.99997C19.712 7.99997 17.6772 8.84283 16.1769 10.3431C14.6766 11.8434 13.8337 13.8782 13.8337 16C13.8337 18.1217 14.6766 20.1565 16.1769 21.6568C17.6772 23.1571 19.712 24 21.8337 24Z" fill="#253359"/>
</g>
</g>
<defs>
<clipPath id="clip0_60935_9937">
<rect width="32" height="32" fill="white" transform="translate(0.5)"/>
</clipPath>
</defs>
</svg>
