<svg width="48" height="48" viewBox="0 0 48 48" fill="none" xmlns="http://www.w3.org/2000/svg">
<g clip-path="url(#clip0_60480_6272)">
<path d="M19.5 0.75L18.75 47.25L3 27.75L5.25 23.25H12V3L14.25 0.75H19.5Z" fill="white"/>
<mask id="mask0_60480_6272" style="mask-type:luminance" maskUnits="userSpaceOnUse" x="0" y="0" width="48" height="48">
<path d="M0 0H48V48H0V0Z" fill="white"/>
</mask>
<g mask="url(#mask0_60480_6272)">
<path fillRule="evenodd" clipRule="evenodd" d="M36.992 19.008C37.1794 19.1955 37.2848 19.4498 37.2848 19.715C37.2848 19.9802 37.1794 20.2345 36.992 20.422L28.422 28.992C28.3297 29.0875 28.2194 29.1637 28.0974 29.2161C27.9754 29.2685 27.8442 29.2961 27.7114 29.2973C27.5786 29.2984 27.4469 29.2731 27.324 29.2228C27.2011 29.1725 27.0895 29.0983 26.9956 29.0044C26.9017 28.9105 26.8274 28.7989 26.7772 28.676C26.7269 28.5531 26.7016 28.4214 26.7027 28.2886C26.7039 28.1558 26.7315 28.0246 26.7839 27.9026C26.8363 27.7806 26.9125 27.6702 27.008 27.578L35.578 19.008C35.7655 18.8205 36.0198 18.7152 36.285 18.7152C36.5501 18.7152 36.8045 18.8205 36.992 19.008ZM28.858 21.714C29.0853 21.714 29.3032 21.6237 29.464 21.463C29.6247 21.3023 29.715 21.0843 29.715 20.857C29.715 20.6297 29.6247 20.4117 29.464 20.251C29.3032 20.0903 29.0853 20 28.858 20C28.6307 20 28.4127 20.0903 28.252 20.251C28.0913 20.4117 28.001 20.6297 28.001 20.857C28.001 21.0843 28.0913 21.3023 28.252 21.463C28.4127 21.6237 28.6307 21.714 28.858 21.714ZM28.858 23.714C29.2332 23.714 29.6047 23.6401 29.9513 23.4965C30.2979 23.3529 30.6129 23.1425 30.8782 22.8772C31.1435 22.6119 31.3539 22.297 31.4975 21.9503C31.6411 21.6037 31.715 21.2322 31.715 20.857C31.715 20.4818 31.6411 20.1103 31.4975 19.7637C31.3539 19.417 31.1435 19.1021 30.8782 18.8368C30.6129 18.5715 30.2979 18.3611 29.9513 18.2175C29.6047 18.0739 29.2332 18 28.858 18C28.1003 18 27.3736 18.301 26.8378 18.8368C26.302 19.3726 26.001 20.0993 26.001 20.857C26.001 21.6147 26.302 22.3414 26.8378 22.8772C27.3736 23.413 28.1003 23.714 28.858 23.714ZM35.142 28C35.258 28.0056 35.374 27.9876 35.4828 27.9471C35.5917 27.9065 35.6912 27.8443 35.7753 27.7642C35.8594 27.684 35.9263 27.5877 35.9721 27.4809C36.0178 27.3741 36.0414 27.2592 36.0414 27.143C36.0414 27.0268 36.0178 26.9119 35.9721 26.8051C35.9263 26.6983 35.8594 26.602 35.7753 26.5218C35.6912 26.4417 35.5917 26.3795 35.4828 26.3389C35.374 26.2984 35.258 26.2804 35.142 26.286C34.9218 26.2966 34.7143 26.3916 34.5622 26.5511C34.4102 26.7107 34.3254 26.9226 34.3254 27.143C34.3254 27.3634 34.4102 27.5753 34.5622 27.7349C34.7143 27.8944 34.9218 27.9894 35.142 28ZM35.142 30C35.5235 30.0101 35.9032 29.9437 36.2587 29.8046C36.6141 29.6656 36.9381 29.4568 37.2116 29.1905C37.485 28.9242 37.7023 28.6058 37.8507 28.2541C37.9991 27.9025 38.0756 27.5247 38.0756 27.143C38.0756 26.7613 37.9991 26.3835 37.8507 26.0319C37.7023 25.6802 37.485 25.3618 37.2116 25.0955C36.9381 24.8292 36.6141 24.6204 36.2587 24.4814C35.9032 24.3423 35.5235 24.2759 35.142 24.286C34.3973 24.3057 33.6898 24.6154 33.1701 25.149C32.6504 25.6826 32.3596 26.3981 32.3596 27.143C32.3596 27.8879 32.6504 28.6034 33.1701 29.137C33.6898 29.6706 34.3973 29.9803 35.142 30Z" fill="#253359"/>
<path fillRule="evenodd" clipRule="evenodd" d="M36.992 20.4201C37.0911 20.3287 37.1708 20.2183 37.2261 20.0953C37.2814 19.9724 37.3114 19.8396 37.3141 19.7048C37.3168 19.57 37.2922 19.4361 37.2418 19.311C37.1914 19.186 37.1163 19.0724 37.0209 18.9772C36.9255 18.8819 36.8118 18.8069 36.6867 18.7567C36.5616 18.7065 36.4276 18.6821 36.2928 18.685C36.1581 18.6879 36.0253 18.718 35.9024 18.7735C35.7796 18.8291 35.6692 18.9088 35.578 19.0081L27.008 27.5781C26.9125 27.6703 26.8363 27.7807 26.7839 27.9027C26.7315 28.0247 26.7039 28.1559 26.7027 28.2887C26.7016 28.4215 26.7269 28.5532 26.7772 28.6761C26.8275 28.799 26.9017 28.9106 26.9956 29.0045C27.0895 29.0984 27.2011 29.1726 27.324 29.2229C27.4469 29.2732 27.5786 29.2985 27.7114 29.2973C27.8442 29.2962 27.9754 29.2686 28.0974 29.2162C28.2194 29.1638 28.3298 29.0876 28.422 28.9921L36.992 20.4201ZM31.714 20.8581C31.714 21.6158 31.413 22.3425 30.8772 22.8783C30.3414 23.4141 29.6147 23.7151 28.857 23.7151C28.0993 23.7151 27.3726 23.4141 26.8368 22.8783C26.301 22.3425 26 21.6158 26 20.8581C26 20.1004 26.301 19.3737 26.8368 18.8379C27.3726 18.3021 28.0993 18.0011 28.857 18.0011C29.6147 18.0011 30.3414 18.3021 30.8772 18.8379C31.413 19.3737 31.714 20.1004 31.714 20.8581ZM38 27.1401C38.0101 27.5216 37.9437 27.9014 37.8046 28.2568C37.6656 28.6123 37.4568 28.9363 37.1905 29.2097C36.9242 29.4831 36.6058 29.7005 36.2541 29.8489C35.9025 29.9972 35.5247 30.0737 35.143 30.0737C34.7613 30.0737 34.3835 29.9972 34.0319 29.8489C33.6802 29.7005 33.3618 29.4831 33.0955 29.2097C32.8292 28.9363 32.6204 28.6123 32.4814 28.2568C32.3423 27.9014 32.2759 27.5216 32.286 27.1401C32.3057 26.3955 32.6154 25.6879 33.149 25.1682C33.6826 24.6485 34.3981 24.3577 35.143 24.3577C35.8879 24.3577 36.6034 24.6485 37.137 25.1682C37.6707 25.6879 37.9803 26.3955 38 27.1401ZM29.714 20.8561C29.714 21.0834 29.6237 21.3014 29.463 21.4621C29.3023 21.6228 29.0843 21.7131 28.857 21.7131C28.6297 21.7131 28.4117 21.6228 28.251 21.4621C28.0903 21.3014 28 21.0834 28 20.8561C28 20.6288 28.0903 20.4108 28.251 20.2501C28.4117 20.0894 28.6297 19.9991 28.857 19.9991C29.0843 19.9991 29.3023 20.0894 29.463 20.2501C29.6237 20.4108 29.714 20.6288 29.714 20.8561ZM35.142 28.0001C35.258 28.0057 35.374 27.9877 35.4828 27.9472C35.5917 27.9066 35.6912 27.8444 35.7753 27.7643C35.8594 27.6841 35.9263 27.5878 35.9721 27.481C36.0178 27.3742 36.0414 27.2593 36.0414 27.1431C36.0414 27.0269 36.0178 26.912 35.9721 26.8052C35.9263 26.6984 35.8594 26.6021 35.7753 26.5219C35.6912 26.4418 35.5917 26.3796 35.4828 26.339C35.374 26.2985 35.258 26.2805 35.142 26.2861C34.9219 26.2967 34.7143 26.3917 34.5622 26.5512C34.4102 26.7108 34.3254 26.9227 34.3254 27.1431C34.3254 27.3635 34.4102 27.5754 34.5622 27.735C34.7143 27.8945 34.9219 27.9895 35.142 28.0001Z" fill="#253359"/>
<path fillRule="evenodd" clipRule="evenodd" d="M15.7001 -0.00598145C14.374 -0.00598145 13.1023 0.520803 12.1646 1.45848C11.2269 2.39617 10.7001 3.66794 10.7001 4.99402V22.094H7.01011C2.82011 22.094 0.48811 26.938 3.10211 30.214L15.7921 46.118C16.2604 46.7052 16.8551 47.1794 17.5318 47.5053C18.2085 47.8312 18.95 48.0004 19.7011 48.0004C20.4522 48.0004 21.1937 47.8312 21.8704 47.5053C22.5471 47.1794 23.1418 46.7052 23.6101 46.118L30.1801 37.882C32.2174 38.147 34.2881 37.9604 36.2452 37.3353C38.2023 36.7103 39.9978 35.6622 41.5044 34.2653C43.011 32.8685 44.1917 31.1572 44.9627 29.2529C45.7337 27.3486 46.0761 25.2979 45.9657 23.2464C45.8552 21.1949 45.2946 19.1928 44.3236 17.3823C43.3526 15.5717 41.9951 13.9971 40.3472 12.7701C38.6994 11.5431 36.8017 10.6937 34.7888 10.2824C32.776 9.8711 30.6972 9.90783 28.7001 10.39V4.99602C28.7001 3.66994 28.1733 2.39817 27.2356 1.46048C26.298 0.522803 25.0262 -0.00398145 23.7001 -0.00398145L15.7001 -0.00598145ZM15.7001 1.99402C14.9045 1.99402 14.1414 2.31009 13.5788 2.8727C13.0162 3.43531 12.7001 4.19837 12.7001 4.99402V23.094C12.7001 23.3592 12.5948 23.6136 12.4072 23.8011C12.2197 23.9887 11.9653 24.094 11.7001 24.094H7.01011C4.49611 24.094 3.09611 27 4.66411 28.966L17.3561 44.872C17.6371 45.2242 17.9939 45.5086 18.3998 45.704C18.8058 45.8994 19.2506 46.0009 19.7011 46.0009C20.1517 46.0009 20.5964 45.8994 21.0024 45.704C21.4084 45.5086 21.7651 45.2242 22.0461 44.872L27.9921 37.418C25.2169 36.5877 22.7674 34.9172 20.981 32.6368C19.1947 30.3564 18.1593 27.5782 18.0176 24.6849C17.8759 21.7916 18.6348 18.9255 20.1898 16.4814C21.7448 14.0374 24.0193 12.1356 26.7001 11.038V4.99402C26.7001 4.19837 26.384 3.43531 25.8214 2.8727C25.2588 2.31009 24.4958 1.99402 23.7001 1.99402H15.7001ZM32.0001 36C35.1827 36 38.235 34.7357 40.4854 32.4853C42.7358 30.2349 44.0001 27.1826 44.0001 24C44.0001 20.8174 42.7358 17.7652 40.4854 15.5147C38.235 13.2643 35.1827 12 32.0001 12C28.8175 12 25.7653 13.2643 23.5148 15.5147C21.2644 17.7652 20.0001 20.8174 20.0001 24C20.0001 27.1826 21.2644 30.2349 23.5148 32.4853C25.7653 34.7357 28.8175 36 32.0001 36Z" fill="#253359"/>
</g>
</g>
<defs>
<clipPath id="clip0_60480_6272">
<rect width="48" height="48" fill="white"/>
</clipPath>
</defs>
</svg>
