<svg width="16" height="16" viewBox="0 0 16 16" fill="none" xmlns="http://www.w3.org/2000/svg">
<g clip-path="url(#clip0_61195_20625)">
<path d="M9.46341 8.00008L15.6967 1.76675C15.7933 1.67064 15.8698 1.55634 15.9219 1.43047C15.9739 1.30459 16.0005 1.16963 16.0001 1.03341C16.0018 0.897506 15.9758 0.762679 15.9236 0.637166C15.8715 0.511653 15.7943 0.39809 15.6967 0.303412C15.6021 0.205895 15.4885 0.128703 15.363 0.0765493C15.2375 0.0243956 15.1027 -0.00162438 14.9667 7.84955e-05C14.8305 -0.000365655 14.6956 0.0262155 14.5697 0.078283C14.4438 0.130351 14.3295 0.20687 14.2334 0.303412L8.00008 6.53675L1.76675 0.303412C1.67064 0.20687 1.55634 0.130351 1.43047 0.078283C1.30459 0.0262155 1.16963 -0.000365655 1.03341 7.84955e-05C0.897506 -0.00162438 0.762679 0.0243956 0.637166 0.0765493C0.511653 0.128703 0.39809 0.205895 0.303412 0.303412C0.205895 0.39809 0.128703 0.511653 0.0765493 0.637166C0.0243956 0.762679 -0.00162438 0.897506 7.84955e-05 1.03341C-0.000365655 1.16963 0.0262155 1.30459 0.078283 1.43047C0.130351 1.55634 0.20687 1.67064 0.303412 1.76675L6.53675 8.00008L0.303412 14.2334C0.20687 14.3295 0.130351 14.4438 0.078283 14.5697C0.0262155 14.6956 -0.000365655 14.8305 7.84955e-05 14.9667C-0.00162438 15.1027 0.0243956 15.2375 0.0765493 15.363C0.128703 15.4885 0.205895 15.6021 0.303412 15.6967C0.39809 15.7943 0.511653 15.8715 0.637166 15.9236C0.762679 15.9758 0.897506 16.0018 1.03341 16.0001C1.16963 16.0005 1.30459 15.9739 1.43047 15.9219C1.55634 15.8698 1.67064 15.7933 1.76675 15.6967L8.00008 9.46341L14.2334 15.6967C14.3295 15.7933 14.4438 15.8698 14.5697 15.9219C14.6956 15.9739 14.8305 16.0005 14.9667 16.0001C15.2405 15.9992 15.5029 15.89 15.6965 15.6965C15.89 15.5029 15.9992 15.2405 16.0001 14.9667C16.0005 14.8305 15.9739 14.6956 15.9219 14.5697C15.8698 14.4438 15.7933 14.3295 15.6967 14.2334L9.46341 8.00008Z" fill="#606060"/>
</g>
<defs>
<clipPath id="clip0_61195_20625">
<rect width="16" height="16" fill="white"/>
</clipPath>
</defs>
</svg>
