<svg width="33" height="32" viewBox="0 0 33 32" fill="none" xmlns="http://www.w3.org/2000/svg">
<g clip-path="url(#clip0_60935_9915)">
<path d="M14.5009 11.5V31.5H3.50098L1.00098 28H7.50098C6.50095 27.5 4.10091 25.7 2.50091 22.5C0.900908 19.3 1.16757 13.8333 1.50091 11.5H14.5009Z" fill="white"/>
<path d="M31.875 12.9063H26.75V11.5833C26.75 11.2381 26.4701 10.9583 26.125 10.9583H12.625C12.2799 10.9583 12 11.2381 12 11.5833C12 11.9285 12.2799 12.2083 12.625 12.2083H25.5V17C25.5 21.2092 23.2527 25.1213 19.6239 27.25H7.62612C3.99731 25.1214 1.75 21.2092 1.75 17V12.2084H5.9375C6.28263 12.2084 6.5625 11.9286 6.5625 11.5834C6.5625 11.2382 6.28263 10.9584 5.9375 10.9584H1.125C0.779875 10.9584 0.5 11.2382 0.5 11.5834V17C0.5 19.3625 1.135 21.679 2.33637 23.699C3.14656 25.0613 4.19781 26.2643 5.42887 27.25H1.125C0.779875 27.25 0.5 27.5298 0.5 27.875C0.5 30.1496 2.35044 32 4.625 32H24.125C26.3996 32 28.25 30.1496 28.25 27.875C28.25 27.5298 27.9701 27.25 27.625 27.25H21.8211C22.9572 26.3405 23.935 25.2494 24.715 24.0208H26.4792C29.7991 24.0208 32.5 21.3199 32.5 18V13.5313C32.5 13.1861 32.2202 12.9063 31.875 12.9063ZM26.9316 28.5C26.6454 29.7858 25.4957 30.75 24.125 30.75H4.625C3.25431 30.75 2.10462 29.7858 1.81844 28.5H26.9316ZM26.75 17V16.6563H28.75V18C28.75 19.2521 27.7313 20.2708 26.4792 20.2708H26.3372C26.6114 19.2022 26.7501 18.1033 26.75 17ZM31.25 18C31.25 20.6306 29.1098 22.7708 26.4792 22.7708H25.4154C25.6149 22.3637 25.793 21.9465 25.949 21.5208H26.4792C28.4206 21.5208 30 19.9414 30 18V16.0313C30 15.6861 29.7201 15.4063 29.375 15.4063H26.75V14.1563H31.25V18ZM14.2218 3.45896L13.8966 3.05065C13.4192 2.4514 13.4186 1.61371 13.8949 1.01358C14.1096 0.743209 14.0643 0.350084 13.7939 0.135521C13.5235 -0.0791664 13.1304 -0.0338539 12.9158 0.236521C12.0757 1.29502 12.0769 2.77246 12.9189 3.82946L13.2441 4.23777C13.8679 5.0209 13.8688 6.11558 13.2463 6.8999L12.9131 7.31977C12.6984 7.59015 12.7437 7.98327 13.0141 8.19783C13.1244 8.28565 13.2612 8.33342 13.4022 8.33333C13.4964 8.33347 13.5895 8.31226 13.6743 8.2713C13.7592 8.23034 13.8337 8.17069 13.8922 8.09683L14.2254 7.67696C15.2117 6.43433 15.2102 4.69983 14.2218 3.45896ZM17.6861 4.86421L17.3609 4.45596C16.8836 3.85665 16.8829 3.01896 17.3592 2.41883C17.5739 2.14846 17.5286 1.75533 17.2582 1.54077C16.9878 1.32608 16.5947 1.3714 16.3801 1.64177C15.54 2.70027 15.5413 4.17771 16.3832 5.23477L16.7084 5.64308C17.3321 6.42627 17.3331 7.52102 16.7106 8.30527L16.3774 8.72508C16.1627 8.99546 16.208 9.38858 16.4784 9.60315C16.5887 9.69094 16.7255 9.7387 16.8665 9.73858C16.9607 9.73871 17.0538 9.7175 17.1386 9.67655C17.2235 9.63559 17.298 9.57594 17.3565 9.50208L17.6896 9.08227C18.6759 7.83971 18.6745 6.10521 17.6861 4.86421ZM10.7575 4.86427L10.4323 4.45602C9.95494 3.85677 9.95425 3.01902 10.4306 2.4189C10.6452 2.14852 10.5999 1.7554 10.3296 1.54077C10.0591 1.32615 9.66606 1.37152 9.45144 1.64177C8.61138 2.70027 8.61263 4.17777 9.45456 5.23477L9.77975 5.64308C10.4035 6.42627 10.4044 7.52102 9.782 8.30521L9.44875 8.72502C9.23412 8.9954 9.27931 9.38852 9.54969 9.60315C9.65998 9.69097 9.79682 9.73874 9.93781 9.73865C10.032 9.73879 10.1251 9.71759 10.2099 9.67664C10.2948 9.63569 10.3692 9.57606 10.4277 9.50221L10.7611 9.08233C11.7473 7.83977 11.7459 6.10527 10.7575 4.86427Z" fill="#253359"/>
<path d="M9.89305 11.141C9.7768 11.0248 9.61555 10.9579 9.45117 10.9579C9.2868 10.9579 9.12555 11.0248 9.0093 11.141C8.89311 11.2579 8.82617 11.4185 8.82617 11.5829C8.82617 11.7473 8.89305 11.9085 9.0093 12.0254C9.12555 12.1416 9.2868 12.2079 9.45117 12.2079C9.61555 12.2079 9.7768 12.1416 9.89305 12.0254C10.0101 11.9078 10.0759 11.7488 10.0762 11.5829C10.0762 11.4185 10.0099 11.2573 9.89305 11.141ZM23.1255 16.3748C22.7804 16.3748 22.5005 16.6546 22.5005 16.9998C22.5005 19.3197 21.5595 21.5996 19.9188 23.2549C19.6758 23.5001 19.6776 23.8958 19.9227 24.1388C20.0397 24.255 20.1979 24.3202 20.3627 24.3199C20.4453 24.32 20.5271 24.3037 20.6033 24.2719C20.6795 24.2401 20.7486 24.1935 20.8067 24.1348C22.6775 22.2473 23.7505 19.6467 23.7505 16.9998C23.7505 16.6546 23.4707 16.3748 23.1255 16.3748ZM18.8684 24.9513C18.6987 24.6506 18.3175 24.5444 18.0169 24.714L18.0027 24.7221C17.702 24.8917 17.5958 25.2729 17.7654 25.5735C17.8057 25.645 17.8597 25.7079 17.9243 25.7585C17.9889 25.8092 18.0628 25.8466 18.1419 25.8686C18.221 25.8906 18.3036 25.8969 18.3851 25.887C18.4666 25.8771 18.5453 25.8512 18.6168 25.8108L18.631 25.8028C18.9317 25.6331 19.0379 25.2519 18.8684 24.9513Z" fill="#253359"/>
</g>
<defs>
<clipPath id="clip0_60935_9915">
<rect width="32" height="32" fill="white" transform="translate(0.5)"/>
</clipPath>
</defs>
</svg>
