<svg width="35" height="25" viewBox="0 0 35 25" fill="none" xmlns="http://www.w3.org/2000/svg">
<path d="M3.74927 15.398C3.3386 15.398 2.9606 15.3 2.61527 15.104C2.26993 14.8987 1.9946 14.6233 1.78927 14.278C1.58393 13.9327 1.48127 13.564 1.48127 13.172C1.48127 12.7707 1.58393 12.402 1.78927 12.066C1.9946 11.7207 2.26993 11.45 2.61527 11.254C2.9606 11.0487 3.3386 10.946 3.74927 10.946C4.15993 10.946 4.53793 11.0487 4.88327 11.254C5.2286 11.45 5.50393 11.7207 5.70927 12.066C5.9146 12.402 6.01727 12.7707 6.01727 13.172C6.01727 13.564 5.9146 13.9327 5.70927 14.278C5.50393 14.6233 5.2286 14.8987 4.88327 15.104C4.53793 15.3 4.15993 15.398 3.74927 15.398ZM2.65727 13.172C2.65727 13.4987 2.75993 13.7693 2.96527 13.984C3.17993 14.1893 3.44127 14.292 3.74927 14.292C4.05727 14.292 4.31393 14.1893 4.51927 13.984C4.7246 13.7693 4.82727 13.4987 4.82727 13.172C4.82727 12.8453 4.7246 12.5793 4.51927 12.374C4.31393 12.1593 4.05727 12.052 3.74927 12.052C3.44127 12.052 3.17993 12.1593 2.96527 12.374C2.75993 12.5793 2.65727 12.8453 2.65727 13.172Z" fill="#ADADAD"/>
<path d="M27.5197 6.15002L24.4197 3.75002C24.0197 3.35002 23.1197 3.15002 22.5197 3.15002H18.7197C17.5197 3.15002 16.2197 4.05002 15.9197 5.25002L13.5197 12.55C13.0197 13.95 13.9197 15.15 15.4197 15.15H19.4197C20.0197 15.15 20.5197 15.65 20.4197 16.35L19.9197 19.55C19.7197 20.45 20.3197 21.45 21.2197 21.75C22.0197 22.05 23.0197 21.65 23.4197 21.05L27.5197 14.95" stroke="#ADADAD" stroke-width="1.5" stroke-miterlimit="10"/>
<path d="M32.6201 6.15V15.95C32.6201 17.35 32.0201 17.85 30.6201 17.85H29.6201C28.2201 17.85 27.6201 17.35 27.6201 15.95V6.15C27.6201 4.75 28.2201 4.25 29.6201 4.25H30.6201C32.0201 4.25 32.6201 4.75 32.6201 6.15Z" stroke="#ADADAD" stroke-width="1.5" stroke-linecap="round" stroke-linejoin="round"/>
</svg>
