<svg width="256" height="256" viewBox="0 0 256 256" fill="none" xmlns="http://www.w3.org/2000/svg">
<g opacity="0.48">
<path d="M230.881 18.8656L227.37 15.3281H216.329L212.816 18.8656L221.849 30.9307L230.881 18.8656ZM164.642 18.8656L161.129 15.3281H150.088L146.577 18.8656L155.61 30.9307L164.642 18.8656ZM98.4003 18.8656L94.8898 15.3281H83.8487L80.3357 18.8656L89.368 30.9307L98.4003 18.8656ZM32.1612 18.8656L28.6483 15.3281H17.6096L14.0967 18.8656L23.1289 30.9307L32.1612 18.8656ZM230.881 85.1047L227.37 81.5672H216.329L212.816 85.1047L221.849 97.1673L230.881 85.1047ZM164.642 85.1047L161.129 81.5672H150.088L146.577 85.1047L155.61 97.1673L164.642 85.1047ZM98.4003 85.1047L94.8898 81.5672H83.8487L80.3357 85.1047L89.368 97.1673L98.4003 85.1047ZM32.1612 85.1047L28.6483 81.5672H17.6096L14.0967 85.1047L23.1289 97.1673L32.1612 85.1047ZM230.881 151.344L227.37 147.809H216.329L212.816 151.344L221.849 163.409L230.881 151.344ZM164.642 151.344L161.129 147.809H150.088L146.577 151.344L155.61 163.409L164.642 151.344ZM98.4003 151.344L94.8898 147.809H83.8487L80.3357 151.344L89.368 163.409L98.4003 151.344ZM32.1612 151.344L28.6483 147.809H17.6096L14.0967 151.344L23.1289 163.409L32.1612 151.344ZM230.881 217.583L227.37 214.045H216.329L212.816 217.583L221.849 229.648L230.881 217.583ZM197.763 192.992L194.25 196.53H183.209L179.698 192.992L188.73 180.927L197.763 192.992ZM131.523 192.992L128.011 196.53H116.969L113.456 192.992L122.489 180.927L131.523 192.992ZM65.282 192.992L61.7715 196.53H50.7304L47.2174 192.992L56.2497 180.927L65.282 192.992ZM197.763 126.753L194.25 130.291H183.209L179.698 126.753L188.73 114.688L197.763 126.753ZM131.523 126.753L128.011 130.291H116.969L113.456 126.753L122.489 114.688L131.523 126.753ZM65.282 126.753L61.7715 130.291H50.7304L47.2174 126.753L56.2497 114.688L65.282 126.753ZM197.763 60.514L194.25 64.0514H183.209L179.698 60.514L188.73 48.4489L197.763 60.514ZM131.523 60.514L128.011 64.0514H116.969L113.456 60.514L122.489 48.4489L131.523 60.514ZM65.282 60.514L61.7715 64.0514H50.7304L47.2174 60.514L56.2497 48.4489L65.282 60.514ZM164.642 217.583L161.129 214.045H150.088L146.577 217.583L155.61 229.648L164.642 217.583ZM98.4003 217.583L94.8898 214.045H83.8487L80.3357 217.583L89.368 229.648L98.4003 217.583ZM32.1612 217.583L28.6483 214.045H17.6096L14.0967 217.583L23.1289 229.648L32.1612 217.583Z" fill="#C9E2FF"/>
</g>
</svg>
