<svg width="72" height="72" viewBox="0 0 72 72" fill="none" xmlns="http://www.w3.org/2000/svg">
<path d="M45.4347 54.5221C43.6448 54.5221 42.739 53.1744 42.739 50.4787C42.7821 46.7129 39.7657 43.6237 35.9999 43.5805C32.2342 43.5372 29.1449 46.5538 29.1017 50.3196C29.0586 54.0853 32.075 57.1746 35.8408 57.2178C36.8377 57.2295 37.8251 57.0225 38.7333 56.6112C39.6415 56.2 40.4485 55.5945 41.0974 54.8376C41.9924 56.3713 43.6609 57.2879 45.4347 57.2178C50.826 57.2178 50.826 52.1446 50.826 50.4787C50.826 42.2892 44.1894 35.6526 35.9999 35.6526C27.8105 35.6526 21.1738 42.2892 21.1738 50.476C21.1738 58.6628 27.8106 65.3021 35.9999 65.3021C39.8468 65.3015 43.543 63.8063 46.3081 61.1319C46.8446 60.6117 46.8554 59.7545 46.3351 59.2207C45.8149 58.6842 44.9577 58.6735 44.4213 59.1937C39.5987 63.8437 31.9188 63.7062 27.2688 58.8837C22.6188 54.0611 22.7563 46.3812 27.5788 41.7312C32.4014 37.0813 40.0813 37.2187 44.7313 42.0412C46.9146 44.306 48.1334 47.3301 48.1305 50.4759C48.1304 53.5006 47.4511 54.5221 45.4347 54.5221ZM35.9999 54.5221C33.7679 54.5221 31.9565 52.7107 31.9565 50.4787C31.9565 48.2467 33.7679 46.4352 35.9999 46.4352C38.2319 46.4352 40.0434 48.244 40.0434 50.4787C40.0435 52.7134 38.2319 54.5221 35.9999 54.5221Z" fill="#253359"/>
<path d="M60.2608 49.1309H54.8695C54.1255 49.1309 53.5217 48.5271 53.5217 47.7831C53.5217 47.0391 54.1255 46.4353 54.8695 46.4353H60.2608C62.4902 46.4353 64.3043 44.6211 64.3043 42.3919V12.7396C64.3043 10.5103 62.49 8.69615 60.2608 8.69615H11.7392C9.50989 8.69615 7.69579 10.5076 7.69579 12.7396V42.3918C7.69579 44.6211 9.51001 46.4352 11.7392 46.4352H17.1306C17.3076 46.4351 17.4829 46.4698 17.6465 46.5375C17.8101 46.6052 17.9587 46.7044 18.0839 46.8296C18.2091 46.9548 18.3084 47.1035 18.3761 47.267C18.4437 47.4306 18.4785 47.606 18.4783 47.783C18.4785 47.96 18.4437 48.1354 18.3761 48.299C18.3084 48.4625 18.2091 48.6112 18.0839 48.7364C17.9587 48.8616 17.8101 48.9608 17.6465 49.0285C17.4829 49.0962 17.3076 49.1309 17.1306 49.1308H11.7392C8.02456 49.1309 5 46.1063 5 42.3917V12.7396C5 9.02492 8.02456 6.00049 11.7392 6.00049H60.261C63.9782 6.00049 66.9999 9.02226 66.9999 12.7396V42.3918C66.9999 46.1063 63.9782 49.1309 60.2608 49.1309Z" fill="#253359"/>
<path d="M36.0026 30.3015C34.5604 30.3015 33.1183 29.8513 31.8864 28.951L10.9519 13.8312C10.8079 13.728 10.6858 13.5973 10.5926 13.4467C10.4993 13.2962 10.4367 13.1286 10.4084 12.9538C10.3801 12.7789 10.3866 12.6002 10.4276 12.4279C10.4686 12.2556 10.5433 12.093 10.6473 11.9497C11.0813 11.3431 11.9223 11.2083 12.5289 11.6451L33.4741 26.7703C34.9917 27.8782 37.0162 27.8782 38.5231 26.7758L59.4709 11.6451C60.0747 11.2111 60.9158 11.3432 61.3525 11.947C61.7892 12.5508 61.6517 13.3946 61.0506 13.8286L40.1054 28.9538C38.8815 29.8514 37.4421 30.3015 36.0026 30.3015ZM11.7391 43.7394C11.3815 43.7394 11.0385 43.5979 10.7849 43.3459C10.2592 42.8202 10.2592 41.9656 10.7849 41.4401L24.2631 27.9619C24.7887 27.4362 25.6433 27.4362 26.1689 27.9619C26.6945 28.4876 26.6945 29.3421 26.1689 29.8677L12.6906 43.3459C12.5657 43.4708 12.4174 43.5699 12.2541 43.6374C12.0908 43.705 11.9158 43.7396 11.7391 43.7394ZM60.2607 43.7394C59.9031 43.7394 59.5601 43.5979 59.3065 43.3459L45.8283 29.8675C45.3026 29.3419 45.3026 28.4873 45.8283 27.9618C46.354 27.4361 47.2085 27.4361 47.7341 27.9618L61.2123 41.44C61.7379 41.9656 61.7379 42.8202 61.2123 43.3457C61.0874 43.4708 60.939 43.5699 60.7757 43.6374C60.6124 43.705 60.4374 43.7396 60.2607 43.7394ZM36.008 65.3073C35.9244 65.3073 35.8408 65.3073 35.7573 65.3046C31.7974 65.24 28.1016 63.6361 25.3467 60.7894C19.6616 54.9128 19.818 45.5104 25.6917 39.828C28.5383 37.073 32.35 35.5904 36.2452 35.6577C40.2024 35.7224 43.9008 37.3263 46.6557 40.1703C49.3433 42.9495 50.8259 46.6102 50.8259 50.4785C50.8259 51.2225 50.2222 51.8263 49.4782 51.8263C48.7342 51.8263 48.1304 51.2225 48.1304 50.4785C48.1304 47.3139 46.9174 44.319 44.715 42.0439C42.4614 39.7175 39.4368 38.4048 36.1967 38.3509C33.0213 38.3509 29.8916 39.5126 27.5625 41.7663C22.7562 46.4163 22.6295 54.1097 27.2822 58.9161C29.5357 61.2451 32.5603 62.5578 35.8004 62.6091C39.0514 62.7223 42.1028 61.45 44.4346 59.1964C44.9684 58.6815 45.8228 58.6923 46.3404 59.2287C46.8579 59.7652 46.8445 60.617 46.3081 61.1345C43.5234 63.8301 39.8763 65.3073 36.008 65.3073Z" fill="#FF9568"/>
<path d="M35.9998 57.2176C32.2853 57.2176 29.2607 54.193 29.2607 50.4785C29.2607 46.7639 32.2853 43.7394 35.9998 43.7394C39.7144 43.7394 42.7389 46.7612 42.7389 50.4785C42.7389 54.1958 39.7145 57.2176 35.9998 57.2176ZM35.9998 46.435C33.7705 46.435 31.9564 48.2493 31.9564 50.4785C31.9564 52.7078 33.7706 54.5219 35.9998 54.5219C38.2291 54.5219 40.0433 52.7077 40.0433 50.4785C40.0434 48.2491 38.2292 46.435 35.9998 46.435Z" fill="#253359"/>
<path d="M45.4343 57.2177C42.0593 57.2177 40.043 54.6973 40.043 50.4786C40.043 49.7346 40.6467 49.1309 41.3907 49.1309C41.5678 49.1307 41.7431 49.1655 41.9067 49.2331C42.0703 49.3008 42.2189 49.4001 42.3441 49.5253C42.4693 49.6504 42.5686 49.7991 42.6362 49.9627C42.7039 50.1263 42.7387 50.3016 42.7385 50.4786C42.7385 53.1609 43.647 54.5221 45.4342 54.5221C47.4505 54.5221 48.1298 53.5004 48.1298 50.4786C48.1298 49.7346 48.7336 49.1309 49.4776 49.1309C50.2216 49.1309 50.8254 49.732 50.8254 50.4786C50.8256 52.1445 50.8256 57.2177 45.4343 57.2177Z" fill="#253359"/>
</svg>
