<svg width="32" height="32" viewBox="0 0 32 32" fill="none" xmlns="http://www.w3.org/2000/svg">
<path d="M20.1928 24.2319C19.3973 24.2319 18.9947 23.6329 18.9947 22.4348C19.0139 20.7612 17.6732 19.3882 15.9995 19.369C14.3259 19.3497 12.9529 20.6904 12.9337 22.3641C12.9145 24.0378 14.2551 25.4108 15.9288 25.43C16.3719 25.4352 16.8107 25.3432 17.2144 25.1604C17.618 24.9776 17.9767 24.7085 18.2651 24.3721C18.6628 25.0538 19.4044 25.4612 20.1928 25.43C22.5889 25.43 22.5889 23.1752 22.5889 22.4348C22.5889 18.7951 19.6393 15.8455 15.9995 15.8455C12.3598 15.8455 9.41016 18.7951 9.41016 22.4337C9.41016 26.0722 12.3598 29.023 15.9995 29.023C17.7093 29.0228 19.352 28.3582 20.581 27.1696C20.8194 26.9384 20.8242 26.5574 20.593 26.3202C20.3618 26.0817 19.9808 26.077 19.7424 26.3082C17.599 28.3748 14.1857 28.3137 12.119 26.1704C10.0524 24.027 10.1135 20.6138 12.2568 18.5471C14.4002 16.4804 17.8135 16.5415 19.8801 18.6849C20.8505 19.6914 21.3922 21.0354 21.3909 22.4336C21.3908 23.7779 21.089 24.2319 20.1928 24.2319ZM15.9995 24.2319C15.0075 24.2319 14.2025 23.4268 14.2025 22.4348C14.2025 21.4428 15.0075 20.6378 15.9995 20.6378C16.9915 20.6378 17.7966 21.4417 17.7966 22.4348C17.7967 23.428 16.9915 24.2319 15.9995 24.2319Z" fill="#253359"/>
<path d="M26.7821 21.8358H24.3859C24.0552 21.8358 23.7869 21.5675 23.7869 21.2368C23.7869 20.9061 24.0552 20.6378 24.3859 20.6378H26.7821C27.7729 20.6378 28.5791 19.8315 28.5791 18.8407V5.66191C28.5791 4.67109 27.7728 3.86482 26.7821 3.86482H5.21689C4.22608 3.86482 3.41981 4.66991 3.41981 5.66191V18.8407C3.41981 19.8315 4.22613 20.6377 5.21689 20.6377H7.61304C7.69172 20.6377 7.76964 20.6531 7.84235 20.6832C7.91506 20.7133 7.98112 20.7574 8.03676 20.813C8.0924 20.8687 8.13652 20.9347 8.16659 21.0074C8.19667 21.0801 8.21212 21.1581 8.21205 21.2368C8.21212 21.3154 8.19667 21.3934 8.16659 21.4661C8.13652 21.5388 8.0924 21.6048 8.03676 21.6605C7.98112 21.7161 7.91506 21.7602 7.84235 21.7903C7.76964 21.8204 7.69172 21.8358 7.61304 21.8358H5.21689C3.56593 21.8358 2.22168 20.4916 2.22168 18.8406V5.66191C2.22168 4.01094 3.56593 2.66675 5.21689 2.66675H26.7821C28.4342 2.66675 29.7772 4.00976 29.7772 5.66191V18.8407C29.7772 20.4916 28.4342 21.8358 26.7821 21.8358Z" fill="#253359"/>
<path d="M16.0003 13.4674C15.3593 13.4674 14.7184 13.2673 14.1709 12.8671L4.86663 6.14724C4.80266 6.10136 4.74839 6.04328 4.70694 5.97635C4.66549 5.90943 4.63767 5.83497 4.62509 5.75726C4.61251 5.67954 4.61542 5.60011 4.63364 5.52353C4.65186 5.44694 4.68504 5.37471 4.73127 5.31099C4.92416 5.04141 5.29794 4.98151 5.56752 5.17564L14.8765 11.8979C15.551 12.3903 16.4508 12.3903 17.1205 11.9004L26.4307 5.17564C26.699 4.98275 27.0728 5.04147 27.2669 5.30981C27.461 5.57815 27.3999 5.95317 27.1327 6.14605L17.8238 12.8684C17.2798 13.2673 16.64 13.4674 16.0003 13.4674ZM5.21651 19.4398C5.05759 19.4398 4.90513 19.3769 4.79241 19.2649C4.55878 19.0312 4.55878 18.6514 4.79241 18.4178L10.7827 12.4275C11.0164 12.1939 11.3962 12.1939 11.6297 12.4275C11.8634 12.6612 11.8634 13.041 11.6297 13.2745L5.63942 19.2649C5.5839 19.3204 5.51796 19.3644 5.44539 19.3944C5.37282 19.4245 5.29504 19.4399 5.21651 19.4398ZM26.7817 19.4398C26.6227 19.4398 26.4703 19.3769 26.3576 19.2649L20.3673 13.2745C20.1336 13.0409 20.1336 12.6611 20.3673 12.4275C20.6009 12.1938 20.9807 12.1938 21.2143 12.4275L27.2046 18.4178C27.4382 18.6514 27.4382 19.0312 27.2046 19.2648C27.1491 19.3204 27.0831 19.3644 27.0106 19.3944C26.938 19.4245 26.8602 19.4399 26.7817 19.4398ZM16.0027 29.0255C15.9655 29.0255 15.9284 29.0255 15.8913 29.0243C14.1313 28.9956 12.4887 28.2827 11.2644 27.0175C8.73764 24.4057 8.80712 20.2269 11.4177 17.7013C12.6828 16.4769 14.3769 15.818 16.1081 15.8479C17.8669 15.8767 19.5106 16.5895 20.735 17.8535C21.9295 19.0887 22.5884 20.7157 22.5884 22.4349C22.5884 22.7656 22.3201 23.0339 21.9894 23.0339C21.6588 23.0339 21.3904 22.7656 21.3904 22.4349C21.3904 21.0284 20.8513 19.6973 19.8724 18.6862C18.8709 17.6523 17.5266 17.0688 16.0866 17.0449C14.6753 17.0449 13.2843 17.5612 12.2491 18.5628C10.113 20.6295 10.0567 24.0488 12.1245 26.1849C13.1261 27.2201 14.4704 27.8035 15.9104 27.8263C17.3553 27.8766 18.7115 27.3111 19.7478 26.3095C19.9851 26.0807 20.3648 26.0855 20.5949 26.3239C20.8249 26.5623 20.8189 26.9409 20.5805 27.1709C19.3429 28.3689 17.7219 29.0255 16.0027 29.0255Z" fill="#FF9568"/>
<path d="M15.9991 25.43C14.3482 25.43 13.0039 24.0858 13.0039 22.4349C13.0039 20.7839 14.3482 19.4397 15.9991 19.4397C17.65 19.4397 18.9942 20.7827 18.9942 22.4349C18.9942 24.087 17.65 25.43 15.9991 25.43ZM15.9991 20.6378C15.0082 20.6378 14.202 21.4441 14.202 22.4349C14.202 23.4257 15.0083 24.2319 15.9991 24.2319C16.9898 24.2319 17.7961 23.4256 17.7961 22.4349C17.7962 21.444 16.9899 20.6378 15.9991 20.6378Z" fill="#253359"/>
<path d="M20.192 25.4301C18.692 25.4301 17.7959 24.3099 17.7959 22.4349C17.7959 22.1043 18.0642 21.8359 18.3949 21.8359C18.4736 21.8359 18.5515 21.8513 18.6242 21.8814C18.6969 21.9115 18.763 21.9556 18.8186 22.0112C18.8743 22.0669 18.9184 22.1329 18.9485 22.2056C18.9785 22.2783 18.994 22.3563 18.9939 22.4349C18.9939 23.627 19.3977 24.232 20.192 24.232C21.0881 24.232 21.3901 23.778 21.3901 22.4349C21.3901 22.1043 21.6584 21.8359 21.9891 21.8359C22.3197 21.8359 22.5881 22.1031 22.5881 22.4349C22.5882 23.1753 22.5882 25.4301 20.192 25.4301Z" fill="#253359"/>
</svg>
