<svg width="42" height="48" viewBox="0 0 42 48" fill="none" xmlns="http://www.w3.org/2000/svg">
<path d="M40.7246 8.28854C34.1204 6.47898 27.4773 3.66133 21.5136 0.140274C21.3582 0.0484417 21.1809 0 21.0004 0C20.8198 0 20.6425 0.0484417 20.4871 0.140274C14.3513 3.76249 8.06729 6.4277 1.27559 8.28854C1.06214 8.34701 0.873817 8.47399 0.739593 8.64995C0.605369 8.82591 0.532682 9.0411 0.532715 9.26241V19.5792C0.532715 30.2032 5.43386 37.2356 9.54554 41.2641C13.972 45.6014 19.1283 48 21.0004 48C22.8723 48 28.0285 45.6014 32.455 41.2641C36.5666 37.2357 41.4674 30.2033 41.4674 19.5792V9.26232C41.4674 8.80744 41.1633 8.40863 40.7246 8.28854ZM39.4481 19.5791C39.4481 29.5019 34.8767 36.0639 31.0416 39.8216C26.6887 44.0867 22.0347 45.9805 21.0004 45.9805C19.966 45.9805 15.3117 44.0867 10.9587 39.8216C7.1237 36.0638 2.55218 29.5019 2.55218 19.5791V10.0288C9.04698 8.18476 15.0955 5.61123 21.0005 2.17971C26.7581 5.5202 33.1084 8.22169 39.4481 10.0284V19.5791Z" fill="#253359"/>
<path d="M12.0505 9.9158C11.8462 9.3969 11.2599 9.14199 10.7409 9.34646C8.93034 10.0596 7.09496 10.7082 5.23829 11.2909C5.03317 11.3553 4.85393 11.4834 4.72668 11.6567C4.59942 11.83 4.53079 12.0393 4.53076 12.2543V16.1535C4.53076 16.7111 4.98292 17.1631 5.54045 17.1631C6.09798 17.1631 6.55014 16.7111 6.55014 16.1535V12.9922C8.21176 12.4545 9.85624 11.8652 11.4812 11.2252C12.0001 11.0209 12.255 10.4347 12.0505 9.9158ZM13.9686 10.1073C14.104 10.1073 14.2416 10.0801 14.3735 10.0225L14.392 10.0144C14.9029 9.79055 15.1329 9.1959 14.9091 8.68524C14.685 8.1744 14.087 7.9433 13.5767 8.16699L13.5604 8.17402C13.0493 8.39724 12.8184 8.99143 13.0417 9.50236C13.2073 9.88168 13.579 10.1073 13.9686 10.1073ZM33.0303 32.5577C32.5637 32.2528 31.938 32.3839 31.6327 32.8507C30.8006 34.1242 29.8245 35.3437 28.731 36.475C27.8316 37.4053 26.8635 38.2667 25.8348 39.0517C25.3915 39.3898 25.3061 40.0233 25.6441 40.4669C25.7383 40.5906 25.8599 40.6909 25.9993 40.7599C26.1387 40.8288 26.2922 40.8646 26.4477 40.8645C26.6613 40.8645 26.8765 40.7971 27.0593 40.6576C28.1686 39.8109 29.2127 38.8819 30.1827 37.8786C31.365 36.6557 32.4216 35.3357 33.3233 33.9553C33.6284 33.4884 33.4971 32.8627 33.0303 32.5577ZM23.4899 40.6352L23.432 40.6694C22.9494 40.9488 22.7845 41.5665 23.0639 42.049C23.1303 42.1638 23.2186 42.2644 23.3239 42.345C23.4292 42.4256 23.5493 42.4847 23.6775 42.5189C23.8056 42.5531 23.9392 42.5616 24.0707 42.5441C24.2021 42.5266 24.3288 42.4834 24.4435 42.4169L24.5104 42.3776C24.9916 42.0958 25.1532 41.4773 24.8714 40.9961C24.5894 40.5151 23.9709 40.3537 23.4899 40.6352ZM14.1178 21.9392C13.4979 21.3192 12.6733 20.9779 11.7964 20.9779C10.9194 20.9779 10.0948 21.3193 9.47457 21.9392C8.19461 23.2195 8.19461 25.3026 9.47457 26.5828L15.4367 32.5447C16.0568 33.1646 16.8813 33.5059 17.7583 33.5059C18.6354 33.5059 19.4599 33.1646 20.08 32.5445L32.5264 20.0981C33.8063 18.8176 33.8063 16.7347 32.5262 15.4549C31.9061 14.8349 31.0816 14.4936 30.2045 14.4936C29.3274 14.4936 28.5029 14.835 27.8828 15.4549L17.7582 25.5795L14.1178 21.9392ZM29.3108 16.8829C29.4279 16.7652 29.5672 16.6719 29.7206 16.6084C29.874 16.5449 30.0385 16.5125 30.2046 16.513C30.5424 16.513 30.8597 16.6443 31.0985 16.8829C31.5911 17.3756 31.5911 18.1775 31.0983 18.6704L18.6521 31.1166C18.4135 31.3552 18.096 31.4866 17.7583 31.4866C17.4206 31.4866 17.1031 31.3552 16.8644 31.1166L10.9025 25.1549C10.4096 24.662 10.4096 23.8601 10.9023 23.3674C11.141 23.1288 11.4585 22.9973 11.7963 22.9973C12.1341 22.9973 12.4514 23.1286 12.69 23.3672L17.0442 27.7216C17.2337 27.9108 17.4904 28.0172 17.7582 28.0172C18.0261 28.0172 18.2828 27.9109 18.472 27.7216L29.3108 16.8829Z" fill="#253359"/>
</svg>
