<svg width="29" height="32" viewBox="0 0 29 32" fill="none" xmlns="http://www.w3.org/2000/svg">
<path d="M27.65 5.52569C23.2472 4.31932 18.8186 2.44089 14.8428 0.0935159C14.7391 0.0322945 14.6209 0 14.5006 0C14.3802 0 14.262 0.0322945 14.1584 0.0935159C10.0679 2.50832 5.87852 4.28513 1.35072 5.52569C1.20842 5.56467 1.08287 5.64933 0.993388 5.76663C0.903905 5.88394 0.855447 6.0274 0.855469 6.17494V13.0528C0.855469 20.1355 4.1229 24.8237 6.86402 27.5094C9.81501 30.401 13.2525 32 14.5006 32C15.7485 32 19.186 30.401 22.137 27.5094C24.878 24.8238 28.1453 20.1355 28.1453 13.0528V6.17488C28.1453 5.87163 27.9425 5.60575 27.65 5.52569ZM26.799 13.0527C26.799 19.6679 23.7515 24.0426 21.1947 26.5477C18.2928 29.3911 15.1901 30.6536 14.5006 30.6536C13.811 30.6536 10.7081 29.3911 7.80614 26.5477C5.24946 24.0425 2.20178 19.6679 2.20178 13.0527V6.68588C6.53165 5.45651 10.564 3.74082 14.5007 1.45314C18.3391 3.68013 22.5726 5.48113 26.799 6.68563V13.0527Z" fill="#253359"/>
<path d="M8.53369 6.61058C8.39744 6.26464 8.00663 6.0947 7.66063 6.23101C6.45356 6.70643 5.22998 7.13881 3.9922 7.52733C3.85544 7.57022 3.73595 7.65565 3.65112 7.77116C3.56628 7.88668 3.52052 8.02625 3.52051 8.16958V10.769C3.52051 11.1408 3.82195 11.4421 4.19363 11.4421C4.56532 11.4421 4.86676 11.1408 4.86676 10.769V8.66151C5.9745 8.30305 7.07083 7.91019 8.15413 7.48351C8.50007 7.34733 8.67001 6.95651 8.53369 6.61058ZM9.81238 6.73826C9.90269 6.73826 9.99438 6.72008 10.0823 6.6817L10.0947 6.67633C10.4353 6.52708 10.5886 6.13064 10.4394 5.7902C10.29 5.44964 9.89132 5.29558 9.55113 5.4447L9.54026 5.44939C9.19951 5.5982 9.04563 5.99433 9.19445 6.33495C9.30488 6.58783 9.55269 6.73826 9.81238 6.73826ZM22.5202 21.7052C22.2091 21.5019 21.792 21.5893 21.5884 21.9005C21.0338 22.7495 20.383 23.5625 19.654 24.3167C19.0544 24.9369 18.409 25.5112 17.7232 26.0345C17.4276 26.2599 17.3708 26.6823 17.5961 26.978C17.6589 27.0605 17.7399 27.1273 17.8329 27.1733C17.9258 27.2193 18.0281 27.2431 18.1318 27.243C18.2742 27.243 18.4176 27.1981 18.5395 27.1051C19.2791 26.5406 19.9751 25.9213 20.6218 25.2525C21.41 24.4372 22.1144 23.5572 22.7155 22.6369C22.9189 22.3256 22.8314 21.9085 22.5202 21.7052ZM16.1599 27.0902L16.1213 27.113C15.7996 27.2993 15.6897 27.711 15.8759 28.0327C15.9202 28.1092 15.9791 28.1763 16.0493 28.23C16.1195 28.2838 16.1996 28.3232 16.285 28.346C16.3704 28.3687 16.4595 28.3745 16.5471 28.3628C16.6347 28.3511 16.7192 28.3223 16.7957 28.278L16.8403 28.2518C17.1611 28.0639 17.2688 27.6516 17.0809 27.3308C16.8929 27.0101 16.4806 26.9025 16.1599 27.0902ZM9.91188 14.6262C9.49857 14.2128 8.94888 13.9853 8.36426 13.9853C7.77963 13.9853 7.22988 14.2129 6.81638 14.6262C5.96307 15.4797 5.96307 16.8685 6.81638 17.7219L10.7911 21.6965C11.2045 22.1098 11.7542 22.3373 12.3389 22.3373C12.9236 22.3373 13.4733 22.1098 13.8867 21.6964L22.1843 13.3988C23.0375 12.5451 23.0375 11.1565 22.1841 10.3033C21.7708 9.88995 21.2211 9.66245 20.6363 9.66245C20.0516 9.66245 19.5019 9.89001 19.0885 10.3033L12.3388 17.053L9.91188 14.6262ZM20.0405 11.2553C20.1186 11.1769 20.2115 11.1147 20.3137 11.0723C20.416 11.03 20.5257 11.0084 20.6364 11.0087C20.8616 11.0087 21.0731 11.0963 21.2323 11.2553C21.5608 11.5838 21.5608 12.1184 21.2322 12.447L12.9348 20.7445C12.7757 20.9035 12.564 20.9911 12.3389 20.9911C12.1138 20.9911 11.9021 20.9035 11.7429 20.7445L7.76832 16.77C7.43976 16.4414 7.43976 15.9068 7.76819 15.5783C7.92732 15.4193 8.13901 15.3316 8.3642 15.3316C8.58938 15.3316 8.80094 15.4191 8.96001 15.5782L11.8628 18.4811C11.9891 18.6073 12.1603 18.6782 12.3388 18.6782C12.5174 18.6782 12.6885 18.6073 12.8147 18.4811L20.0405 11.2553Z" fill="#253359"/>
</svg>
