<svg width="48" height="48" viewBox="0 0 48 48" fill="none" xmlns="http://www.w3.org/2000/svg">
<path d="M23.9998 6.75L24.0001 40.9924L23.9328 40.9837C18.1724 40.2326 8.24989 38.9387 8.25 23.25C9 9 18.9998 6.75 23.9998 6.75Z" fill="white"/>
<path d="M24 10.6875C16.6595 10.6875 10.6875 16.6595 10.6875 24C10.6875 31.3405 16.6595 37.3125 24 37.3125C31.3405 37.3125 37.3125 31.3405 37.3125 24C37.3125 16.6595 31.3405 10.6875 24 10.6875ZM24 35.4375C17.6933 35.4375 12.5625 30.3066 12.5625 24C12.5625 17.6933 17.6933 12.5625 24 12.5625C30.3067 12.5625 35.4375 17.6933 35.4375 24C35.4375 30.3066 30.3067 35.4375 24 35.4375ZM47.5023 0.109494C47.352 0.0297081 47.1828 -0.00768724 47.0129 0.00131319C46.8429 0.0103136 46.6786 0.0653707 46.5376 0.160588C41.9352 3.27037 39.1875 8.44312 39.1875 13.9977V26.162C39.1875 27.4667 39.6956 28.6933 40.6181 29.6159L42.375 31.3728V45.1875C42.375 46.7383 43.6367 48 45.1875 48C46.7383 48 48 46.7383 48 45.1875V0.937494C48 0.590713 47.8086 0.272244 47.5023 0.109494ZM46.125 45.1875C46.125 45.7044 45.7044 46.125 45.1875 46.125C44.6706 46.125 44.25 45.7044 44.25 45.1875V30.9844C44.25 30.7357 44.1512 30.4973 43.9754 30.3215L41.9439 28.29C41.3755 27.7216 41.0625 26.9659 41.0625 26.162V13.9977C41.0625 9.68709 42.9263 5.63578 46.125 2.84034V45.1875Z" fill="#253359"/>
<path d="M21.8492 16.565C21.6459 16.0888 21.0949 15.8677 20.6188 16.0708C19.0642 16.7328 17.7387 17.8376 16.8075 19.2476C15.8763 20.6575 15.3806 22.3103 15.382 24C15.382 24.5177 15.8018 24.9375 16.3195 24.9375C16.8373 24.9375 17.257 24.5177 17.257 24C17.2559 22.6778 17.6439 21.3844 18.3726 20.2811C19.1013 19.1778 20.1385 18.3133 21.355 17.7953C21.8312 17.5921 22.0524 17.0412 21.8492 16.565ZM24 15.382L23.9527 15.3821C23.4349 15.3856 23.018 15.8081 23.0214 16.3259C23.0249 16.8415 23.444 17.2571 23.9588 17.2571H23.9652L24 17.257C24.5178 17.257 24.9375 16.8373 24.9375 16.3195C24.9375 15.8018 24.5178 15.382 24 15.382ZM36.9959 11.6699C35.3395 9.92466 33.3871 8.55141 31.1929 7.58841C28.9208 6.59128 26.5007 6.08569 24 6.08569C21.1425 6.08569 18.411 6.73875 15.8814 8.02688C15.4201 8.26181 15.2364 8.82628 15.4714 9.28772C15.7064 9.74897 16.2709 9.93253 16.7323 9.69769C18.9958 8.54513 21.441 7.96069 24 7.96069C28.4434 7.96069 32.5758 9.73631 35.6359 12.9607C35.7234 13.0531 35.8288 13.1267 35.9458 13.1769C36.0628 13.2272 36.1887 13.253 36.316 13.2528C36.5562 13.2531 36.7873 13.1608 36.9612 12.9952C37.3368 12.6388 37.3523 12.0455 36.9959 11.6699ZM37.906 33.7855C37.4998 33.4645 36.9103 33.5334 36.5892 33.9396C33.5243 37.8161 28.9357 40.0393 24 40.0393C20.9109 40.0393 17.9122 39.1596 15.3278 37.4951C14.8927 37.2147 14.3123 37.3404 14.032 37.7756C13.7517 38.211 13.8773 38.7911 14.3126 39.0714C17.2003 40.9312 20.5502 41.9142 24 41.9142C29.5125 41.9142 34.6372 39.4314 38.06 35.1023C38.3811 34.6963 38.3123 34.1067 37.906 33.7855ZM12.7461 35.4304L12.7323 35.4145C12.7273 35.4084 12.7223 35.4022 12.7172 35.3962C12.3837 35.0001 11.7923 34.9494 11.3963 35.2828C11.0002 35.6164 10.9493 36.2077 11.2829 36.6038L11.292 36.6146L11.2925 36.6143C11.3024 36.6268 11.3127 36.6394 11.3234 36.6517C11.4114 36.7544 11.5205 36.8368 11.6434 36.8932C11.7663 36.9497 11.8999 36.9788 12.0352 36.9786C12.2591 36.9788 12.4757 36.8985 12.6454 36.7524C13.0382 36.4151 13.0833 35.8233 12.7461 35.4304ZM11.625 0C11.1072 0 10.6875 0.419719 10.6875 0.9375V11.0625H8.99925C8.99934 11.0573 9 11.0522 9 11.0468V0.9375C9 0.419719 8.58028 0 8.0625 0C7.54472 0 7.125 0.419719 7.125 0.9375V11.0468C7.125 11.0521 7.12575 11.0573 7.12575 11.0625H5.43675C5.43684 11.0573 5.4375 11.0522 5.4375 11.0468V0.9375C5.4375 0.419719 5.01778 0 4.5 0C3.98222 0 3.5625 0.419719 3.5625 0.9375V11.0468C3.5625 11.0521 3.56325 11.0573 3.56325 11.0625H1.875V0.9375C1.875 0.419719 1.45528 0 0.9375 0C0.419719 0 0 0.419719 0 0.9375V12.375C0 14.6747 1.39538 16.7502 3.46875 17.6474V45.1875C3.46875 46.7383 4.73044 48 6.28125 48C7.83206 48 9.09375 46.7383 9.09375 45.1875V17.6474C11.1671 16.7502 12.5625 14.6747 12.5625 12.375V0.9375C12.5625 0.419719 12.1428 0 11.625 0ZM7.896 16.0894C7.70074 16.1458 7.5291 16.2641 7.40695 16.4266C7.2848 16.589 7.21875 16.7868 7.21875 16.99V45.1875C7.21875 45.7044 6.79819 46.125 6.28125 46.125C5.76431 46.125 5.34375 45.7044 5.34375 45.1875V16.99C5.34375 16.7868 5.2777 16.589 5.15555 16.4266C5.0334 16.2641 4.86176 16.1458 4.6665 16.0894C3.20559 15.6672 2.13703 14.4132 1.91738 12.9375H10.645C10.4255 14.4132 9.35691 15.6672 7.896 16.0894Z" fill="#253359"/>
</svg>
