<svg width="217" height="215" viewBox="0 0 217 215" fill="none" xmlns="http://www.w3.org/2000/svg">
<path d="M216.881 3.86558L213.37 0.328125H202.329L198.816 3.86558L207.849 15.9307L216.881 3.86558ZM150.642 3.86558L147.129 0.328125H136.088L132.577 3.86558L141.61 15.9307L150.642 3.86558ZM84.4003 3.86558L80.8898 0.328125H69.8487L66.3357 3.86558L75.368 15.9307L84.4003 3.86558ZM18.1612 3.86558L14.6483 0.328125H3.60964L0.0966797 3.86558L9.12895 15.9307L18.1612 3.86558ZM216.881 70.1047L213.37 66.5672H202.329L198.816 70.1047L207.849 82.1673L216.881 70.1047ZM150.642 70.1047L147.129 66.5672H136.088L132.577 70.1047L141.61 82.1673L150.642 70.1047ZM84.4003 70.1047L80.8898 66.5672H69.8487L66.3357 70.1047L75.368 82.1673L84.4003 70.1047ZM18.1612 70.1047L14.6483 66.5672H3.60964L0.0966797 70.1047L9.12895 82.1673L18.1612 70.1047ZM216.881 136.344L213.37 132.809H202.329L198.816 136.344L207.849 148.409L216.881 136.344ZM150.642 136.344L147.129 132.809H136.088L132.577 136.344L141.61 148.409L150.642 136.344ZM84.4003 136.344L80.8898 132.809H69.8487L66.3357 136.344L75.368 148.409L84.4003 136.344ZM18.1612 136.344L14.6483 132.809H3.60964L0.0966797 136.344L9.12895 148.409L18.1612 136.344ZM216.881 202.583L213.37 199.045H202.329L198.816 202.583L207.849 214.648L216.881 202.583ZM183.763 177.992L180.25 181.53H169.209L165.698 177.992L174.73 165.927L183.763 177.992ZM117.523 177.992L114.011 181.53H102.969L99.4565 177.992L108.489 165.927L117.523 177.992ZM51.282 177.992L47.7715 181.53H36.7304L33.2174 177.992L42.2497 165.927L51.282 177.992ZM183.763 111.753L180.25 115.291H169.209L165.698 111.753L174.73 99.688L183.763 111.753ZM117.523 111.753L114.011 115.291H102.969L99.4565 111.753L108.489 99.688L117.523 111.753ZM51.282 111.753L47.7715 115.291H36.7304L33.2174 111.753L42.2497 99.688L51.282 111.753ZM183.763 45.514L180.25 49.0514H169.209L165.698 45.514L174.73 33.4489L183.763 45.514ZM117.523 45.514L114.011 49.0514H102.969L99.4565 45.514L108.489 33.4489L117.523 45.514ZM51.282 45.514L47.7715 49.0514H36.7304L33.2174 45.514L42.2497 33.4489L51.282 45.514ZM150.642 202.583L147.129 199.045H136.088L132.577 202.583L141.61 214.648L150.642 202.583ZM84.4003 202.583L80.8898 199.045H69.8487L66.3357 202.583L75.368 214.648L84.4003 202.583ZM18.1612 202.583L14.6483 199.045H3.60964L0.0966797 202.583L9.12895 214.648L18.1612 202.583Z" fill="#C9E2FF"/>
</svg>
