<svg width="48" height="48" viewBox="0 0 48 48" fill="none" xmlns="http://www.w3.org/2000/svg">
<path d="M20.9999 17.25V47.25H4.5L0.75 42H10.5C8.99997 41.25 5.3999 38.55 2.9999 33.75C0.599897 28.95 0.999897 20.75 1.4999 17.25H20.9999Z" fill="white"/>
<path d="M47.0625 19.3594H39.375V17.375C39.375 16.8572 38.9552 16.4375 38.4375 16.4375H18.1875C17.6698 16.4375 17.25 16.8572 17.25 17.375C17.25 17.8928 17.6698 18.3125 18.1875 18.3125H37.5V25.4999C37.5 31.8138 34.129 37.682 28.6858 40.8749H10.6892C5.24597 37.6821 1.875 31.8138 1.875 25.5V18.3126H8.15625C8.67394 18.3126 9.09375 17.8929 9.09375 17.3751C9.09375 16.8573 8.67394 16.4376 8.15625 16.4376H0.9375C0.419813 16.4376 0 16.8573 0 17.3751V25.5C0 29.0438 0.9525 32.5185 2.75456 35.5484C3.96984 37.5919 5.54672 39.3964 7.39331 40.875H0.9375C0.419813 40.875 0 41.2948 0 41.8125C0 45.2244 2.77566 48 6.1875 48H35.4375C38.8493 48 41.625 45.2244 41.625 41.8125C41.625 41.2948 41.2052 40.875 40.6875 40.875H31.9817C33.6857 39.5107 35.1525 37.8741 36.3225 36.0312H38.9688C43.9486 36.0312 48 31.9798 48 27V20.2969C48 19.7791 47.5803 19.3594 47.0625 19.3594ZM39.6473 42.75C39.2182 44.6787 37.4935 46.125 35.4375 46.125H6.1875C4.13147 46.125 2.40694 44.6787 1.97766 42.75H39.6473ZM39.375 25.5V24.9844H42.375V27C42.375 28.8782 40.847 30.4062 38.9688 30.4062H38.7559C39.1671 28.8033 39.3751 27.1549 39.375 25.5ZM46.125 27C46.125 30.946 42.9147 34.1562 38.9688 34.1562H37.3732C37.6723 33.5456 37.9395 32.9197 38.1735 32.2812H38.9688C41.8809 32.2812 44.25 29.9121 44.25 27V24.0469C44.25 23.5291 43.8302 23.1094 43.3125 23.1094H39.375V21.2344H46.125V27ZM20.5827 5.18844L20.0949 4.57597C19.3789 3.67709 19.3778 2.42056 20.0924 1.52038C20.4143 1.11481 20.3465 0.525125 19.9409 0.203282C19.5352 -0.11875 18.9457 -0.0507809 18.6237 0.354782C17.3635 1.94253 17.3654 4.15869 18.6283 5.74419L19.1161 6.35666C20.0518 7.53134 20.0532 9.17338 19.1195 10.3498L18.6196 10.9797C18.2977 11.3852 18.3655 11.9749 18.7711 12.2967C18.9365 12.4285 19.1418 12.5001 19.3533 12.5C19.4946 12.5002 19.6342 12.4684 19.7615 12.407C19.8888 12.3455 20.0005 12.256 20.0883 12.1453L20.5882 11.5154C22.0675 9.6515 22.0654 7.04975 20.5827 5.18844ZM25.7792 7.29631L25.2914 6.68394C24.5753 5.78497 24.5743 4.52844 25.2889 3.62825C25.6108 3.22269 25.5429 2.633 25.1374 2.31116C24.7317 1.98913 24.1421 2.05709 23.8202 2.46266C22.56 4.05041 22.5619 6.26656 23.8248 7.85216L24.3126 8.46463C25.2482 9.63941 25.2496 11.2815 24.3158 12.4579L23.8161 13.0876C23.4941 13.4932 23.562 14.0829 23.9676 14.4047C24.133 14.5364 24.3383 14.608 24.5498 14.6079C24.6911 14.6081 24.8307 14.5763 24.9579 14.5148C25.0852 14.4534 25.197 14.3639 25.2848 14.2531L25.7844 13.6234C27.2639 11.7596 27.2617 9.15781 25.7792 7.29631ZM15.3862 7.29641L14.8985 6.68403C14.1824 5.78516 14.1814 4.52853 14.8958 3.62834C15.2178 3.22278 15.1499 2.63309 14.7443 2.31116C14.3387 1.98922 13.7491 2.05728 13.4272 2.46266C12.1671 4.05041 12.1689 6.26666 13.4318 7.85216L13.9196 8.46463C14.8552 9.63941 14.8567 11.2815 13.923 12.4578L13.4231 13.0875C13.1012 13.4931 13.169 14.0828 13.5745 14.4047C13.74 14.5365 13.9452 14.6081 14.1567 14.608C14.298 14.6082 14.4376 14.5764 14.5649 14.515C14.6921 14.4535 14.8039 14.3641 14.8916 14.2533L15.3916 13.6235C16.871 11.7597 16.8688 9.15791 15.3862 7.29641Z" fill="#253359"/>
<path d="M14.0896 16.7117C13.9152 16.5373 13.6733 16.437 13.4268 16.437C13.1802 16.437 12.9383 16.5373 12.7639 16.7117C12.5897 16.887 12.4893 17.1279 12.4893 17.3745C12.4893 17.6211 12.5896 17.8629 12.7639 18.0383C12.9383 18.2126 13.1802 18.312 13.4268 18.312C13.6733 18.312 13.9152 18.2126 14.0896 18.0383C14.2651 17.8619 14.3638 17.6233 14.3643 17.3745C14.3643 17.1279 14.2648 16.8861 14.0896 16.7117ZM33.9383 24.5623C33.4206 24.5623 33.0008 24.982 33.0008 25.4998C33.0008 28.9797 31.5893 32.3996 29.1282 34.8826C28.7637 35.2503 28.7664 35.8439 29.1341 36.2084C29.3095 36.3827 29.5468 36.4804 29.7941 36.4801C29.918 36.4802 30.0406 36.4557 30.1549 36.4081C30.2692 36.3604 30.3729 36.2905 30.46 36.2024C33.2663 33.3712 34.8758 29.4702 34.8758 25.4998C34.8758 24.982 34.456 24.5623 33.9383 24.5623ZM27.5525 37.4272C27.2981 36.9761 26.7263 36.8169 26.2754 37.0712L26.254 37.0833C25.803 37.3377 25.6437 37.9095 25.898 38.3604C25.9585 38.4677 26.0395 38.562 26.1364 38.638C26.2333 38.7139 26.3442 38.77 26.4629 38.8031C26.5815 38.8362 26.7054 38.8455 26.8276 38.8306C26.9499 38.8158 27.068 38.777 27.1752 38.7164L27.1966 38.7043C27.6476 38.4499 27.8069 37.8781 27.5525 37.4272Z" fill="#253359"/>
</svg>
