<svg width="24" height="24" viewBox="0 0 24 24" fill="none" xmlns="http://www.w3.org/2000/svg">
<path d="M22.6667 10.6666H1.33331C0.597 10.6666 0 11.2636 0 11.9999C0 12.7363 0.597 13.3333 1.33331 13.3333H22.6666C23.403 13.3333 24 12.7363 24 11.9999C24 11.2636 23.403 10.6666 22.6667 10.6666ZM22.6667 1.33325H1.33331C0.597 1.33325 0 1.9303 0 2.66661C0 3.40292 0.597 3.99992 1.33331 3.99992H22.6666C23.403 3.99992 24 3.40292 24 2.66661C24 1.9303 23.403 1.33325 22.6667 1.33325ZM22.6667 20H1.33331C0.597 20 0 20.597 0 21.3333C0 22.0696 0.597 22.6666 1.33331 22.6666H22.6666C23.403 22.6666 24 22.0696 24 21.3333C24 20.597 23.403 20 22.6667 20Z" fill="#202020"/>
<path d="M22.6667 10.6666H1.33331C0.597 10.6666 0 11.2636 0 11.9999C0 12.7363 0.597 13.3333 1.33331 13.3333H22.6666C23.403 13.3333 24 12.7363 24 11.9999C24 11.2636 23.403 10.6666 22.6667 10.6666ZM22.6667 1.33325H1.33331C0.597 1.33325 0 1.9303 0 2.66661C0 3.40292 0.597 3.99992 1.33331 3.99992H22.6666C23.403 3.99992 24 3.40292 24 2.66661C24 1.9303 23.403 1.33325 22.6667 1.33325ZM22.6667 20H1.33331C0.597 20 0 20.597 0 21.3333C0 22.0696 0.597 22.6666 1.33331 22.6666H22.6666C23.403 22.6666 24 22.0696 24 21.3333C24 20.597 23.403 20 22.6667 20Z" fill="black" fill-opacity="0.2"/>
</svg>
