<svg width="62" height="62" viewBox="0 0 62 62" fill="none" xmlns="http://www.w3.org/2000/svg">
<g clip-path="url(#clip0_60673_13944)">
<path d="M10.7786 26.4675C6.8164 26.4675 3.59288 23.244 3.59288 19.2818C3.59288 15.3195 6.8164 12.096 10.7786 12.096C14.7408 12.096 17.9644 15.3195 17.9644 19.2818C17.9644 23.244 14.7408 26.4675 10.7786 26.4675ZM35.9287 21.677C31.9665 21.677 28.743 18.4535 28.743 14.4913C28.743 10.529 31.9665 7.30551 35.9287 7.30551C39.891 7.30551 43.1145 10.529 43.1145 14.4913C43.1145 18.4535 39.891 21.677 35.9287 21.677ZM59.522 19.2818H52.3362C51.3441 19.2818 50.5398 20.0861 50.5398 21.0782C50.5398 22.0703 51.3441 22.8746 52.3362 22.8746H55.185L36.7671 41.2926L32.0492 36.5746C31.3477 35.8732 30.2102 35.8732 29.5086 36.5746L15.6634 50.42H1.79644C0.804325 50.42 0 51.2243 0 52.2164C0 53.2086 0.804325 54.0129 1.79644 54.0129H16.4075C16.884 54.0129 17.3409 53.8237 17.6777 53.4866L30.779 40.3855L35.4969 45.1034C36.1983 45.8048 37.3358 45.8048 38.0374 45.1034L57.7255 25.4152V28.264C57.7255 29.2561 58.5299 30.0604 59.522 30.0604C60.5141 30.0604 61.3184 29.2561 61.3184 28.264V21.0782C61.3184 20.0861 60.5141 19.2818 59.522 19.2818Z" fill="white"/>
<path d="M41.8838 23.4707C40.1765 24.6067 38.1288 25.2698 35.9287 25.2698C33.7288 25.2698 31.681 24.6068 29.9737 23.4707C27.0668 25.4013 25.1501 28.7044 25.1501 32.4556V35.8522L26.9682 34.034C27.9861 33.0162 29.3395 32.4556 30.779 32.4556C32.2184 32.4556 33.5718 33.0162 34.5897 34.0339L36.7671 36.2113L45.4942 27.4841C44.6488 25.863 43.4067 24.4823 41.8838 23.4707ZM4.82355 28.2612C1.91668 30.1918 0 33.4949 0 37.2461V46.8271H14.1751L21.5572 39.445V37.2461C21.5572 33.4949 19.6406 30.1918 16.7337 28.2612C15.0264 29.3973 12.9785 30.0603 10.7786 30.0603C8.57871 30.0603 6.53089 29.3973 4.82355 28.2612Z" fill="white"/>
</g>
<defs>
<clipPath id="clip0_60673_13944">
<rect width="61.3184" height="61.3184" fill="white"/>
</clipPath>
</defs>
</svg>
