<svg width="120" height="120" viewBox="0 0 120 121" fill="none" xmlns="http://www.w3.org/2000/svg">
<rect x="5.4912" y="5.9912" width="109.018" height="109.018" rx="54.5088" fill="#44C0ED"/>
<rect x="5.4912" y="5.9912" width="109.018" height="109.018" rx="54.5088" stroke="white" stroke-width="10.9824"/>
<g clip-path="url(#clip0_60544_23318)">
<path d="M39.75 61.6251C43.9439 61.6251 47.3438 58.2252 47.3438 54.0313C47.3438 49.8374 43.9439 46.4376 39.75 46.4376C35.5561 46.4376 32.1562 49.8374 32.1562 54.0313C32.1562 58.2252 35.5561 61.6251 39.75 61.6251Z" fill="white"/>
<path d="M29.411 96.5001H34.9044C34.949 96.4996 34.9929 96.4885 35.0323 96.4678C35.0718 96.447 35.1058 96.4171 35.1315 96.3806C35.1571 96.3442 35.1737 96.3021 35.1799 96.2579C35.1861 96.2137 35.1817 96.1687 35.1671 96.1266C33.0493 90.1303 32.012 83.9203 32.7073 79.7488C32.7417 79.5277 32.8621 79.3291 33.0423 79.1964C33.2224 79.0636 33.4478 79.0074 33.6692 79.0401C33.7786 79.0561 33.8838 79.0936 33.9787 79.1504C34.0736 79.2071 34.1563 79.2821 34.2222 79.371C34.288 79.4598 34.3357 79.5608 34.3624 79.6681C34.3891 79.7754 34.3944 79.887 34.3779 79.9963C33.6585 84.0131 34.905 90.5415 37.0217 96.315C37.0415 96.3695 37.0777 96.4166 37.1253 96.4497C37.173 96.4828 37.2297 96.5004 37.2877 96.5001H47.1973C47.8385 96.4959 48.4705 96.3463 49.0456 96.0626C49.6207 95.7789 50.124 95.3685 50.5177 94.8623C50.9113 94.356 51.185 93.7671 51.3182 93.1398C51.4514 92.5126 51.4406 91.8632 51.2867 91.2407C50.4086 87.7183 50.0205 84.0916 50.1335 80.4632C50.1417 80.2394 50.2385 80.0281 50.4025 79.8756C50.4838 79.8002 50.579 79.7414 50.683 79.7028C50.7869 79.6641 50.8974 79.6463 51.0082 79.6504C51.119 79.6545 51.2279 79.6803 51.3287 79.7265C51.4296 79.7726 51.5203 79.8382 51.5958 79.9194C51.6713 80.0006 51.73 80.0959 51.7686 80.1998C51.8073 80.3038 51.8251 80.4143 51.821 80.5251C51.7685 82.0904 51.8213 83.6575 51.9791 85.2158C51.985 85.2648 52.0037 85.3114 52.0333 85.3509C52.0629 85.3904 52.1024 85.4214 52.1478 85.4408C54.4653 86.4583 56.384 86.5483 57.8853 85.7057C58.7557 85.1689 59.4816 84.4273 59.9998 83.5457C60.5181 84.4274 61.2442 85.1689 62.1148 85.7057C63.6172 86.5421 65.5404 86.4578 67.8523 85.4368C67.8979 85.4167 67.9375 85.3849 67.9671 85.3448C67.9967 85.3046 68.0153 85.2574 68.021 85.2079C68.1783 83.6522 68.2309 82.0878 68.1785 80.5251C68.1703 80.3013 68.2514 80.0834 68.4038 79.9194C68.5562 79.7554 68.7676 79.6586 68.9913 79.6504C69.2151 79.6422 69.433 79.7232 69.597 79.8756C69.7611 80.0281 69.8578 80.2394 69.866 80.4632C69.979 84.0916 69.591 87.7183 68.7129 91.2407C68.5589 91.8632 68.5482 92.5126 68.6814 93.1398C68.8146 93.7671 69.0883 94.356 69.4819 94.8623C69.8755 95.3685 70.3788 95.7789 70.9539 96.0626C71.5291 96.3463 72.161 96.4959 72.8023 96.5001H82.7124C82.7704 96.5004 82.8271 96.4828 82.8748 96.4497C82.9224 96.4166 82.9586 96.3695 82.9785 96.315C85.094 90.5466 86.3417 84.0075 85.6222 79.9963C85.6057 79.887 85.611 79.7754 85.6377 79.6681C85.6644 79.5608 85.7121 79.4598 85.7779 79.371C85.8438 79.2821 85.9265 79.2071 86.0214 79.1504C86.1164 79.0936 86.2215 79.0561 86.331 79.0401C86.5524 79.0074 86.7777 79.0636 86.9579 79.1964C87.138 79.3291 87.2584 79.5277 87.2928 79.7488C87.987 83.9226 86.9514 90.127 84.833 96.1266C84.8184 96.1687 84.814 96.2137 84.8202 96.2579C84.8264 96.3021 84.843 96.3442 84.8687 96.3806C84.8943 96.4171 84.9283 96.447 84.9678 96.4678C85.0073 96.4885 85.0511 96.4996 85.0957 96.5001H90.5891C91.544 96.5043 92.4718 96.1828 93.2194 95.5887C93.9669 94.9945 94.4896 94.1632 94.701 93.232C96.1297 87.022 98.346 71.857 88.0466 65.2026C86.4258 64.1542 84.6032 63.4573 82.6965 63.157C80.7897 62.8566 78.8412 62.9595 76.9766 63.4588C72.5773 64.6457 71.1035 67.1826 69.3935 70.1188C68.075 72.8059 64.9453 76.5876 62.351 77.932C61.4555 78.4395 60.659 79.1046 59.9998 79.8951C59.3418 79.1033 58.5451 78.438 57.6485 77.932C55.0498 76.5836 51.9268 72.8081 50.606 70.1188C48.896 67.1826 47.4223 64.6457 43.0235 63.4588C41.159 62.9595 39.2104 62.8566 37.3036 63.157C35.3969 63.4573 33.5743 64.1542 31.9535 65.2026C21.6485 71.857 23.8704 87.022 25.2992 93.232C25.5106 94.1632 26.0332 94.9945 26.7807 95.5887C27.5283 96.1828 28.4561 96.5043 29.411 96.5001Z" fill="white"/>
<path d="M80.25 61.6251C84.4439 61.6251 87.8438 58.2252 87.8438 54.0313C87.8438 49.8374 84.4439 46.4376 80.25 46.4376C76.0561 46.4376 72.6562 49.8374 72.6562 54.0313C72.6562 58.2252 76.0561 61.6251 80.25 61.6251Z" fill="white"/>
<path d="M91.033 47.2194C91.5607 46.688 91.8574 45.9698 91.8584 45.2209C91.8595 44.472 91.5649 43.7529 91.0386 43.22L87.8774 40.0588C87.617 39.7966 87.3075 39.5882 86.9666 39.4456C86.6257 39.3029 86.26 39.2289 85.8904 39.2275C85.5209 39.2262 85.1547 39.2977 84.8128 39.438C84.4709 39.5782 84.1599 39.7844 83.8977 40.0447C83.6354 40.3051 83.4271 40.6146 83.2844 40.9555C83.1418 41.2964 83.0677 41.6621 83.0664 42.0317C83.0651 42.4012 83.1366 42.7674 83.2768 43.1093C83.417 43.4512 83.6232 43.7622 83.8836 44.0244L87.0561 47.1913C87.5841 47.7144 88.2957 48.0101 89.0388 48.0154C89.782 48.0206 90.4977 47.735 91.033 47.2194ZM91.0442 25.4225C90.5132 24.9021 89.7993 24.6105 89.0558 24.6105C88.3123 24.6105 87.5984 24.9021 87.0674 25.4225L83.9005 28.5894C83.6312 28.8481 83.4162 29.1579 83.2679 29.5006C83.1196 29.8433 83.041 30.212 83.0368 30.5854C83.0325 30.9588 83.1027 31.3293 83.2431 31.6753C83.3835 32.0213 83.5915 32.3358 83.8548 32.6006C84.118 32.8654 84.4314 33.0751 84.7766 33.2175C85.1218 33.3599 85.4919 33.4321 85.8653 33.4299C86.2387 33.4278 86.6079 33.3513 86.9514 33.205C87.2949 33.0586 87.6059 32.8453 87.8661 32.5775L91.033 29.4107C91.5601 28.8816 91.857 28.1658 91.8591 27.4189C91.8612 26.6721 91.5684 25.9546 91.0442 25.4225ZM32.9436 47.1913L36.1161 44.0244C36.642 43.4948 36.9359 42.778 36.9333 42.0317C36.9307 41.2853 36.6317 40.5706 36.1021 40.0447C35.5724 39.5189 34.8556 39.2249 34.1093 39.2275C33.363 39.2302 32.6482 39.5292 32.1224 40.0588L28.9611 43.22C28.6929 43.4799 28.4791 43.7905 28.3322 44.1339C28.1853 44.4772 28.1082 44.8464 28.1055 45.2198C28.1028 45.5932 28.1745 45.9635 28.3164 46.3089C28.4583 46.6543 28.6676 46.968 28.932 47.2317C29.1965 47.4954 29.5108 47.7038 29.8566 47.8447C30.2024 47.9856 30.5729 48.0563 30.9463 48.0525C31.3197 48.0488 31.6887 47.9707 32.0316 47.8228C32.3745 47.6749 32.6845 47.4603 32.9436 47.1913ZM32.1336 32.5775C32.3938 32.8453 32.7048 33.0586 33.0483 33.205C33.3918 33.3513 33.7611 33.4278 34.1345 33.4299C34.5079 33.4321 34.8779 33.3599 35.2231 33.2175C35.5683 33.0751 35.8817 32.8654 36.145 32.6006C36.4083 32.3358 36.6162 32.0213 36.7566 31.6753C36.8971 31.3293 36.9672 30.9588 36.9629 30.5854C36.9587 30.212 36.8801 29.8433 36.7318 29.5006C36.5835 29.1579 36.3685 28.8481 36.0992 28.5894L32.9324 25.4225C32.4014 24.9021 31.6875 24.6105 30.9439 24.6105C30.2004 24.6105 29.4865 24.9021 28.9555 25.4225C28.4314 25.9546 28.1385 26.6721 28.1406 27.4189C28.1427 28.1658 28.4396 28.8816 28.9667 29.4107L32.1336 32.5775ZM56.4786 43.2257H57.283V42.4213C57.2721 42.2142 57.2007 42.0149 57.0778 41.848C56.9548 41.681 56.7856 41.5538 56.5911 41.4819C56.4465 41.4527 56.2969 41.4596 56.1556 41.502C56.0143 41.5444 55.8857 41.621 55.7811 41.7251C55.6765 41.8291 55.5992 41.9573 55.556 42.0984C55.5128 42.2395 55.5051 42.389 55.5336 42.5338C55.6061 42.729 55.7343 42.8985 55.9023 43.0215C56.0703 43.1445 56.2707 43.2155 56.4786 43.2257ZM64.4661 42.5338C64.4946 42.389 64.4869 42.2395 64.4437 42.0984C64.4006 41.9573 64.3233 41.8291 64.2187 41.7251C64.1141 41.621 63.9854 41.5444 63.8441 41.502C63.7028 41.4596 63.5532 41.4527 63.4086 41.4819C63.2141 41.5538 63.0449 41.681 62.922 41.848C62.799 42.0149 62.7276 42.2142 62.7167 42.4213V43.2257H63.5211C63.7291 43.2155 63.9294 43.1445 64.0974 43.0215C64.2654 42.8985 64.3936 42.729 64.4661 42.5338Z" fill="white"/>
<path d="M54.1105 55.0101C54.5197 56.2354 55.3144 57.2954 56.376 58.0315C57.4376 58.7676 58.7089 59.1403 59.9999 59.0938C61.2909 59.1403 62.5622 58.7676 63.6238 58.0315C64.6854 57.2954 65.4802 56.2354 65.8893 55.0101C66.5059 54.8741 67.0576 54.5319 67.4534 54.04C67.8492 53.548 68.0653 52.9358 68.0662 52.3044V51.3482C68.0673 50.9476 68.1555 50.552 68.3245 50.1888C68.4934 49.8256 68.7393 49.5034 69.0449 49.2444C71.236 47.3913 72.8049 44.9098 73.5395 42.1357C74.2741 39.3616 74.1388 36.4289 73.1521 33.7342C72.1653 31.0395 70.3746 28.7129 68.0223 27.0693C65.67 25.4256 62.8696 24.5441 59.9999 24.5441C57.1302 24.5441 54.3298 25.4256 51.9775 27.0693C49.6252 28.7129 47.8345 31.0395 46.8477 33.7342C45.861 36.4289 45.7257 39.3616 46.4603 42.1357C47.1949 44.9098 48.7638 47.3913 50.9549 49.2444C51.2606 49.5034 51.5064 49.8256 51.6753 50.1888C51.8443 50.552 51.9325 50.9476 51.9337 51.3482V52.3044C51.9345 52.9358 52.1506 53.548 52.5464 54.04C52.9422 54.5319 53.494 54.8741 54.1105 55.0101ZM56.9174 39.8226C57.498 39.9692 58.014 40.3034 58.3853 40.7733C58.7565 41.2432 58.9622 41.8225 58.9705 42.4213V43.2257H61.0293V42.4213C61.0376 41.8225 61.2433 41.2432 61.6145 40.7733C61.9858 40.3034 62.5018 39.9692 63.0824 39.8226C63.4986 39.7424 63.9282 39.7654 64.3334 39.8897C64.7387 40.014 65.1073 40.2357 65.4071 40.5354C65.7068 40.8351 65.9285 41.2038 66.0528 41.609C66.177 42.0143 66.2001 42.4438 66.1199 42.8601C65.9738 43.441 65.6397 43.9573 65.1697 44.3286C64.6997 44.7 64.1201 44.9055 63.5212 44.9132H62.7168V49.6494H61.0293V44.9132H58.9705V49.6494H57.283V44.9132H56.4787C55.8797 44.9055 55.3001 44.7 54.8301 44.3286C54.3601 43.9573 54.026 43.441 53.8799 42.8601C53.7997 42.4438 53.8228 42.0143 53.947 41.609C54.0713 41.2038 54.293 40.8351 54.5927 40.5354C54.8925 40.2357 55.2611 40.014 55.6664 39.8897C56.0716 39.7654 56.5012 39.7424 56.9174 39.8226ZM53.6212 51.3482H66.3787V52.3044C66.3787 52.5929 66.2645 52.8696 66.061 53.0741C65.8576 53.2786 65.5815 53.3942 65.293 53.3957H54.7068C54.4183 53.3942 54.1422 53.2786 53.9388 53.0741C53.7353 52.8696 53.6212 52.5929 53.6212 52.3044V51.3482Z" fill="white"/>
</g>
<defs>
<clipPath id="clip0_60544_23318">
<rect width="72" height="72" fill="white" transform="translate(24 24.5)"/>
</clipPath>
</defs>
</svg>
