<svg width="37" height="25" viewBox="0 0 37 25" fill="none" xmlns="http://www.w3.org/2000/svg">
<path d="M1.02941 12.836C1.09474 12.0707 1.35141 11.2447 1.79941 10.358C2.24741 9.47133 2.80274 8.608 3.46541 7.768C3.27874 7.61867 3.13874 7.51133 3.04541 7.446L3.75941 6.284C5.15941 7.404 6.28874 8.52867 7.14741 9.658C8.00607 10.7873 8.43541 12.0193 8.43541 13.354C8.43541 14.222 8.23941 14.894 7.84741 15.37C7.45541 15.846 6.95141 16.084 6.33541 16.084C6.04607 16.084 5.76607 16.0187 5.49541 15.888C5.22474 15.748 4.99607 15.5333 4.80941 15.244C4.47341 15.7947 3.95074 16.07 3.24141 16.07C2.56007 16.07 2.01407 15.818 1.60341 15.314C1.20207 14.8007 1.00141 14.1333 1.00141 13.312C1.00141 13.2187 1.01074 13.06 1.02941 12.836ZM2.14941 13.2C2.14941 13.6947 2.25207 14.082 2.45741 14.362C2.67207 14.6327 2.95207 14.768 3.29741 14.768C3.59607 14.7587 3.83407 14.6047 4.01141 14.306C4.18874 13.998 4.27274 13.578 4.26341 13.046L5.31341 12.878C5.35074 13.4753 5.44874 13.942 5.60741 14.278C5.77541 14.6047 6.00407 14.768 6.29341 14.768C6.97474 14.768 7.31541 14.2547 7.31541 13.228C7.31541 12.3973 7.04941 11.5947 6.51741 10.82C5.99474 10.036 5.27607 9.25667 4.36141 8.482C3.68007 9.31267 3.13874 10.1387 2.73741 10.96C2.34541 11.7813 2.14941 12.528 2.14941 13.2Z" fill="#ADADAD"/>
<path d="M20.4805 18.85L23.5805 21.25C23.9805 21.65 24.8805 21.85 25.4805 21.85H29.2805C30.4805 21.85 31.7805 20.95 32.0805 19.75L34.4805 12.45C34.9805 11.05 34.0805 9.85003 32.5805 9.85003H28.5805C27.9805 9.85003 27.4805 9.35003 27.5805 8.65003L28.0805 5.45003C28.2805 4.55003 27.6805 3.55003 26.7805 3.25003C25.9805 2.95003 24.9805 3.35003 24.5805 3.95003L20.4805 10.05" stroke="#ADADAD" stroke-width="1.5" stroke-miterlimit="10"/>
<path d="M15.3799 18.85V9.05002C15.3799 7.65002 15.9799 7.15002 17.3799 7.15002H18.3799C19.7799 7.15002 20.3799 7.65002 20.3799 9.05002V18.85C20.3799 20.25 19.7799 20.75 18.3799 20.75H17.3799C15.9799 20.75 15.3799 20.25 15.3799 18.85Z" stroke="#ADADAD" stroke-width="1.5" stroke-linecap="round" stroke-linejoin="round"/>
</svg>
