<svg width="32" height="32" viewBox="0 0 32 32" fill="none" xmlns="http://www.w3.org/2000/svg">
<path d="M26.1818 2H5.81818C3.70946 2 2 3.70946 2 5.81818V26.1818C2 28.2905 3.70946 30 5.81818 30H26.1818C28.2905 30 30 28.2905 30 26.1818V5.81818C30 3.70946 28.2905 2 26.1818 2Z" fill="#253359"/>
<path d="M11.5268 8.72727C11.5268 9.26668 11.3669 9.79397 11.0672 10.2425C10.7675 10.691 10.3416 11.0405 9.84322 11.2469C9.34488 11.4534 8.79651 11.5074 8.26748 11.4021C7.73844 11.2969 7.25248 11.0372 6.87107 10.6557C6.48965 10.2743 6.2299 9.78838 6.12467 9.25934C6.01944 8.7303 6.07345 8.18194 6.27987 7.68359C6.48629 7.18525 6.83585 6.7593 7.28435 6.45963C7.73285 6.15995 8.26014 6 8.79954 6C9.52286 6 10.2166 6.28734 10.728 6.7988C11.2395 7.31026 11.5268 8.00396 11.5268 8.72727ZM10.9086 13.2727V25.3218C10.9091 25.4107 10.892 25.4988 10.8583 25.5811C10.8246 25.6633 10.775 25.7381 10.7124 25.8011C10.6497 25.8642 10.5751 25.9142 10.4931 25.9483C10.411 25.9824 10.323 26 10.2341 26H7.35954C7.27065 26.0002 7.18259 25.9829 7.10042 25.949C7.01825 25.9151 6.9436 25.8653 6.88074 25.8024C6.81789 25.7396 6.76808 25.6649 6.73417 25.5828C6.70027 25.5006 6.68294 25.4125 6.68318 25.3236V13.2727C6.68318 13.0933 6.75444 12.9213 6.88128 12.7945C7.00812 12.6676 7.18016 12.5964 7.35954 12.5964H10.2341C10.4132 12.5968 10.5847 12.6683 10.7112 12.7951C10.8376 12.9219 10.9086 13.0937 10.9086 13.2727ZM25.9341 19.5455V25.3782C25.9343 25.4599 25.9184 25.5409 25.8872 25.6164C25.8561 25.692 25.8103 25.7606 25.7525 25.8184C25.6947 25.8762 25.6261 25.922 25.5505 25.9532C25.475 25.9843 25.394 26.0002 25.3123 26H22.2214C22.1396 26.0002 22.0587 25.9843 21.9831 25.9532C21.9076 25.922 21.8389 25.8762 21.7811 25.8184C21.7233 25.7606 21.6775 25.692 21.6464 25.6164C21.6152 25.5409 21.5993 25.4599 21.5995 25.3782V19.7255C21.5995 18.8818 21.8468 16.0309 19.3941 16.0309C17.4941 16.0309 17.1068 17.9818 17.0304 18.8582V25.3782C17.0305 25.5415 16.9662 25.6983 16.8515 25.8147C16.7369 25.931 16.5811 25.9976 16.4177 26H13.4323C13.3507 26 13.2699 25.9839 13.1946 25.9526C13.1192 25.9214 13.0508 25.8755 12.9932 25.8178C12.9356 25.76 12.89 25.6914 12.8589 25.616C12.8279 25.5406 12.812 25.4598 12.8123 25.3782V13.22C12.812 13.1384 12.8279 13.0576 12.8589 12.9822C12.89 12.9067 12.9356 12.8382 12.9932 12.7804C13.0508 12.7227 13.1192 12.6768 13.1946 12.6455C13.2699 12.6143 13.3507 12.5982 13.4323 12.5982H16.4177C16.5826 12.5982 16.7408 12.6637 16.8574 12.7803C16.974 12.8969 17.0395 13.0551 17.0395 13.22V14.2709C17.745 13.2127 18.7904 12.3964 21.0214 12.3964C25.9632 12.3964 25.9341 17.0109 25.9341 19.5455Z" fill="white"/>
</svg>
