<svg width="72" height="72" viewBox="0 0 72 72" fill="none" xmlns="http://www.w3.org/2000/svg">
<path d="M35.9976 63.3872C32.626 63.3872 29.4394 62.5572 27.0247 61.0499C24.445 59.4397 23.0244 57.2438 23.0244 54.8667C23.0244 52.9791 23.9196 51.2003 25.6135 49.7225C27.1651 48.3689 29.2825 47.3624 31.7371 46.812C31.8814 46.7796 32.0306 46.776 32.1763 46.8013C32.322 46.8266 32.4613 46.8804 32.5862 46.9595C32.7111 47.0387 32.8192 47.1417 32.9043 47.2627C32.9894 47.3836 33.0498 47.5202 33.0821 47.6645C33.1145 47.8088 33.1181 47.958 33.0928 48.1037C33.0675 48.2494 33.0137 48.3887 32.9345 48.5136C32.8554 48.6385 32.7524 48.7466 32.6314 48.8317C32.5105 48.9168 32.374 48.9772 32.2297 49.0095C28.0708 49.9423 25.2765 52.2961 25.2765 54.8667C25.2765 58.2645 30.1861 61.1349 35.9974 61.1349C41.8088 61.1349 46.7223 58.2645 46.7223 54.8667C46.7223 52.2961 43.9281 49.9422 39.7693 49.0095C39.481 48.9412 39.2312 48.762 39.0741 48.5108C38.9171 48.2596 38.8653 47.9566 38.9301 47.6675C38.9949 47.3783 39.1711 47.1264 39.4204 46.9663C39.6697 46.8062 39.972 46.7507 40.2619 46.812C42.7164 47.3624 44.8339 48.3689 46.3854 49.7225C48.0792 51.2003 48.9744 52.9791 48.9744 54.8667C48.9744 57.2438 47.5536 59.4398 44.9737 61.05C42.5584 62.5572 39.3707 63.3872 35.9976 63.3872ZM57.4394 55.9928H51.7231C51.1011 55.9928 50.597 55.4887 50.597 54.8667C50.597 54.2447 51.1011 53.7406 51.7231 53.7406H57.4394C58.0614 53.7406 58.5655 54.2447 58.5655 54.8667C58.5655 55.4887 58.0614 55.9928 57.4394 55.9928ZM35.9976 70.8774C35.6989 70.8774 35.4125 70.7588 35.2013 70.5476C34.9901 70.3364 34.8715 70.05 34.8715 69.7513V66.1837C34.8715 65.5617 35.3756 65.0575 35.9976 65.0575C36.6196 65.0575 37.1237 65.5617 37.1237 66.1837V69.7513C37.1237 69.8992 37.0946 70.0456 37.038 70.1823C36.9814 70.3189 36.8984 70.443 36.7939 70.5476C36.6893 70.6522 36.5652 70.7351 36.4285 70.7917C36.2919 70.8483 36.1455 70.8774 35.9976 70.8774ZM20.2758 55.9928H14.5597C13.9377 55.9928 13.4336 55.4887 13.4336 54.8667C13.4336 54.2447 13.9377 53.7406 14.5597 53.7406H20.2758C20.8978 53.7406 21.402 54.2447 21.402 54.8667C21.402 55.4887 20.8978 55.9928 20.2758 55.9928Z" fill="#253359"/>
<path d="M35.9974 55.993C35.7997 55.993 35.6055 55.941 35.4343 55.8422C35.2631 55.7433 35.1209 55.6012 35.0221 55.43L19.9542 29.3309C18.2411 26.4559 17.3359 23.1562 17.3359 19.7881C17.3359 9.49593 25.7075 1.12256 35.9974 1.12256C46.2874 1.12256 54.6629 9.49593 54.6629 19.788C54.6629 23.1488 53.7577 26.448 52.0451 29.3298L36.9725 55.4301C36.8737 55.6013 36.7315 55.7434 36.5603 55.8422C36.3891 55.941 36.1951 55.993 35.9974 55.993ZM35.9974 3.37481C26.9493 3.37481 19.5882 10.7378 19.5882 19.7881C19.5882 22.7529 20.3851 25.6563 21.8929 28.1843L21.901 28.1981L35.9977 52.6149L50.0983 28.1979L50.1058 28.1854C51.6138 25.6504 52.411 22.7465 52.411 19.7881C52.411 10.7379 45.0481 3.37481 35.9977 3.37481H35.9974Z" fill="#253359"/>
<path d="M35.9974 30.808C29.9233 30.808 24.9814 25.8645 24.9814 19.7881C24.9814 13.7117 29.9233 8.77222 35.9974 8.77222C42.0716 8.77222 47.0172 13.7139 47.0172 19.7881C47.0172 25.8622 42.0739 30.808 35.9974 30.808ZM35.9974 11.0245C31.1651 11.0245 27.2337 14.9558 27.2337 19.7881C27.2337 24.6204 31.1651 28.5559 35.9974 28.5559C40.8297 28.5559 44.7651 24.6226 44.7651 19.7881C44.7651 14.9535 40.832 11.0245 35.9974 11.0245Z" fill="#FF9568"/>
</svg>
