<svg width="32" height="32" viewBox="0 0 32 32" fill="none" xmlns="http://www.w3.org/2000/svg">
<path d="M15.9991 28.1719C14.5006 28.1719 13.0844 27.803 12.0112 27.1331C10.8646 26.4174 10.2333 25.4415 10.2333 24.385C10.2333 23.5461 10.6311 22.7555 11.384 22.0987C12.0736 21.4971 13.0146 21.0497 14.1056 20.8051C14.1697 20.7907 14.236 20.7891 14.3008 20.8004C14.3656 20.8116 14.4275 20.8355 14.483 20.8707C14.5385 20.9059 14.5865 20.9517 14.6244 21.0054C14.6622 21.0592 14.689 21.1199 14.7034 21.184C14.7178 21.2481 14.7194 21.3145 14.7081 21.3792C14.6969 21.444 14.673 21.5059 14.6378 21.5614C14.6026 21.6169 14.5568 21.6649 14.5031 21.7028C14.4493 21.7406 14.3887 21.7674 14.3245 21.7818C12.4761 22.1964 11.2342 23.2425 11.2342 24.385C11.2342 25.8951 13.4163 27.1709 15.9991 27.1709C18.5819 27.1709 20.7657 25.8951 20.7657 24.385C20.7657 23.2425 19.5238 22.1963 17.6755 21.7818C17.5473 21.7514 17.4363 21.6718 17.3665 21.5601C17.2967 21.4485 17.2737 21.3138 17.3025 21.1853C17.3313 21.0568 17.4096 20.9449 17.5204 20.8737C17.6312 20.8025 17.7656 20.7779 17.8944 20.8051C18.9853 21.0497 19.9264 21.4971 20.616 22.0987C21.3688 22.7555 21.7666 23.5461 21.7666 24.385C21.7666 25.4415 21.1351 26.4175 19.9885 27.1331C18.9151 27.803 17.4983 28.1719 15.9991 28.1719ZM25.5288 24.8855H22.9883C22.7118 24.8855 22.4878 24.6614 22.4878 24.385C22.4878 24.1086 22.7118 23.8845 22.9883 23.8845H25.5288C25.8053 23.8845 26.0293 24.1086 26.0293 24.385C26.0293 24.6614 25.8053 24.8855 25.5288 24.8855ZM15.9991 31.5009C15.8664 31.5009 15.7391 31.4481 15.6452 31.3543C15.5514 31.2604 15.4986 31.1331 15.4986 31.0004V29.4147C15.4986 29.1383 15.7227 28.9142 15.9991 28.9142C16.2756 28.9142 16.4996 29.1383 16.4996 29.4147V31.0004C16.4996 31.0661 16.4867 31.1312 16.4615 31.1919C16.4364 31.2526 16.3995 31.3078 16.353 31.3543C16.3066 31.4008 16.2514 31.4376 16.1907 31.4628C16.13 31.4879 16.0649 31.5009 15.9991 31.5009ZM9.0117 24.8855H6.4712C6.19477 24.8855 5.9707 24.6614 5.9707 24.385C5.9707 24.1086 6.19477 23.8845 6.4712 23.8845H9.0117C9.28814 23.8845 9.5122 24.1086 9.5122 24.385C9.5122 24.6614 9.28814 24.8855 9.0117 24.8855Z" fill="#253359"/>
<path d="M15.9991 24.8857C15.9112 24.8857 15.8249 24.8625 15.7488 24.8186C15.6727 24.7747 15.6095 24.7115 15.5656 24.6354L8.86877 13.0358C8.10739 11.758 7.70508 10.2915 7.70508 8.79459C7.70508 4.22028 11.4258 0.498779 15.9991 0.498779C20.5724 0.498779 24.2948 4.22028 24.2948 8.79453C24.2948 10.2882 23.8925 11.7545 23.1314 13.0353L16.4325 24.6355C16.3885 24.7115 16.3253 24.7747 16.2492 24.8186C16.1732 24.8625 16.0869 24.8857 15.9991 24.8857ZM15.9991 1.49978C11.9777 1.49978 8.70608 4.77222 8.70608 8.79459C8.70608 10.1123 9.06027 11.4027 9.73039 12.5262L9.73402 12.5323L15.9992 23.3843L22.2661 12.5323L22.2695 12.5267C22.9397 11.4 23.294 10.1094 23.294 8.79459C23.294 4.77228 20.0216 1.49978 15.9992 1.49978H15.9991Z" fill="#253359"/>
<path d="M15.9985 13.6924C13.2989 13.6924 11.1025 11.4952 11.1025 8.79462C11.1025 6.09399 13.2989 3.89868 15.9985 3.89868C18.6982 3.89868 20.8962 6.09499 20.8962 8.79462C20.8962 11.4942 18.6992 13.6924 15.9985 13.6924ZM15.9985 4.89968C13.8509 4.89968 12.1035 6.64693 12.1035 8.79462C12.1035 10.9423 13.8509 12.6914 15.9985 12.6914C18.1462 12.6914 19.8953 10.9433 19.8953 8.79462C19.8953 6.64593 18.1472 4.89968 15.9985 4.89968Z" fill="#FF9568"/>
</svg>
