<svg width="33" height="32" viewBox="0 0 33 32" fill="none" xmlns="http://www.w3.org/2000/svg">
<path d="M3.5 2.00012V30.0001H16.5V2.00012H3.5Z" fill="white"/>
<path d="M14.5003 26.6667C14.5003 26.8435 14.4301 27.0131 14.3051 27.1381C14.18 27.2631 14.0105 27.3334 13.8337 27.3334H6.50033C6.32351 27.3334 6.15395 27.2631 6.02892 27.1381C5.9039 27.0131 5.83366 26.8435 5.83366 26.6667C5.83366 26.4899 5.9039 26.3203 6.02892 26.1953C6.15395 26.0703 6.32351 26 6.50033 26H13.8337C14.0105 26 14.18 26.0703 14.3051 26.1953C14.4301 26.3203 14.5003 26.4899 14.5003 26.6667ZM13.8337 23.3334H6.50033C6.32351 23.3334 6.15395 23.4036 6.02892 23.5286C5.9039 23.6537 5.83366 23.8232 5.83366 24C5.83366 24.1769 5.9039 24.3464 6.02892 24.4714C6.15395 24.5965 6.32351 24.6667 6.50033 24.6667H13.8337C14.0105 24.6667 14.18 24.5965 14.3051 24.4714C14.4301 24.3464 14.5003 24.1769 14.5003 24C14.5003 23.8232 14.4301 23.6537 14.3051 23.5286C14.18 23.4036 14.0105 23.3334 13.8337 23.3334ZM13.8337 7.33337H6.50033C6.32351 7.33337 6.15395 7.40361 6.02892 7.52864C5.9039 7.65366 5.83366 7.82323 5.83366 8.00004C5.83366 8.17685 5.9039 8.34642 6.02892 8.47145C6.15395 8.59647 6.32351 8.66671 6.50033 8.66671H13.8337C14.0105 8.66671 14.18 8.59647 14.3051 8.47145C14.4301 8.34642 14.5003 8.17685 14.5003 8.00004C14.5003 7.82323 14.4301 7.65366 14.3051 7.52864C14.18 7.40361 14.0105 7.33337 13.8337 7.33337ZM13.8337 4.66671H6.50033C6.32351 4.66671 6.15395 4.73695 6.02892 4.86197C5.9039 4.98699 5.83366 5.15656 5.83366 5.33337C5.83366 5.51019 5.9039 5.67975 6.02892 5.80478C6.15395 5.9298 6.32351 6.00004 6.50033 6.00004H13.8337C14.0105 6.00004 14.18 5.9298 14.3051 5.80478C14.4301 5.67975 14.5003 5.51019 14.5003 5.33337C14.5003 5.15656 14.4301 4.98699 14.3051 4.86197C14.18 4.73695 14.0105 4.66671 13.8337 4.66671ZM6.50033 18.6667C6.67714 18.6667 6.84671 18.5965 6.97173 18.4714C7.09675 18.3464 7.16699 18.1769 7.16699 18V14C7.16699 13.8232 7.09675 13.6537 6.97173 13.5286C6.84671 13.4036 6.67714 13.3334 6.50033 13.3334C6.32351 13.3334 6.15395 13.4036 6.02892 13.5286C5.9039 13.6537 5.83366 13.8232 5.83366 14V18C5.83366 18.1769 5.9039 18.3464 6.02892 18.4714C6.15395 18.5965 6.32351 18.6667 6.50033 18.6667ZM29.8337 2.00004V30C29.8337 30.1769 29.7634 30.3464 29.6384 30.4714C29.5134 30.5965 29.3438 30.6667 29.167 30.6667H3.83366C3.65685 30.6667 3.48728 30.5965 3.36225 30.4714C3.23723 30.3464 3.16699 30.1769 3.16699 30V2.00004C3.16699 1.82323 3.23723 1.65366 3.36225 1.52864C3.48728 1.40361 3.65685 1.33337 3.83366 1.33337H29.167C29.3438 1.33337 29.5134 1.40361 29.6384 1.52864C29.7634 1.65366 29.8337 1.82323 29.8337 2.00004ZM28.5003 2.66671H17.167V15.3334H28.5003V2.66671ZM4.50033 29.3334H15.8337V2.66671H4.50033V29.3334ZM28.5003 29.3334V16.6667H17.167V29.3334H28.5003ZM21.8337 11.3334H26.5003C26.6771 11.3334 26.8467 11.2631 26.9717 11.1381C27.0968 11.0131 27.167 10.8435 27.167 10.6667C27.167 10.4899 27.0968 10.3203 26.9717 10.1953C26.8467 10.0703 26.6771 10 26.5003 10H21.8337C21.6568 10 21.4873 10.0703 21.3623 10.1953C21.2372 10.3203 21.167 10.4899 21.167 10.6667C21.167 10.8435 21.2372 11.0131 21.3623 11.1381C21.4873 11.2631 21.6568 11.3334 21.8337 11.3334ZM21.8337 8.66671H26.5003C26.6771 8.66671 26.8467 8.59647 26.9717 8.47145C27.0968 8.34642 27.167 8.17685 27.167 8.00004C27.167 7.82323 27.0968 7.65366 26.9717 7.52864C26.8467 7.40361 26.6771 7.33337 26.5003 7.33337H21.8337C21.6568 7.33337 21.4873 7.40361 21.3623 7.52864C21.2372 7.65366 21.167 7.82323 21.167 8.00004C21.167 8.17685 21.2372 8.34642 21.3623 8.47145C21.4873 8.59647 21.6568 8.66671 21.8337 8.66671ZM19.167 11.3334C19.3438 11.3334 19.5134 11.2631 19.6384 11.1381C19.7634 11.0131 19.8337 10.8435 19.8337 10.6667V8.00004C19.8337 7.82323 19.7634 7.65366 19.6384 7.52864C19.5134 7.40361 19.3438 7.33337 19.167 7.33337C18.9902 7.33337 18.8206 7.40361 18.6956 7.52864C18.5706 7.65366 18.5003 7.82323 18.5003 8.00004V10.6667C18.5003 10.8435 18.5706 11.0131 18.6956 11.1381C18.8206 11.2631 18.9902 11.3334 19.167 11.3334ZM26.5003 23.3334H21.8337C21.6568 23.3334 21.4873 23.4036 21.3623 23.5286C21.2372 23.6537 21.167 23.8232 21.167 24C21.167 24.1769 21.2372 24.3464 21.3623 24.4714C21.4873 24.5965 21.6568 24.6667 21.8337 24.6667H26.5003C26.6771 24.6667 26.8467 24.5965 26.9717 24.4714C27.0968 24.3464 27.167 24.1769 27.167 24C27.167 23.8232 27.0968 23.6537 26.9717 23.5286C26.8467 23.4036 26.6771 23.3334 26.5003 23.3334ZM26.5003 20.6667H21.8337C21.6568 20.6667 21.4873 20.7369 21.3623 20.862C21.2372 20.987 21.167 21.1566 21.167 21.3334C21.167 21.5102 21.2372 21.6798 21.3623 21.8048C21.4873 21.9298 21.6568 22 21.8337 22H26.5003C26.6771 22 26.8467 21.9298 26.9717 21.8048C27.0968 21.6798 27.167 21.5102 27.167 21.3334C27.167 21.1566 27.0968 20.987 26.9717 20.862C26.8467 20.7369 26.6771 20.6667 26.5003 20.6667ZM19.167 20.6667C18.9902 20.6667 18.8206 20.7369 18.6956 20.862C18.5706 20.987 18.5003 21.1566 18.5003 21.3334V24C18.5003 24.1769 18.5706 24.3464 18.6956 24.4714C18.8206 24.5965 18.9902 24.6667 19.167 24.6667C19.3438 24.6667 19.5134 24.5965 19.6384 24.4714C19.7634 24.3464 19.8337 24.1769 19.8337 24V21.3334C19.8337 21.1566 19.7634 20.987 19.6384 20.862C19.5134 20.7369 19.3438 20.6667 19.167 20.6667Z" fill="#253359"/>
</svg>
