<svg width="32" height="32" viewBox="0 0 32 32" fill="none" xmlns="http://www.w3.org/2000/svg">
<path d="M0.5 8C0.5 3.85786 3.85786 0.5 8 0.5H24C28.1421 0.5 31.5 3.85786 31.5 8V24C31.5 28.1421 28.1421 31.5 24 31.5H8C3.85786 31.5 0.5 28.1421 0.5 24V8Z" stroke="#44C0ED"/>
<path d="M16.1596 14.87C16.0596 14.86 15.9396 14.86 15.8296 14.87C13.4496 14.79 11.5596 12.84 11.5596 10.44C11.5596 7.99 13.5396 6 15.9996 6C18.4496 6 20.4396 7.99 20.4396 10.44C20.4296 12.84 18.5396 14.79 16.1596 14.87Z" stroke="#44C0ED" stroke-width="1.5" stroke-linecap="round" stroke-linejoin="round"/>
<path d="M11.1597 18.56C8.73973 20.18 8.73973 22.82 11.1597 24.43C13.9097 26.27 18.4197 26.27 21.1697 24.43C23.5897 22.81 23.5897 20.17 21.1697 18.56C18.4297 16.73 13.9197 16.73 11.1597 18.56Z" stroke="#44C0ED" stroke-width="1.5" stroke-linecap="round" stroke-linejoin="round"/>
</svg>
