<svg width="48" height="48" viewBox="0 0 48 48" fill="none" xmlns="http://www.w3.org/2000/svg">
<path d="M5.25 39.75H24V16.5C22.25 17.25 18.6 18.9 18 19.5C17.4 20.1 16.75 22.75 16.5 24H4.5L2.25 26.25V36L5.25 39.75Z" fill="white"/>
<path d="M24 31.5C28.1421 31.5 31.5 28.1421 31.5 24C31.5 19.8579 28.1421 16.5 24 16.5C19.8579 16.5 16.5 19.8579 16.5 24C16.5 28.1421 19.8579 31.5 24 31.5Z" stroke="#253359" stroke-width="1.8" stroke-miterlimit="10" stroke-linecap="round" stroke-linejoin="round"/>
<path d="M9 24H5.625C3.55397 24 1.875 25.679 1.875 27.75V35.25C1.875 37.321 3.55397 39 5.625 39H42.375C44.446 39 46.125 37.321 46.125 35.25V27.75C46.125 25.679 44.446 24 42.375 24H39M16.5 11.0096L14.627 7.7655M31.5 11.0096L33.373 7.7655M24 9V5.25M9 42.75V39M39 42.75V39" stroke="#253359" stroke-width="1.8" stroke-miterlimit="10" stroke-linecap="round" stroke-linejoin="round"/>
<path d="M24 31.5C28.1421 31.5 31.5 28.1421 31.5 24C31.5 19.8579 28.1421 16.5 24 16.5C19.8579 16.5 16.5 19.8579 16.5 24C16.5 28.1421 19.8579 31.5 24 31.5Z" stroke="#253359" stroke-miterlimit="10" stroke-linecap="round" stroke-linejoin="round"/>
<path d="M9 24H5.625C3.55397 24 1.875 25.679 1.875 27.75V35.25C1.875 37.321 3.55397 39 5.625 39H42.375C44.446 39 46.125 37.321 46.125 35.25V27.75C46.125 25.679 44.446 24 42.375 24H39M16.5 11.0096L14.627 7.7655M31.5 11.0096L33.373 7.7655M24 9V5.25M9 42.75V39M39 42.75V39" stroke="#253359" stroke-miterlimit="10" stroke-linecap="round" stroke-linejoin="round"/>
</svg>
