<svg width="156" height="25" viewBox="0 0 156 25" fill="none" xmlns="http://www.w3.org/2000/svg">
<path d="M3.038 17C3.05 16.676 3.056 16.196 3.056 15.56C3.056 13.628 2.954 11.882 2.75 10.322C2.486 8.366 2.036 6.656 1.4 5.192L3.398 3.986C3.734 4.67 4.022 5.45 4.262 6.326C4.418 6.794 4.604 7.208 4.82 7.568C4.904 6.932 5.132 6.338 5.504 5.786C5.876 5.234 6.344 4.796 6.908 4.472C7.484 4.148 8.096 3.986 8.744 3.986C9.824 3.986 10.934 4.448 12.074 5.372L11.174 7.208C10.346 6.86 9.614 6.686 8.978 6.686C8.33 6.686 7.79 6.83 7.358 7.118C6.938 7.394 6.728 7.754 6.728 8.198C6.728 8.57 6.932 8.894 7.34 9.17C7.76 9.446 8.318 9.584 9.014 9.584C9.83 9.584 10.754 9.368 11.786 8.936L12.344 11.294C11.816 11.57 11.228 11.792 10.58 11.96C9.944 12.116 9.296 12.194 8.636 12.194C7.244 12.194 6.038 11.816 5.018 11.06C5.102 12.116 5.144 13.328 5.144 14.696C5.144 15.2 5.132 15.968 5.108 17H3.038ZM15.9358 17C15.4798 17 15.0958 16.844 14.7838 16.532C14.4838 16.22 14.3338 15.836 14.3338 15.38C14.3338 14.924 14.4838 14.546 14.7838 14.246C15.0958 13.946 15.4798 13.796 15.9358 13.796C16.3918 13.796 16.7698 13.952 17.0698 14.264C17.3818 14.564 17.5378 14.936 17.5378 15.38C17.5378 15.836 17.3818 16.22 17.0698 16.532C16.7698 16.844 16.3918 17 15.9358 17ZM19.7473 12.536C19.8553 11.552 20.1673 10.526 20.6833 9.458C21.2113 8.378 21.8473 7.364 22.5913 6.416C22.3273 6.248 22.1293 6.128 21.9973 6.056L23.3113 3.77C25.2073 5.102 26.7793 6.554 28.0273 8.126C29.2753 9.698 29.8993 11.42 29.8993 13.292C29.8993 14.072 29.7793 14.756 29.5393 15.344C29.2993 15.92 28.9633 16.37 28.5313 16.694C28.0993 17.006 27.6073 17.162 27.0553 17.162C26.6593 17.162 26.2753 17.072 25.9033 16.892C25.5313 16.7 25.2073 16.4 24.9313 15.992C24.4633 16.772 23.7493 17.162 22.7893 17.162C21.8533 17.162 21.1033 16.802 20.5393 16.082C19.9873 15.362 19.7113 14.42 19.7113 13.256C19.7113 13.112 19.7233 12.872 19.7473 12.536ZM21.7273 12.338C21.6913 12.554 21.6733 12.752 21.6733 12.932C21.6733 13.436 21.7813 13.82 21.9973 14.084C22.2133 14.348 22.5133 14.48 22.8973 14.48C23.3173 14.48 23.6173 14.276 23.7973 13.868C23.9773 13.448 24.0673 13.034 24.0673 12.626L25.6873 12.356C25.7233 12.872 25.8193 13.358 25.9753 13.814C26.1433 14.258 26.4313 14.48 26.8393 14.48C27.6073 14.48 27.9913 13.958 27.9913 12.914C27.9913 12.014 27.6553 11.114 26.9833 10.214C26.3113 9.302 25.4113 8.42 24.2833 7.568C22.8073 9.212 21.9553 10.802 21.7273 12.338Z" fill="#404040"/>
<path d="M49.2289 4.00989L50.9889 7.52989C51.2289 8.01989 51.8689 8.48989 52.4089 8.57989L55.5989 9.10989C57.6389 9.44989 58.1189 10.9299 56.6489 12.3899L54.1689 14.8699C53.7489 15.2899 53.5189 16.0999 53.6489 16.6799L54.3589 19.7499C54.9189 22.1799 53.6289 23.1199 51.4789 21.8499L48.4889 20.0799C47.9489 19.7599 47.0589 19.7599 46.5089 20.0799L43.5189 21.8499C41.3789 23.1199 40.0789 22.1699 40.6389 19.7499L41.3489 16.6799C41.4789 16.0999 41.2489 15.2899 40.8289 14.8699L38.3489 12.3899C36.8889 10.9299 37.3589 9.44989 39.3989 9.10989L42.5889 8.57989C43.1189 8.48989 43.7589 8.01989 43.9989 7.52989L45.7589 4.00989C46.7189 2.09989 48.2789 2.09989 49.2289 4.00989Z" fill="#FDD013"/>
<path d="M73.2289 4.00989L74.9889 7.52989C75.2289 8.01989 75.8689 8.48989 76.4089 8.57989L79.5989 9.10989C81.6389 9.44989 82.1189 10.9299 80.6489 12.3899L78.1689 14.8699C77.7489 15.2899 77.5189 16.0999 77.6489 16.6799L78.3589 19.7499C78.9189 22.1799 77.6289 23.1199 75.4789 21.8499L72.4889 20.0799C71.9489 19.7599 71.0589 19.7599 70.5089 20.0799L67.5189 21.8499C65.3789 23.1199 64.0789 22.1699 64.6389 19.7499L65.3489 16.6799C65.4789 16.0999 65.2489 15.2899 64.8289 14.8699L62.3489 12.3899C60.8889 10.9299 61.3589 9.44989 63.3989 9.10989L66.5889 8.57989C67.1189 8.48989 67.7589 8.01989 67.9989 7.52989L69.7589 4.00989C70.7189 2.09989 72.2789 2.09989 73.2289 4.00989Z" fill="#FDD013"/>
<path d="M97.2289 4.00989L98.9889 7.52989C99.2289 8.01989 99.8689 8.48989 100.409 8.57989L103.599 9.10989C105.639 9.44989 106.119 10.9299 104.649 12.3899L102.169 14.8699C101.749 15.2899 101.519 16.0999 101.649 16.6799L102.359 19.7499C102.919 22.1799 101.629 23.1199 99.4789 21.8499L96.4889 20.0799C95.9489 19.7599 95.0589 19.7599 94.5089 20.0799L91.5189 21.8499C89.3789 23.1199 88.0789 22.1699 88.6389 19.7499L89.3489 16.6799C89.4789 16.0999 89.2489 15.2899 88.8289 14.8699L86.3489 12.3899C84.8889 10.9299 85.3589 9.44989 87.3989 9.10989L90.5889 8.57989C91.1189 8.48989 91.7589 8.01989 91.9989 7.52989L93.7589 4.00989C94.7189 2.09989 96.2789 2.09989 97.2289 4.00989Z" fill="#FDD013"/>
<path d="M121.229 4.00989L122.989 7.52989C123.229 8.01989 123.869 8.48989 124.409 8.57989L127.599 9.10989C129.639 9.44989 130.119 10.9299 128.649 12.3899L126.169 14.8699C125.749 15.2899 125.519 16.0999 125.649 16.6799L126.359 19.7499C126.919 22.1799 125.629 23.1199 123.479 21.8499L120.489 20.0799C119.949 19.7599 119.059 19.7599 118.509 20.0799L115.519 21.8499C113.379 23.1199 112.079 22.1699 112.639 19.7499L113.349 16.6799C113.479 16.0999 113.249 15.2899 112.829 14.8699L110.349 12.3899C108.889 10.9299 109.359 9.44989 111.399 9.10989L114.589 8.57989C115.119 8.48989 115.759 8.01989 115.999 7.52989L117.759 4.00989C118.719 2.09989 120.279 2.09989 121.229 4.00989Z" fill="#FDD013"/>
<path d="M137.239 16.5C137.349 16.01 137.149 15.31 136.799 14.96L134.369 12.53C133.609 11.77 133.309 10.96 133.529 10.26C133.759 9.56 134.469 9.08 135.529 8.9L138.649 8.38C139.099 8.3 139.649 7.9 139.859 7.49L141.579 4.04C142.079 3.05 142.759 2.5 143.499 2.5C144.239 2.5 144.919 3.05 145.419 4.04L147.139 7.49C147.269 7.75 147.539 8 147.829 8.17L137.059 18.94C136.919 19.08 136.679 18.95 136.719 18.75L137.239 16.5Z" fill="#FDD013"/>
<path d="M150.201 14.9599C149.841 15.3199 149.641 16.0099 149.761 16.4999L150.451 19.5099C150.741 20.7599 150.561 21.6999 149.941 22.1499C149.691 22.3299 149.391 22.4199 149.041 22.4199C148.531 22.4199 147.931 22.2299 147.271 21.8399L144.341 20.0999C143.881 19.8299 143.121 19.8299 142.661 20.0999L139.731 21.8399C138.621 22.4899 137.671 22.5999 137.061 22.1499C136.831 21.9799 136.661 21.7499 136.551 21.4499L148.711 9.2899C149.171 8.8299 149.821 8.6199 150.451 8.7299L151.461 8.8999C152.521 9.0799 153.231 9.5599 153.461 10.2599C153.681 10.9599 153.381 11.7699 152.621 12.5299L150.201 14.9599Z" fill="#DFDFDF"/>
</svg>
