<svg width="170" height="96" viewBox="0 0 170 96" fill="none" xmlns="http://www.w3.org/2000/svg">
<mask id="path-1-inside-1_60673_13939" fill="white">
<path d="M170 48C170 21.4903 148.51 0 122 0H48C21.4903 0 0 21.4903 0 48V48C0 74.5097 21.4903 96 48 96H122C148.51 96 170 74.5097 170 48V48Z"/>
</mask>
<path d="M170 48C170 21.4903 148.51 0 122 0H48C21.4903 0 0 21.4903 0 48V48C0 74.5097 21.4903 96 48 96H122C148.51 96 170 74.5097 170 48V48Z" fill="#253359"/>
<path d="M122 10.9824H48V-10.9824H122V10.9824ZM48 85.0176H122V106.982H48V85.0176ZM122 85.0176C142.444 85.0176 159.018 68.4443 159.018 48H180.982C180.982 80.5751 154.575 106.982 122 106.982V85.0176ZM10.9824 48C10.9824 68.4443 27.5557 85.0176 48 85.0176V106.982C15.4249 106.982 -10.9824 80.5751 -10.9824 48H10.9824ZM48 10.9824C27.5557 10.9824 10.9824 27.5557 10.9824 48H-10.9824C-10.9824 15.4249 15.4249 -10.9824 48 -10.9824V10.9824ZM122 -10.9824C154.575 -10.9824 180.982 15.4249 180.982 48H159.018C159.018 27.5557 142.444 10.9824 122 10.9824V-10.9824Z" fill="white" mask="url(#path-1-inside-1_60673_13939)"/>
</svg>
