<svg width="121" height="32" viewBox="0 0 121 32" fill="none" xmlns="http://www.w3.org/2000/svg">
<path d="M6 13L12 19L18 13" stroke="#404040" stroke-width="2" stroke-linecap="round" stroke-linejoin="round"/>
<path d="M38.094 19.5C37.758 19.5 37.4453 19.3553 37.156 19.066C37.1653 19.1593 37.17 19.29 37.17 19.458C37.17 20.13 36.9927 20.7787 36.638 21.404C36.2927 22.0293 35.784 22.538 35.112 22.93C34.44 23.322 33.642 23.518 32.718 23.518C31.8313 23.518 31.0753 23.3407 30.45 22.986C29.834 22.6313 29.3673 22.16 29.05 21.572C28.742 20.984 28.588 20.34 28.588 19.64C28.588 19.08 28.6813 18.492 28.868 17.876C29.0547 17.26 29.2693 16.7 29.512 16.196L30.464 16.644C29.9413 17.7453 29.68 18.7067 29.68 19.528C29.68 20.4147 29.9413 21.0913 30.464 21.558C30.9867 22.0247 31.738 22.258 32.718 22.258C33.474 22.258 34.104 22.118 34.608 21.838C35.1213 21.5673 35.4993 21.2173 35.742 20.788C35.9847 20.368 36.106 19.9247 36.106 19.458C36.106 18.6833 35.8493 17.5167 35.336 15.958L36.372 15.482C36.5213 15.93 36.6473 16.3593 36.75 16.77C36.918 17.3207 37.0953 17.7033 37.282 17.918C37.478 18.1327 37.7487 18.24 38.094 18.24H38.178L38.248 18.87L38.178 19.5H38.094ZM33.026 14.712L34.02 15.706L33.026 16.7L32.032 15.706L33.026 14.712ZM37.9918 18.87L38.0618 18.24H38.8598C39.8585 18.24 40.5632 18.1467 40.9738 17.96C41.3845 17.764 41.5898 17.4467 41.5898 17.008C41.5805 16.7187 41.4825 16.28 41.2958 15.692C41.1185 15.0947 40.9645 14.6653 40.8338 14.404L41.8418 13.872C42.0285 14.236 42.2105 14.7307 42.3878 15.356C42.5745 15.972 42.6678 16.5087 42.6678 16.966C42.6678 17.7967 42.3645 18.4267 41.7578 18.856C41.1512 19.2853 40.2365 19.5 39.0138 19.5H38.0618L37.9918 18.87ZM39.1118 20.774L40.1058 21.768L39.1118 22.762L38.1178 21.768L39.1118 20.774ZM41.6178 20.774L42.6118 21.768L41.6178 22.762L40.6238 21.768L41.6178 20.774ZM48.4381 19.5C48.0835 19.5 47.7708 19.416 47.5001 19.248V19.458C47.5001 20.0087 47.3368 20.5453 47.0101 21.068C46.6835 21.6 46.2308 22.076 45.6521 22.496C45.0828 22.9253 44.4388 23.266 43.7201 23.518L43.2441 22.426C43.8415 22.2207 44.3828 21.95 44.8681 21.614C45.3535 21.278 45.7315 20.9187 46.0021 20.536C46.2821 20.1533 46.4221 19.794 46.4221 19.458C46.4221 18.982 46.1841 17.8153 45.7081 15.958L46.7861 15.552C46.9355 16.0373 47.0568 16.5087 47.1501 16.966C47.2901 17.4327 47.4581 17.764 47.6541 17.96C47.8501 18.1467 48.1115 18.24 48.4381 18.24H48.5361L48.6061 18.87L48.5361 19.5H48.4381ZM48.3968 18.24H48.9568C49.9555 18.24 50.6601 18.1467 51.0708 17.96C51.4815 17.764 51.6868 17.4467 51.6868 17.008C51.6775 16.7187 51.5795 16.28 51.3928 15.692C51.2155 15.0947 51.0615 14.6653 50.9308 14.404L51.9388 13.872C52.1255 14.236 52.3075 14.7307 52.4848 15.356C52.6715 15.972 52.7648 16.5087 52.7648 16.966C52.7648 17.7967 52.4615 18.4267 51.8548 18.856C51.2481 19.2853 50.3335 19.5 49.1108 19.5H48.3968V18.24ZM49.7268 11.086L50.7208 12.08L49.7268 13.074L48.7328 12.08L49.7268 11.086ZM52.2328 11.086L53.2268 12.08L52.2328 13.074L51.2388 12.08L52.2328 11.086ZM61.314 19.5C60.474 19.5 59.8067 19.192 59.312 18.576C58.9667 18.856 58.5793 19.0893 58.15 19.276C57.73 19.4627 57.2307 19.556 56.652 19.556C56.0173 19.556 55.4713 19.458 55.014 19.262C54.5567 19.066 54.1367 18.828 53.754 18.548L54.3 17.624C54.664 17.8387 55.014 18.016 55.35 18.156C55.686 18.2867 56.0873 18.352 56.554 18.352C57.3473 18.352 58.0847 18.1233 58.766 17.666L58.738 17.596L56.778 13.018L57.786 12.486L59.704 17.022C59.8907 17.4793 60.1007 17.7967 60.334 17.974C60.5767 18.1513 60.9033 18.24 61.314 18.24H61.468L61.538 18.87L61.468 19.5H61.314ZM61.3304 18.24H61.8904C62.8891 18.24 63.5937 18.1467 64.0044 17.96C64.4151 17.764 64.6204 17.4467 64.6204 17.008C64.6111 16.7187 64.5131 16.28 64.3264 15.692C64.1491 15.0947 63.9951 14.6653 63.8644 14.404L64.8724 13.872C65.0591 14.236 65.2411 14.7307 65.4184 15.356C65.6051 15.972 65.6984 16.5087 65.6984 16.966C65.6984 17.7967 65.3951 18.4267 64.7884 18.856C64.1817 19.2853 63.2671 19.5 62.0444 19.5H61.3304V18.24ZM61.4844 20.802L62.4784 21.796L61.4844 22.79L60.4904 21.796L61.4844 20.802ZM63.9904 20.802L64.9844 21.796L63.9904 22.79L62.9964 21.796L63.9904 20.802ZM74.2476 19.5C73.4076 19.5 72.7402 19.192 72.2456 18.576C71.9002 18.856 71.5129 19.0893 71.0836 19.276C70.6636 19.4627 70.1642 19.556 69.5856 19.556C68.9509 19.556 68.4049 19.458 67.9476 19.262C67.4902 19.066 67.0702 18.828 66.6876 18.548L67.2336 17.624C67.5976 17.8387 67.9476 18.016 68.2836 18.156C68.6196 18.2867 69.0209 18.352 69.4876 18.352C70.2809 18.352 71.0182 18.1233 71.6996 17.666L71.6716 17.596L69.7116 13.018L70.7196 12.486L72.6376 17.022C72.8242 17.4793 73.0342 17.7967 73.2676 17.974C73.5102 18.1513 73.8369 18.24 74.2476 18.24H74.4016L74.4716 18.87L74.4016 19.5H74.2476ZM74.25 18.24H75.538C76.7047 18.24 77.792 18.1 78.8 17.82C79.8173 17.5307 80.8347 17.1153 81.852 16.574C82.048 16.462 82.244 16.364 82.44 16.28C81.8613 16.1773 81.236 15.958 80.564 15.622C80.116 15.3887 79.7147 15.2113 79.36 15.09C79.0053 14.9687 78.6553 14.908 78.31 14.908C77.918 14.908 77.5633 15.0247 77.246 15.258C76.9287 15.4913 76.6907 15.7667 76.532 16.084L75.776 15.566C76.0747 14.9593 76.4433 14.502 76.882 14.194C77.3207 13.8767 77.8107 13.718 78.352 13.718C78.744 13.718 79.108 13.7833 79.444 13.914C79.7893 14.0447 80.298 14.278 80.97 14.614C81.5953 14.9313 82.0853 15.1693 82.44 15.328C82.804 15.4773 83.2147 15.5987 83.672 15.692L83.714 16.798C83.5273 16.854 83.3313 16.9287 83.126 17.022C82.93 17.1153 82.6453 17.2647 82.272 17.47C81.012 18.1327 79.8687 18.6367 78.842 18.982C77.8247 19.3273 76.7233 19.5 75.538 19.5H74.25V18.24ZM78.898 20.634L79.892 21.628L78.898 22.622L77.904 21.628L78.898 20.634Z" fill="#404040"/>
<path d="M91.304 20.541C91.1135 20.7256 91.0042 20.9783 91.0001 21.2435C90.996 21.5086 91.0974 21.7646 91.282 21.955L95.128 25.919C95.2207 26.0159 95.332 26.093 95.4553 26.1457C95.5787 26.1984 95.7114 26.2255 95.8455 26.2255C95.9796 26.2255 96.1123 26.1984 96.2356 26.1457C96.3589 26.093 96.4703 26.0159 96.563 25.919L100.41 21.955C100.506 21.8617 100.582 21.7501 100.634 21.6269C100.685 21.5037 100.712 21.3714 100.712 21.2377C100.712 21.1041 100.685 20.9718 100.633 20.8487C100.58 20.7256 100.504 20.6143 100.408 20.5212C100.312 20.4281 100.199 20.3553 100.074 20.3069C99.9494 20.2585 99.8163 20.2355 99.6827 20.2394C99.5491 20.2433 99.4176 20.274 99.2961 20.3295C99.1745 20.3851 99.0653 20.4645 98.975 20.563L96.845 22.757V6.77301C96.845 6.50779 96.7396 6.25344 96.5521 6.0659C96.3645 5.87837 96.1102 5.77301 95.845 5.77301C95.5797 5.77301 95.3254 5.87837 95.1379 6.0659C94.9503 6.25344 94.845 6.50779 94.845 6.77301V22.756L92.718 20.563C92.5334 20.3726 92.2807 20.2633 92.0155 20.2592C91.7503 20.255 91.4944 20.3564 91.304 20.541ZM115.88 12.923C115.88 12.6578 115.775 12.4034 115.587 12.2159C115.4 12.0284 115.145 11.923 114.88 11.923H104.028C103.763 11.923 103.508 12.0284 103.321 12.2159C103.133 12.4034 103.028 12.6578 103.028 12.923C103.028 13.1882 103.133 13.4426 103.321 13.6301C103.508 13.8177 103.763 13.923 104.028 13.923H114.88C115.145 13.923 115.4 13.8177 115.587 13.6301C115.775 13.4426 115.88 13.1882 115.88 12.923ZM112.76 19.073C112.76 18.8078 112.655 18.5534 112.467 18.3659C112.28 18.1784 112.025 18.073 111.76 18.073H104.028C103.763 18.073 103.508 18.1784 103.321 18.3659C103.133 18.5534 103.028 18.8078 103.028 19.073C103.028 19.3382 103.133 19.5926 103.321 19.7801C103.508 19.9677 103.763 20.073 104.028 20.073H111.76C112.025 20.073 112.28 19.9677 112.467 19.7801C112.655 19.5926 112.76 19.3382 112.76 19.073ZM104.028 24.227C103.763 24.227 103.508 24.3324 103.321 24.5199C103.133 24.7074 103.028 24.9618 103.028 25.227C103.028 25.4922 103.133 25.7466 103.321 25.9341C103.508 26.1217 103.763 26.227 104.028 26.227H108.64C108.905 26.227 109.16 26.1217 109.347 25.9341C109.535 25.7466 109.64 25.4922 109.64 25.227C109.64 24.9618 109.535 24.7074 109.347 24.5199C109.16 24.3324 108.905 24.227 108.64 24.227H104.028ZM118 5.77301H104.028C103.763 5.77301 103.508 5.87837 103.321 6.0659C103.133 6.25344 103.028 6.50779 103.028 6.77301C103.028 7.03823 103.133 7.29258 103.321 7.48012C103.508 7.66765 103.763 7.77301 104.028 7.77301H118C118.265 7.77301 118.52 7.66765 118.707 7.48012C118.895 7.29258 119 7.03823 119 6.77301C119 6.50779 118.895 6.25344 118.707 6.0659C118.52 5.87837 118.265 5.77301 118 5.77301Z" fill="#404040"/>
</svg>
