<svg width="16" height="16" viewBox="0 0 16 16" fill="none" xmlns="http://www.w3.org/2000/svg">
<path d="M9.15278 2.33977L10.3261 4.68643C10.4861 5.0131 10.9128 5.32643 11.2728 5.38643L13.3995 5.73977C14.7595 5.96643 15.0795 6.9531 14.0995 7.92643L12.4461 9.57977C12.1661 9.85977 12.0128 10.3998 12.0995 10.7864L12.5728 12.8331C12.9461 14.4531 12.0861 15.0798 10.6528 14.2331L8.65945 13.0531C8.29945 12.8398 7.70612 12.8398 7.33945 13.0531L5.34612 14.2331C3.91945 15.0798 3.05278 14.4464 3.42612 12.8331L3.89945 10.7864C3.98612 10.3998 3.83278 9.85977 3.55278 9.57977L1.89945 7.92643C0.926118 6.9531 1.23945 5.96643 2.59945 5.73977L4.72612 5.38643C5.07945 5.32643 5.50612 5.0131 5.66612 4.68643L6.83945 2.33977C7.47945 1.06643 8.51945 1.06643 9.15278 2.33977Z" fill="#FDD013"/>
</svg>
