<svg width="44" height="48" viewBox="0 0 44 48" fill="none" xmlns="http://www.w3.org/2000/svg">
<path fillRule="evenodd" clipRule="evenodd" d="M13.7001 -0.00598145C12.374 -0.00598145 11.1023 0.520803 10.1646 1.45848C9.22689 2.39617 8.70011 3.66794 8.70011 4.99402V22.094H5.01011C0.82011 22.094 -1.51189 26.938 1.10211 30.214L13.7921 46.118C14.2604 46.7052 14.8551 47.1794 15.5318 47.5053C16.2085 47.8312 16.95 48.0004 17.7011 48.0004C18.4522 48.0004 19.1937 47.8312 19.8704 47.5053C20.5471 47.1794 21.1418 46.7052 21.6101 46.118L28.1801 37.882C30.2174 38.147 32.2881 37.9604 34.2452 37.3353C36.2023 36.7103 37.9978 35.6622 39.5044 34.2653C41.011 32.8685 42.1917 31.1572 42.9627 29.2529C43.7337 27.3486 44.0761 25.2979 43.9657 23.2464C43.8552 21.1949 43.2946 19.1928 42.3236 17.3823C41.3526 15.5717 39.9951 13.9971 38.3472 12.7701C36.6994 11.5431 34.8017 10.6937 32.7888 10.2824C30.776 9.8711 28.6972 9.90783 26.7001 10.39V4.99602C26.7001 3.66994 26.1733 2.39817 25.2356 1.46048C24.298 0.522803 23.0262 -0.00398145 21.7001 -0.00398145L13.7001 -0.00598145ZM13.7001 1.99402C12.9045 1.99402 12.1414 2.31009 11.5788 2.8727C11.0162 3.43531 10.7001 4.19837 10.7001 4.99402V23.094C10.7001 23.3592 10.5948 23.6136 10.4072 23.8011C10.2197 23.9887 9.96533 24.094 9.70011 24.094H5.01011C2.49611 24.094 1.09611 27 2.66411 28.966L15.3561 44.872C15.6371 45.2242 15.9939 45.5086 16.3998 45.704C16.8058 45.8994 17.2506 46.0009 17.7011 46.0009C18.1517 46.0009 18.5964 45.8994 19.0024 45.704C19.4084 45.5086 19.7651 45.2242 20.0461 44.872L25.9921 37.418C23.2169 36.5877 20.7674 34.9172 18.981 32.6368C17.1947 30.3564 16.1593 27.5782 16.0176 24.6849C15.8759 21.7916 16.6348 18.9255 18.1898 16.4814C19.7448 14.0374 22.0193 12.1356 24.7001 11.038V4.99402C24.7001 4.19837 24.384 3.43531 23.8214 2.8727C23.2588 2.31009 22.4958 1.99402 21.7001 1.99402H13.7001ZM30.0001 36C33.1827 36 36.235 34.7357 38.4854 32.4853C40.7358 30.2349 42.0001 27.1826 42.0001 24C42.0001 20.8174 40.7358 17.7652 38.4854 15.5147C36.235 13.2643 33.1827 12 30.0001 12C26.8175 12 23.7653 13.2643 21.5148 15.5147C19.2644 17.7652 18.0001 20.8174 18.0001 24C18.0001 27.1826 19.2644 30.2349 21.5148 32.4853C23.7653 34.7357 26.8175 36 30.0001 36Z" fill="#253359"/>
</svg>
