<svg width="45" height="48" viewBox="0 0 45 48" fill="none" xmlns="http://www.w3.org/2000/svg">
<path d="M44.0105 19.3561C44.0105 17.8436 42.78 16.6132 41.2679 16.6132H39.2453C37.7329 16.6132 36.5024 17.8436 36.5024 19.3561V22.7355L36.502 28.7666C36.502 28.7852 36.4984 28.8037 36.4913 28.8209C36.4842 28.838 36.4737 28.8537 36.4606 28.8668C36.4474 28.88 36.4318 28.8904 36.4146 28.8975C36.3974 28.9046 36.379 28.9083 36.3604 28.9083H35.5562C35.1793 28.1767 34.4162 27.6749 33.5376 27.6749H24.0432V25.4978H28.3582C29.8817 25.4978 31.3386 24.8467 32.3543 23.7114C32.8569 23.1491 33.2354 22.4873 33.4653 21.769C33.6951 21.0507 33.771 20.2921 33.6881 19.5425L32.0446 4.76953C31.7418 2.05041 29.4506 0 26.715 0H17.2957C14.5598 0 12.2689 2.05041 11.9663 4.76953L11.7158 7.02066C11.6953 7.206 11.7492 7.39193 11.8656 7.53758C11.9821 7.68322 12.1516 7.77667 12.3369 7.79737C12.5223 7.81794 12.7082 7.76407 12.8539 7.6476C12.9995 7.53114 13.0929 7.36161 13.1137 7.17628L13.3638 4.92478C13.5872 2.91909 15.2772 1.40625 17.2957 1.40625H26.7151C28.7332 1.40625 30.4237 2.91909 30.6467 4.92478L32.2903 19.6981C32.3515 20.2511 32.2955 20.8108 32.126 21.3407C31.9564 21.8706 31.6771 22.3588 31.3063 22.7736C30.9351 23.188 30.4807 23.5196 29.9727 23.7467C29.4648 23.9738 28.9147 24.0913 28.3582 24.0916H15.6522C15.0958 24.0913 14.5458 23.9737 14.0378 23.7466C13.5299 23.5195 13.0755 23.188 12.7042 22.7736C12.3334 22.3588 12.0541 21.8706 11.8846 21.3407C11.715 20.8108 11.659 20.2511 11.7202 19.6981L12.8024 9.97116C12.8204 9.78716 12.7652 9.60348 12.6488 9.45988C12.5323 9.31628 12.364 9.22432 12.1802 9.20391C11.9965 9.1835 11.8121 9.23627 11.667 9.35081C11.5219 9.46536 11.4277 9.63245 11.4049 9.81591L10.3227 19.5425C10.2397 20.2921 10.3155 21.0508 10.5453 21.7691C10.7752 22.4874 11.1538 23.1492 11.6565 23.7114C12.1597 24.2732 12.7756 24.7226 13.464 25.0304C14.1525 25.3382 14.8981 25.4975 15.6522 25.4978H19.9676V27.6749H10.4729C9.59475 27.6749 8.83116 28.1767 8.45437 28.9083H7.65019C7.61262 28.9083 7.57659 28.8933 7.55001 28.8668C7.52344 28.8402 7.50849 28.8042 7.50844 28.7666L7.50806 22.7355V19.3561C7.50806 17.8436 6.27759 16.6132 4.76512 16.6132H2.74294C1.23047 16.6132 0 17.8436 0 19.3561C0 21.3886 1.49344 23.0789 3.44062 23.3881V28.7665C3.44062 31.088 5.32912 32.9762 7.65019 32.9762H9.59831C10.2993 33.5798 11.2104 33.9448 12.2055 33.9448H19.9676V40.1148H13.3817C10.1572 40.1148 7.53403 42.7379 7.53403 45.9624C7.53403 47.0859 8.44809 48 9.57169 48C10.6956 48 11.6096 47.0859 11.6096 45.9624C11.6096 44.985 12.4043 44.1899 13.3817 44.1899H19.9676V45.9624C19.9676 47.0859 20.8817 48 22.0053 48C23.1292 48 24.0432 47.0859 24.0432 45.9624V44.1899H30.6292C31.6062 44.1899 32.4012 44.9849 32.4012 45.9621C32.4012 47.0856 33.3153 48 34.4389 48C35.5627 48 36.4768 47.0856 36.4768 45.9621C36.4768 42.7375 33.8533 40.1144 30.6292 40.1144H24.0432V33.9444H25.4147C25.8032 33.9444 26.1178 33.6299 26.1178 33.2413C26.1178 33.0548 26.0437 32.876 25.9119 32.7441C25.78 32.6123 25.6012 32.5382 25.4147 32.5382H12.2053C10.7746 32.5382 9.61031 31.374 9.61031 29.9432C9.61031 29.4679 9.9975 29.0808 10.4728 29.0808H33.5375C34.0132 29.0808 34.4 29.468 34.4 29.9433C34.4 31.374 33.2362 32.5383 31.805 32.5383H28.2296C28.0431 32.5383 27.8643 32.6124 27.7324 32.7442C27.6006 32.8761 27.5265 33.0549 27.5265 33.2414C27.5265 33.4279 27.6006 33.6067 27.7324 33.7386C27.8643 33.8705 28.0431 33.9445 28.2296 33.9445H31.805C32.7999 33.9445 33.7115 33.5794 34.4121 32.9762H36.3602C38.6816 32.9762 40.5698 31.0877 40.5698 28.7666V23.3877C42.5174 23.079 44.0105 21.3886 44.0105 19.3561ZM23.3401 41.5209H30.6292C33.078 41.5209 35.0706 43.5131 35.0706 45.9623C35.0706 46.3105 34.7871 46.5937 34.4389 46.5937C34.0907 46.5937 33.8075 46.3105 33.8075 45.9623C33.8075 44.2096 32.3815 42.7836 30.6292 42.7836H23.3401C23.1536 42.7836 22.9748 42.8576 22.8429 42.9895C22.711 43.1214 22.637 43.3002 22.637 43.4867V45.9623C22.637 46.3105 22.3535 46.5937 22.0053 46.5937C21.6571 46.5937 21.3739 46.3105 21.3739 45.9623V43.4867C21.3739 43.0986 21.0589 42.7836 20.6707 42.7836H13.3817C11.629 42.7836 10.2034 44.2096 10.2034 45.962C10.2034 46.3102 9.91987 46.5937 9.57169 46.5937C9.2235 46.5937 8.94028 46.3102 8.94028 45.962C8.94028 43.5131 10.9325 41.5206 13.3817 41.5206H20.6707C20.8572 41.5206 21.0361 41.4465 21.1679 41.3146C21.2998 41.1828 21.3739 41.0039 21.3739 40.8174V33.9443H22.637V40.8174C22.6369 40.9098 22.6551 41.0013 22.6904 41.0866C22.7257 41.172 22.7775 41.2495 22.8428 41.3149C22.9081 41.3802 22.9856 41.432 23.0709 41.4674C23.1563 41.5027 23.2477 41.5209 23.3401 41.5209ZM1.40625 19.3561C1.40625 18.6189 2.00578 18.0194 2.74294 18.0194H4.76512C5.50228 18.0194 6.10181 18.6189 6.10181 19.3561V22.0324H4.08244C2.60681 22.0324 1.40625 20.8315 1.40625 19.3561ZM4.84687 28.7666V23.4386H6.10219V28.7666C6.10219 29.6202 6.7965 30.3145 7.65019 30.3145H8.22141C8.26143 30.7483 8.37244 31.1725 8.55 31.5703H7.65028C6.10444 31.5699 4.84687 30.3124 4.84687 28.7666ZM21.3739 25.4978H22.637V27.6749H21.3739V25.4978ZM36.3604 31.57H35.4606C35.6382 31.1724 35.7493 30.7482 35.7894 30.3145H36.3604C37.214 30.3145 37.9083 29.6202 37.9083 28.7666L37.9087 23.4382H39.1637V28.7666C39.1637 30.3124 37.9061 31.5699 36.3604 31.5699V31.57ZM39.9279 22.0324H37.9087V19.3561C37.9087 18.6189 38.5083 18.0194 39.2451 18.0194H41.2677C42.0049 18.0194 42.6043 18.6189 42.6043 19.3561C42.6043 20.8315 41.4038 22.0324 39.9279 22.0324Z" fill="#253359"/>
</svg>
