<svg width="40" height="44" viewBox="0 0 40 44" fill="none" xmlns="http://www.w3.org/2000/svg">
<path d="M17 38C17 38.2652 16.8946 38.5196 16.7071 38.7071C16.5196 38.8946 16.2652 39 16 39H5C4.73478 39 4.48043 38.8946 4.29289 38.7071C4.10536 38.5196 4 38.2652 4 38C4 37.7348 4.10536 37.4804 4.29289 37.2929C4.48043 37.1054 4.73478 37 5 37H16C16.2652 37 16.5196 37.1054 16.7071 37.2929C16.8946 37.4804 17 37.7348 17 38ZM16 33H5C4.73478 33 4.48043 33.1054 4.29289 33.2929C4.10536 33.4804 4 33.7348 4 34C4 34.2652 4.10536 34.5196 4.29289 34.7071C4.48043 34.8946 4.73478 35 5 35H16C16.2652 35 16.5196 34.8946 16.7071 34.7071C16.8946 34.5196 17 34.2652 17 34C17 33.7348 16.8946 33.4804 16.7071 33.2929C16.5196 33.1054 16.2652 33 16 33ZM16 9H5C4.73478 9 4.48043 9.10536 4.29289 9.29289C4.10536 9.48043 4 9.73479 4 10C4 10.2652 4.10536 10.5196 4.29289 10.7071C4.48043 10.8946 4.73478 11 5 11H16C16.2652 11 16.5196 10.8946 16.7071 10.7071C16.8946 10.5196 17 10.2652 17 10C17 9.73479 16.8946 9.48043 16.7071 9.29289C16.5196 9.10536 16.2652 9 16 9ZM16 5H5C4.73478 5 4.48043 5.10536 4.29289 5.29289C4.10536 5.48043 4 5.73478 4 6C4 6.26522 4.10536 6.51957 4.29289 6.70711C4.48043 6.89464 4.73478 7 5 7H16C16.2652 7 16.5196 6.89464 16.7071 6.70711C16.8946 6.51957 17 6.26522 17 6C17 5.73478 16.8946 5.48043 16.7071 5.29289C16.5196 5.10536 16.2652 5 16 5ZM5 26C5.26522 26 5.51957 25.8946 5.70711 25.7071C5.89464 25.5196 6 25.2652 6 25V19C6 18.7348 5.89464 18.4804 5.70711 18.2929C5.51957 18.1054 5.26522 18 5 18C4.73478 18 4.48043 18.1054 4.29289 18.2929C4.10536 18.4804 4 18.7348 4 19V25C4 25.2652 4.10536 25.5196 4.29289 25.7071C4.48043 25.8946 4.73478 26 5 26ZM40 1V43C40 43.2652 39.8946 43.5196 39.7071 43.7071C39.5196 43.8946 39.2652 44 39 44H1C0.734784 44 0.48043 43.8946 0.292893 43.7071C0.105357 43.5196 0 43.2652 0 43V1C0 0.734784 0.105357 0.48043 0.292893 0.292893C0.48043 0.105357 0.734784 0 1 0H39C39.2652 0 39.5196 0.105357 39.7071 0.292893C39.8946 0.48043 40 0.734784 40 1ZM38 2H21V21H38V2ZM2 42H19V2H2V42ZM38 42V23H21V42H38ZM28 15H35C35.2652 15 35.5196 14.8946 35.7071 14.7071C35.8946 14.5196 36 14.2652 36 14C36 13.7348 35.8946 13.4804 35.7071 13.2929C35.5196 13.1054 35.2652 13 35 13H28C27.7348 13 27.4804 13.1054 27.2929 13.2929C27.1054 13.4804 27 13.7348 27 14C27 14.2652 27.1054 14.5196 27.2929 14.7071C27.4804 14.8946 27.7348 15 28 15ZM28 11H35C35.2652 11 35.5196 10.8946 35.7071 10.7071C35.8946 10.5196 36 10.2652 36 10C36 9.73479 35.8946 9.48043 35.7071 9.29289C35.5196 9.10536 35.2652 9 35 9H28C27.7348 9 27.4804 9.10536 27.2929 9.29289C27.1054 9.48043 27 9.73479 27 10C27 10.2652 27.1054 10.5196 27.2929 10.7071C27.4804 10.8946 27.7348 11 28 11ZM24 15C24.2652 15 24.5196 14.8946 24.7071 14.7071C24.8946 14.5196 25 14.2652 25 14V10C25 9.73479 24.8946 9.48043 24.7071 9.29289C24.5196 9.10536 24.2652 9 24 9C23.7348 9 23.4804 9.10536 23.2929 9.29289C23.1054 9.48043 23 9.73479 23 10V14C23 14.2652 23.1054 14.5196 23.2929 14.7071C23.4804 14.8946 23.7348 15 24 15ZM35 33H28C27.7348 33 27.4804 33.1054 27.2929 33.2929C27.1054 33.4804 27 33.7348 27 34C27 34.2652 27.1054 34.5196 27.2929 34.7071C27.4804 34.8946 27.7348 35 28 35H35C35.2652 35 35.5196 34.8946 35.7071 34.7071C35.8946 34.5196 36 34.2652 36 34C36 33.7348 35.8946 33.4804 35.7071 33.2929C35.5196 33.1054 35.2652 33 35 33ZM35 29H28C27.7348 29 27.4804 29.1054 27.2929 29.2929C27.1054 29.4804 27 29.7348 27 30C27 30.2652 27.1054 30.5196 27.2929 30.7071C27.4804 30.8946 27.7348 31 28 31H35C35.2652 31 35.5196 30.8946 35.7071 30.7071C35.8946 30.5196 36 30.2652 36 30C36 29.7348 35.8946 29.4804 35.7071 29.2929C35.5196 29.1054 35.2652 29 35 29ZM24 29C23.7348 29 23.4804 29.1054 23.2929 29.2929C23.1054 29.4804 23 29.7348 23 30V34C23 34.2652 23.1054 34.5196 23.2929 34.7071C23.4804 34.8946 23.7348 35 24 35C24.2652 35 24.5196 34.8946 24.7071 34.7071C24.8946 34.5196 25 34.2652 25 34V30C25 29.7348 24.8946 29.4804 24.7071 29.2929C24.5196 29.1054 24.2652 29 24 29Z" fill="#253359"/>
</svg>
