<svg width="24" height="25" viewBox="0 0 24 25" fill="none" xmlns="http://www.w3.org/2000/svg">
<path fill-rule="evenodd" clip-rule="evenodd" d="M2.98096 5.00928C3.39517 5.00928 3.73096 5.34506 3.73096 5.75928V9.50928H7.48096C7.89517 9.50928 8.23096 9.84506 8.23096 10.2593C8.23096 10.6735 7.89517 11.0093 7.48096 11.0093H2.98096C2.56674 11.0093 2.23096 10.6735 2.23096 10.2593V5.75928C2.23096 5.34506 2.56674 5.00928 2.98096 5.00928Z" fill="#44C0ED"/>
<path fill-rule="evenodd" clip-rule="evenodd" d="M10.246 4.08571C11.992 3.73784 13.802 3.91564 15.4469 4.59662C17.0919 5.27759 18.4979 6.43114 19.4872 7.91134C20.4764 9.39154 21.0045 11.1319 21.0045 12.9122C21.0045 14.6926 20.4764 16.4329 19.4872 17.9131C18.4979 19.3933 17.0919 20.5469 15.4469 21.2279C13.802 21.9088 11.992 22.0866 10.246 21.7388C8.49993 21.3909 6.89629 20.533 5.63791 19.2736C5.34514 18.9806 5.34533 18.5057 5.63834 18.2129C5.93136 17.9202 6.40623 17.9204 6.699 18.2134C7.74765 19.2629 9.08402 19.9778 10.539 20.2677C11.9941 20.5576 13.5024 20.4094 14.8732 19.8419C16.244 19.2744 17.4157 18.3132 18.2401 17.0797C19.0644 15.8461 19.5045 14.3959 19.5045 12.9122C19.5045 11.4286 19.0644 9.97832 18.2401 8.74482C17.4157 7.51132 16.244 6.55003 14.8732 5.98255C13.5024 5.41508 11.9941 5.26691 10.539 5.55679C9.08402 5.84668 7.74765 6.56159 6.699 7.6111L6.69801 7.6121L3.51051 10.7902C3.21718 11.0827 2.74231 11.082 2.44985 10.7887C2.15738 10.4953 2.15808 10.0205 2.45141 9.728L5.63791 6.55087C5.63808 6.5507 5.63825 6.55053 5.63842 6.55037C6.89672 5.29123 8.50016 4.43352 10.246 4.08571Z" fill="#44C0ED"/>
</svg>
