<svg width="64" height="64" viewBox="0 0 64 64" fill="none" xmlns="http://www.w3.org/2000/svg">
<g clip-path="url(#clip0_60737_19998)">
<rect width="64" height="64" rx="32" fill="#184271"/>
<path d="M34.7702 2.11463C33.8555 1.95498 32.9286 1.87481 32 1.875C27.5825 1.875 23.5825 3.66625 20.6863 6.56125C17.7913 9.4575 16 13.4575 16 17.875V20.265H34.7702V2.11463Z" fill="#656489"/>
<path d="M48 17.875V20.265H32V1.875C40.8363 1.875 48 9.03875 48 17.875Z" fill="#3D3A66"/>
<path d="M34.7702 2.11462L32 0C22.1438 0 14.125 8.01875 14.125 17.875V20.265H17.875V17.875C17.875 10.0863 24.2113 3.75 32 3.75L34.7702 2.11462Z" fill="#3B9DFF"/>
<path d="M49.875 17.875V20.265H46.125V17.875C46.125 10.0863 39.7888 3.75 32 3.75V0C41.8562 0 49.875 8.01875 49.875 17.875Z" fill="#656DE0"/>
<path d="M35.096 45.7675H18.43L8.72375 48.7262C7.39032 49.1324 6.17592 49.8573 5.18559 50.8383C4.19527 51.8192 3.45884 53.0267 3.04 54.3562L0 64H11.43L13.305 62.125L15.18 64H32L35.096 45.7675Z" fill="#F9F9F9"/>
<path d="M64 64H52.57L50.695 62.125L48.82 64H32V45.7675H45.57L55.2762 48.7262C56.6094 49.1325 57.8236 49.8573 58.8139 50.838C59.8041 51.8187 60.5407 53.0258 60.96 54.355C62.2525 58.455 64 64 64 64Z" fill="#E7E3FA"/>
<path d="M35.0957 45.7141L31.9997 47.0625L24.6634 43.8675L18.4297 45.7675L23.5909 55.5912L31.9997 51.3875L35.0957 45.7141Z" fill="#3B9DFF"/>
<path d="M45.57 45.7675L40.4087 55.5912L32 51.3875V47.0625L39.3363 43.8675L45.57 45.7675Z" fill="#656DE0"/>
<path d="M35.0963 45.7675L32.0003 38.3425L25.9278 38.3412L24.6641 43.8675L32.0003 51.3875L35.0963 45.7675Z" fill="#FFC9A0"/>
<path d="M39.3363 43.8675L32 51.3875V38.3425L38.0737 38.345L39.3363 43.8675Z" fill="#FFA787"/>
<path d="M48.8203 55.5914H52.5703V64H48.8203V55.5914Z" fill="#D3CDF0"/>
<path d="M11.4297 55.5914H15.1797V64H11.4297V55.5914Z" fill="#E7E3FA"/>
<path d="M19.9933 18.3903H15.9966C13.7894 18.3903 12 20.1796 12 22.3869V24.5385C12 26.7458 13.7894 28.5351 15.9966 28.5351H21.5214L19.9933 18.3903Z" fill="#F8C700"/>
<path d="M44.0038 18.3903H48.0004C50.2076 18.3903 51.997 20.1796 51.997 22.3869V24.5385C51.997 26.7458 50.2076 28.5351 48.0004 28.5351H42.4268L44.0038 18.3903Z" fill="#FAAA00"/>
<path d="M34.7706 25.9181L32.0004 13.18C29.8529 13.165 27.3266 12.9963 24.5316 12.5312L19.9941 18.39L20.0004 28.535C20.0004 29.0738 20.0354 29.605 20.1054 30.125C20.1929 30.79 21.8479 32.065 21.8479 32.065C21.8479 32.065 20.9641 33.2975 21.2516 33.875C23.2979 37.9113 27.3516 40.5325 32.0004 40.5388H32.0041C32.0004 40.5388 34.7706 25.9181 34.7706 25.9181Z" fill="#FFE3BB"/>
<path d="M44.0062 18.39V28.535C44.0062 35.165 38.6325 40.5388 32.0037 40.5388H32V13.18C36.61 13.2113 39.4688 12.5312 39.4688 12.5312L44.0062 18.39Z" fill="#FFC9A0"/>
<path d="M29.9907 30.125V33.875H21.2507C20.6633 32.6972 20.276 31.4299 20.1045 30.125H29.9907Z" fill="#656489"/>
</g>
<defs>
<clipPath id="clip0_60737_19998">
<rect width="64" height="64" rx="32" fill="white"/>
</clipPath>
</defs>
</svg>
