<svg width="256" height="266" viewBox="0 0 256 266" fill="none" xmlns="http://www.w3.org/2000/svg">
<g opacity="0.48">
<path d="M230.88 19.6024L227.37 15.9268H216.329L212.816 19.6024L221.848 32.1388L230.88 19.6024ZM164.641 19.6024L161.128 15.9268H150.087L146.577 19.6024L155.609 32.1388L164.641 19.6024ZM98.3998 19.6024L94.8893 15.9268H83.8482L80.3353 19.6024L89.3675 32.1388L98.3998 19.6024ZM32.1607 19.6024L28.6478 15.9268H17.6091L14.0962 19.6024L23.1285 32.1388L32.1607 19.6024ZM230.88 88.4289L227.37 84.7533H216.329L212.816 88.4289L221.848 100.963L230.88 88.4289ZM164.641 88.4289L161.128 84.7533H150.087L146.577 88.4289L155.609 100.963L164.641 88.4289ZM98.3998 88.4289L94.8893 84.7533H83.8482L80.3353 88.4289L89.3675 100.963L98.3998 88.4289ZM32.1607 88.4289L28.6478 84.7533H17.6091L14.0962 88.4289L23.1285 100.963L32.1607 88.4289ZM230.88 157.255L227.37 153.582H216.329L212.816 157.255L221.848 169.792L230.88 157.255ZM164.641 157.255L161.128 153.582H150.087L146.577 157.255L155.609 169.792L164.641 157.255ZM98.3998 157.255L94.8893 153.582H83.8482L80.3353 157.255L89.3675 169.792L98.3998 157.255ZM32.1607 157.255L28.6478 153.582H17.6091L14.0962 157.255L23.1285 169.792L32.1607 157.255ZM230.88 226.082L227.37 222.406H216.329L212.816 226.082L221.848 238.618L230.88 226.082ZM197.762 200.531L194.249 204.206H183.208L179.698 200.531L188.73 187.994L197.762 200.531ZM131.523 200.531L128.01 204.206H116.969L113.456 200.531L122.488 187.994L131.523 200.531ZM65.2815 200.531L61.771 204.206H50.7299L47.2169 200.531L56.2492 187.994L65.2815 200.531ZM197.762 131.704L194.249 135.38H183.208L179.698 131.704L188.73 119.168L197.762 131.704ZM131.523 131.704L128.01 135.38H116.969L113.456 131.704L122.488 119.168L131.523 131.704ZM65.2815 131.704L61.771 135.38H50.7299L47.2169 131.704L56.2492 119.168L65.2815 131.704ZM197.762 62.8777L194.249 66.5533H183.208L179.698 62.8777L188.73 50.3413L197.762 62.8777ZM131.523 62.8777L128.01 66.5533H116.969L113.456 62.8777L122.488 50.3413L131.523 62.8777ZM65.2815 62.8777L61.771 66.5533H50.7299L47.2169 62.8777L56.2492 50.3413L65.2815 62.8777ZM164.641 226.082L161.128 222.406H150.087L146.577 226.082L155.609 238.618L164.641 226.082ZM98.3998 226.082L94.8893 222.406H83.8482L80.3353 226.082L89.3675 238.618L98.3998 226.082ZM32.1607 226.082L28.6478 222.406H17.6091L14.0962 226.082L23.1285 238.618L32.1607 226.082Z" fill="#B4E6F8"/>
</g>
</svg>
