<svg width="156" height="156" viewBox="0 0 156 156" fill="none" xmlns="http://www.w3.org/2000/svg">
<g opacity="0.48">
<path d="M140.693 11.4962L138.554 9.34058H131.825L129.685 11.4962L135.189 18.8484L140.693 11.4962ZM100.328 11.4962L98.1876 9.34058H91.4594L89.3202 11.4962L94.8242 18.8484L100.328 11.4962ZM59.9624 11.4962L57.8231 9.34058H51.095L48.9543 11.4962L54.4583 18.8484L59.9624 11.4962ZM19.5979 11.4962L17.4572 9.34058H10.7306L8.58984 11.4962L14.0939 18.8484L19.5979 11.4962ZM140.693 51.8607L138.554 49.705H131.825L129.685 51.8607L135.189 59.2113L140.693 51.8607ZM100.328 51.8607L98.1876 49.705H91.4594L89.3202 51.8607L94.8242 59.2113L100.328 51.8607ZM59.9624 51.8607L57.8231 49.705H51.095L48.9543 51.8607L54.4583 59.2113L59.9624 51.8607ZM19.5979 51.8607L17.4572 49.705H10.7306L8.58984 51.8607L14.0939 59.2113L19.5979 51.8607ZM140.693 92.2251L138.554 90.0709H131.825L129.685 92.2251L135.189 99.5773L140.693 92.2251ZM100.328 92.2251L98.1876 90.0709H91.4594L89.3202 92.2251L94.8242 99.5773L100.328 92.2251ZM59.9624 92.2251L57.8231 90.0709H51.095L48.9543 92.2251L54.4583 99.5773L59.9624 92.2251ZM19.5979 92.2251L17.4572 90.0709H10.7306L8.58984 92.2251L14.0939 99.5773L19.5979 92.2251ZM140.693 132.59L138.554 130.434H131.825L129.685 132.59L135.189 139.942L140.693 132.59ZM120.511 117.605L118.371 119.76H111.642L109.503 117.605L115.007 110.252L120.511 117.605ZM80.1468 117.605L78.0061 119.76H71.278L69.1372 117.605L74.6413 110.252L80.1468 117.605ZM39.7809 117.605L37.6417 119.76H30.9135L28.7728 117.605L34.2768 110.252L39.7809 117.605ZM120.511 77.2401L118.371 79.3958H111.642L109.503 77.2401L115.007 69.888L120.511 77.2401ZM80.1468 77.2401L78.0061 79.3958H71.278L69.1372 77.2401L74.6413 69.888L80.1468 77.2401ZM39.7809 77.2401L37.6417 79.3958H30.9135L28.7728 77.2401L34.2768 69.888L39.7809 77.2401ZM120.511 36.8757L118.371 39.0313H111.642L109.503 36.8757L115.007 29.5235L120.511 36.8757ZM80.1468 36.8757L78.0061 39.0313H71.278L69.1372 36.8757L74.6413 29.5235L80.1468 36.8757ZM39.7809 36.8757L37.6417 39.0313H30.9135L28.7728 36.8757L34.2768 29.5235L39.7809 36.8757ZM100.328 132.59L98.1876 130.434H91.4594L89.3202 132.59L94.8242 139.942L100.328 132.59ZM59.9624 132.59L57.8231 130.434H51.095L48.9543 132.59L54.4583 139.942L59.9624 132.59ZM19.5979 132.59L17.4572 130.434H10.7306L8.58984 132.59L14.0939 139.942L19.5979 132.59Z" fill="#B4E6F8"/>
</g>
</svg>
