<svg width="256" height="254" viewBox="0 0 256 254" fill="none" xmlns="http://www.w3.org/2000/svg">
<g opacity="0.48">
<path d="M230.88 18.8655L227.37 15.328H216.329L212.816 18.8655L221.848 30.9305L230.88 18.8655ZM164.641 18.8655L161.128 15.328H150.087L146.577 18.8655L155.609 30.9305L164.641 18.8655ZM98.3998 18.8655L94.8893 15.328H83.8482L80.3353 18.8655L89.3675 30.9305L98.3998 18.8655ZM32.1607 18.8655L28.6478 15.328H17.6091L14.0962 18.8655L23.1285 30.9305L32.1607 18.8655ZM230.88 85.1046L227.37 81.5671H216.329L212.816 85.1046L221.848 97.1672L230.88 85.1046ZM164.641 85.1046L161.128 81.5671H150.087L146.577 85.1046L155.609 97.1672L164.641 85.1046ZM98.3998 85.1046L94.8893 81.5671H83.8482L80.3353 85.1046L89.3675 97.1672L98.3998 85.1046ZM32.1607 85.1046L28.6478 81.5671H17.6091L14.0962 85.1046L23.1285 97.1672L32.1607 85.1046ZM230.88 151.344L227.37 147.809H216.329L212.816 151.344L221.848 163.409L230.88 151.344ZM164.641 151.344L161.128 147.809H150.087L146.577 151.344L155.609 163.409L164.641 151.344ZM98.3998 151.344L94.8893 147.809H83.8482L80.3353 151.344L89.3675 163.409L98.3998 151.344ZM32.1607 151.344L28.6478 147.809H17.6091L14.0962 151.344L23.1285 163.409L32.1607 151.344ZM230.88 217.583L227.37 214.045H216.329L212.816 217.583L221.848 229.648L230.88 217.583ZM197.762 192.992L194.249 196.529H183.208L179.698 192.992L188.73 180.927L197.762 192.992ZM131.523 192.992L128.01 196.529H116.969L113.456 192.992L122.488 180.927L131.523 192.992ZM65.2815 192.992L61.771 196.529H50.7299L47.2169 192.992L56.2492 180.927L65.2815 192.992ZM197.762 126.753L194.249 130.29H183.208L179.698 126.753L188.73 114.688L197.762 126.753ZM131.523 126.753L128.01 130.29H116.969L113.456 126.753L122.488 114.688L131.523 126.753ZM65.2815 126.753L61.771 130.29H50.7299L47.2169 126.753L56.2492 114.688L65.2815 126.753ZM197.762 60.5138L194.249 64.0513H183.208L179.698 60.5138L188.73 48.4488L197.762 60.5138ZM131.523 60.5138L128.01 64.0513H116.969L113.456 60.5138L122.488 48.4488L131.523 60.5138ZM65.2815 60.5138L61.771 64.0513H50.7299L47.2169 60.5138L56.2492 48.4488L65.2815 60.5138ZM164.641 217.583L161.128 214.045H150.087L146.577 217.583L155.609 229.648L164.641 217.583ZM98.3998 217.583L94.8893 214.045H83.8482L80.3353 217.583L89.3675 229.648L98.3998 217.583ZM32.1607 217.583L28.6478 214.045H17.6091L14.0962 217.583L23.1285 229.648L32.1607 217.583Z" fill="#C9E2FF"/>
</g>
</svg>
