<svg width="133" height="131" viewBox="0 0 133 131" fill="none" xmlns="http://www.w3.org/2000/svg">
<path d="M132.693 2.49621L130.554 0.340576H123.825L121.685 2.49621L127.189 9.84837L132.693 2.49621ZM92.3283 2.49621L90.1876 0.340576H83.4594L81.3202 2.49621L86.8242 9.84837L92.3283 2.49621ZM51.9624 2.49621L49.8231 0.340576H43.095L40.9543 2.49621L46.4583 9.84837L51.9624 2.49621ZM11.5979 2.49621L9.45721 0.340576H2.73055L0.589844 2.49621L6.09388 9.84837L11.5979 2.49621ZM132.693 42.8607L130.554 40.705H123.825L121.685 42.8607L127.189 50.2113L132.693 42.8607ZM92.3283 42.8607L90.1876 40.705H83.4594L81.3202 42.8607L86.8242 50.2113L92.3283 42.8607ZM51.9624 42.8607L49.8231 40.705H43.095L40.9543 42.8607L46.4583 50.2113L51.9624 42.8607ZM11.5979 42.8607L9.45721 40.705H2.73055L0.589844 42.8607L6.09388 50.2113L11.5979 42.8607ZM132.693 83.2251L130.554 81.0709H123.825L121.685 83.2251L127.189 90.5773L132.693 83.2251ZM92.3283 83.2251L90.1876 81.0709H83.4594L81.3202 83.2251L86.8242 90.5773L92.3283 83.2251ZM51.9624 83.2251L49.8231 81.0709H43.095L40.9543 83.2251L46.4583 90.5773L51.9624 83.2251ZM11.5979 83.2251L9.45721 81.0709H2.73055L0.589844 83.2251L6.09388 90.5773L11.5979 83.2251ZM132.693 123.59L130.554 121.434H123.825L121.685 123.59L127.189 130.942L132.693 123.59ZM112.511 108.605L110.371 110.76H103.642L101.503 108.605L107.007 101.252L112.511 108.605ZM72.1468 108.605L70.0061 110.76H63.278L61.1372 108.605L66.6413 101.252L72.1468 108.605ZM31.7809 108.605L29.6417 110.76H22.9135L20.7728 108.605L26.2768 101.252L31.7809 108.605ZM112.511 68.2401L110.371 70.3958H103.642L101.503 68.2401L107.007 60.888L112.511 68.2401ZM72.1468 68.2401L70.0061 70.3958H63.278L61.1372 68.2401L66.6413 60.888L72.1468 68.2401ZM31.7809 68.2401L29.6417 70.3958H22.9135L20.7728 68.2401L26.2768 60.888L31.7809 68.2401ZM112.511 27.8757L110.371 30.0313H103.642L101.503 27.8757L107.007 20.5235L112.511 27.8757ZM72.1468 27.8757L70.0061 30.0313H63.278L61.1372 27.8757L66.6413 20.5235L72.1468 27.8757ZM31.7809 27.8757L29.6417 30.0313H22.9135L20.7728 27.8757L26.2768 20.5235L31.7809 27.8757ZM92.3283 123.59L90.1876 121.434H83.4594L81.3202 123.59L86.8242 130.942L92.3283 123.59ZM51.9624 123.59L49.8231 121.434H43.095L40.9543 123.59L46.4583 130.942L51.9624 123.59ZM11.5979 123.59L9.45721 121.434H2.73055L0.589844 123.59L6.09388 130.942L11.5979 123.59Z" fill="#B4E6F8"/>
</svg>
