<svg width="217" height="215" viewBox="0 0 217 215" fill="none" xmlns="http://www.w3.org/2000/svg">
<path d="M216.88 3.86546L213.37 0.328003H202.329L198.816 3.86546L207.848 15.9305L216.88 3.86546ZM150.641 3.86546L147.128 0.328003H136.087L132.577 3.86546L141.609 15.9305L150.641 3.86546ZM84.3998 3.86546L80.8893 0.328003H69.8482L66.3353 3.86546L75.3675 15.9305L84.3998 3.86546ZM18.1607 3.86546L14.6478 0.328003H3.60915L0.0961914 3.86546L9.12846 15.9305L18.1607 3.86546ZM216.88 70.1045L213.37 66.5671H202.329L198.816 70.1045L207.848 82.1672L216.88 70.1045ZM150.641 70.1045L147.128 66.5671H136.087L132.577 70.1045L141.609 82.1672L150.641 70.1045ZM84.3998 70.1045L80.8893 66.5671H69.8482L66.3353 70.1045L75.3675 82.1672L84.3998 70.1045ZM18.1607 70.1045L14.6478 66.5671H3.60915L0.0961914 70.1045L9.12846 82.1672L18.1607 70.1045ZM216.88 136.344L213.37 132.809H202.329L198.816 136.344L207.848 148.409L216.88 136.344ZM150.641 136.344L147.128 132.809H136.087L132.577 136.344L141.609 148.409L150.641 136.344ZM84.3998 136.344L80.8893 132.809H69.8482L66.3353 136.344L75.3675 148.409L84.3998 136.344ZM18.1607 136.344L14.6478 132.809H3.60915L0.0961914 136.344L9.12846 148.409L18.1607 136.344ZM216.88 202.583L213.37 199.045H202.329L198.816 202.583L207.848 214.648L216.88 202.583ZM183.762 177.992L180.249 181.529H169.208L165.698 177.992L174.73 165.927L183.762 177.992ZM117.523 177.992L114.01 181.529H102.969L99.456 177.992L108.488 165.927L117.523 177.992ZM51.2815 177.992L47.771 181.529H36.7299L33.2169 177.992L42.2492 165.927L51.2815 177.992ZM183.762 111.753L180.249 115.29H169.208L165.698 111.753L174.73 99.6879L183.762 111.753ZM117.523 111.753L114.01 115.29H102.969L99.456 111.753L108.488 99.6879L117.523 111.753ZM51.2815 111.753L47.771 115.29H36.7299L33.2169 111.753L42.2492 99.6879L51.2815 111.753ZM183.762 45.5138L180.249 49.0513H169.208L165.698 45.5138L174.73 33.4488L183.762 45.5138ZM117.523 45.5138L114.01 49.0513H102.969L99.456 45.5138L108.488 33.4488L117.523 45.5138ZM51.2815 45.5138L47.771 49.0513H36.7299L33.2169 45.5138L42.2492 33.4488L51.2815 45.5138ZM150.641 202.583L147.128 199.045H136.087L132.577 202.583L141.609 214.648L150.641 202.583ZM84.3998 202.583L80.8893 199.045H69.8482L66.3353 202.583L75.3675 214.648L84.3998 202.583ZM18.1607 202.583L14.6478 199.045H3.60915L0.0961914 202.583L9.12846 214.648L18.1607 202.583Z" fill="#E4F1FF"/>
</svg>
