<svg width="32" height="32" viewBox="0 0 32 32" fill="none" xmlns="http://www.w3.org/2000/svg">
<path d="M21.587 2.66663H10.4137C5.56033 2.66663 2.66699 5.55996 2.66699 10.4133V21.5733C2.66699 26.44 5.56033 29.3333 10.4137 29.3333H21.5737C26.427 29.3333 29.3203 26.44 29.3203 21.5866V10.4133C29.3337 5.55996 26.4403 2.66663 21.587 2.66663ZM16.0003 21.1733C13.147 21.1733 10.827 18.8533 10.827 16C10.827 13.1466 13.147 10.8266 16.0003 10.8266C18.8537 10.8266 21.1737 13.1466 21.1737 16C21.1737 18.8533 18.8537 21.1733 16.0003 21.1733ZM23.8937 9.17329C23.827 9.33329 23.7337 9.47996 23.6137 9.61329C23.4803 9.73329 23.3337 9.82663 23.1737 9.89329C23.0137 9.95996 22.8403 9.99996 22.667 9.99996C22.307 9.99996 21.9737 9.86663 21.7203 9.61329C21.6003 9.47996 21.507 9.33329 21.4403 9.17329C21.3737 9.01329 21.3337 8.83996 21.3337 8.66663C21.3337 8.49329 21.3737 8.31996 21.4403 8.15996C21.507 7.98663 21.6003 7.85329 21.7203 7.71996C22.027 7.41329 22.4937 7.26663 22.9203 7.35996C23.0137 7.37329 23.0937 7.39996 23.1737 7.43996C23.2537 7.46663 23.3337 7.50663 23.4137 7.55996C23.4803 7.59996 23.547 7.66663 23.6137 7.71996C23.7337 7.85329 23.827 7.98663 23.8937 8.15996C23.9603 8.31996 24.0003 8.49329 24.0003 8.66663C24.0003 8.83996 23.9603 9.01329 23.8937 9.17329Z" fill="#253359"/>
</svg>
