<svg width="33" height="32" viewBox="0 0 33 32" fill="none" xmlns="http://www.w3.org/2000/svg">
<path d="M16.3438 10V26.4688L2.5 25.8125V16.3125H11.3125L16.3438 10Z" fill="white"/>
<path d="M16.5 21C19.2614 21 21.5 18.7614 21.5 16C21.5 13.2386 19.2614 11 16.5 11C13.7386 11 11.5 13.2386 11.5 16C11.5 18.7614 13.7386 21 16.5 21Z" stroke="#253359" stroke-miterlimit="10" stroke-linecap="round" stroke-linejoin="round"/>
<path d="M6.5 16H4.25C2.86931 16 1.75 17.1193 1.75 18.5V23.5C1.75 24.8807 2.86931 26 4.25 26H28.75C30.1307 26 31.25 24.8807 31.25 23.5V18.5C31.25 17.1193 30.1307 16 28.75 16H26.5M11.5 7.33975L10.2513 5.177M21.5 7.33975L22.7487 5.177M16.5 6V3.5M6.5 28.5V26M26.5 28.5V26" stroke="#253359" stroke-miterlimit="10" stroke-linecap="round" stroke-linejoin="round"/>
</svg>
