<svg width="154" height="25" viewBox="0 0 154 25" fill="none" xmlns="http://www.w3.org/2000/svg">
<path d="M3.888 7.028C2.176 8.516 1.32 10.312 1.32 12.416C1.32 13.64 1.572 14.692 2.076 15.572C2.588 16.452 3.192 17.196 3.888 17.804L3.324 18.5C2.5 17.844 1.796 17 1.212 15.968C0.636 14.944 0.348 13.76 0.348 12.416C0.348 11.032 0.632 9.84 1.2 8.84C1.776 7.84 2.484 7.004 3.324 6.332L3.888 7.028ZM6.65888 12.572C6.21088 13.516 5.98688 14.34 5.98688 15.044C5.98688 15.804 6.21088 16.384 6.65888 16.784C7.10688 17.184 7.75088 17.384 8.59088 17.384C9.23888 17.384 9.77888 17.264 10.2109 17.024C10.6509 16.792 10.9749 16.492 11.1829 16.124C11.3909 15.764 11.4949 15.384 11.4949 14.984C11.4949 14.32 11.2749 13.32 10.8349 11.984L11.7229 11.576C11.9549 12.312 12.1269 12.948 12.2389 13.484C12.3509 14.012 12.4069 14.512 12.4069 14.984C12.4069 15.56 12.2549 16.116 11.9509 16.652C11.6549 17.188 11.2189 17.624 10.6429 17.96C10.0669 18.296 9.38288 18.464 8.59088 18.464C7.83088 18.464 7.18288 18.312 6.64688 18.008C6.11888 17.704 5.71888 17.3 5.44688 16.796C5.18288 16.292 5.05088 15.74 5.05088 15.14C5.05088 14.66 5.13088 14.156 5.29088 13.628C5.45088 13.1 5.63488 12.62 5.84288 12.188L6.65888 12.572ZM8.85488 10.916L9.70688 11.768L8.85488 12.62L8.00288 11.768L8.85488 10.916ZM13.7572 15.428C13.8132 14.948 13.8412 14.136 13.8412 12.992C13.8412 11.904 13.8172 10.78 13.7692 9.62C13.7292 8.452 13.6812 7.696 13.6252 7.352L14.5852 7.148C14.6332 7.516 14.6812 8.32 14.7292 9.56C14.7852 10.792 14.8132 11.964 14.8132 13.076C14.8132 14.196 14.7852 15.02 14.7292 15.548L13.7572 15.428ZM19.2645 15.5C18.9605 15.5 18.6925 15.428 18.4605 15.284V15.464C18.4605 15.936 18.3205 16.396 18.0405 16.844C17.7605 17.3 17.3725 17.708 16.8765 18.068C16.3885 18.436 15.8365 18.728 15.2205 18.944L14.8125 18.008C15.3245 17.832 15.7885 17.6 16.2045 17.312C16.6205 17.024 16.9445 16.716 17.1765 16.388C17.4165 16.06 17.5365 15.752 17.5365 15.464C17.5365 15.056 17.3325 14.056 16.9245 12.464L17.8485 12.116C17.9765 12.532 18.0805 12.936 18.1605 13.328C18.2805 13.728 18.4245 14.012 18.5925 14.18C18.7605 14.34 18.9845 14.42 19.2645 14.42H19.3485L19.4085 14.96L19.3485 15.5H19.2645ZM19.2291 14.42H19.8531C20.4931 14.42 20.9531 14.336 21.2331 14.168C21.5211 14 21.6651 13.74 21.6651 13.388C21.6651 13.14 21.5851 12.76 21.4251 12.248C21.2651 11.736 21.1331 11.364 21.0291 11.132L21.8931 10.676C22.0451 11.012 22.2011 11.456 22.3611 12.008C22.5211 12.552 22.6011 13.016 22.6011 13.4C22.5931 14.088 22.3531 14.612 21.8811 14.972C21.4091 15.324 20.7331 15.5 19.8531 15.5H19.2291V14.42ZM20.7051 16.616L21.5571 17.468L20.7051 18.32L19.8531 17.468L20.7051 16.616ZM22.6172 18.008C23.1292 17.832 23.5932 17.6 24.0092 17.312C24.4252 17.024 24.7492 16.716 24.9812 16.388C25.2212 16.06 25.3412 15.752 25.3412 15.464C25.3412 15.056 25.1372 14.056 24.7292 12.464L25.6532 12.116C25.8292 12.684 25.9732 13.284 26.0852 13.916C26.2052 14.548 26.2652 15.064 26.2652 15.464C26.2652 15.936 26.1252 16.396 25.8452 16.844C25.5652 17.3 25.1772 17.708 24.6812 18.068C24.1932 18.436 23.6412 18.728 23.0252 18.944L22.6172 18.008ZM30.0062 15.5C29.4382 15.5 28.9942 15.408 28.6742 15.224C28.3542 15.032 28.1262 14.748 27.9902 14.372C27.8622 13.996 27.7982 13.5 27.7982 12.884C27.7982 11.972 27.7782 10.94 27.7382 9.788C27.7062 8.628 27.6542 7.816 27.5822 7.352L28.5422 7.148C28.6062 7.556 28.6542 8.272 28.6862 9.296C28.7262 10.312 28.7462 11.236 28.7462 12.068V12.572L28.7342 12.992C28.7342 13.368 28.7662 13.656 28.8302 13.856C28.8942 14.048 29.0142 14.192 29.1902 14.288C29.3742 14.376 29.6462 14.42 30.0062 14.42H30.0662L30.1262 14.96L30.0662 15.5H30.0062ZM29.7994 14.42H30.0994C32.0114 14.42 32.9674 14.024 32.9674 13.232C32.9674 12.824 32.7394 12.324 32.2834 11.732C31.8354 11.14 31.2074 10.516 30.3994 9.86L30.5314 8.84L34.9114 6.944L35.2234 7.832L31.4674 9.464C32.1074 10.008 32.6714 10.636 33.1594 11.348C33.6554 12.052 33.9034 12.708 33.9034 13.316C33.9034 13.524 33.8674 13.724 33.7954 13.916C33.6034 14.452 33.1914 14.852 32.5594 15.116C31.9274 15.372 31.1074 15.5 30.0994 15.5H29.7994V14.42ZM40.8186 15.536C40.3866 15.536 40.0106 15.452 39.6906 15.284C39.3786 15.108 39.1386 14.872 38.9706 14.576C38.8026 14.28 38.7186 13.952 38.7186 13.592C38.7186 13.408 38.7426 13.22 38.7906 13.028C38.9746 12.316 39.3866 11.62 40.0266 10.94L39.5946 10.676L40.1346 9.812C41.1346 10.396 41.8746 10.976 42.3546 11.552C42.8346 12.128 43.0746 12.74 43.0746 13.388C43.0746 13.804 42.9746 14.176 42.7746 14.504C42.5746 14.832 42.3026 15.088 41.9586 15.272C41.6146 15.448 41.2346 15.536 40.8186 15.536ZM39.6306 13.448C39.6306 13.76 39.7346 14.008 39.9426 14.192C40.1506 14.376 40.4546 14.468 40.8546 14.468C41.2306 14.468 41.5426 14.384 41.7906 14.216C42.0386 14.048 42.1666 13.824 42.1746 13.544C42.1906 13.192 42.0866 12.852 41.8626 12.524C41.6386 12.188 41.2786 11.836 40.7826 11.468C40.0146 12.148 39.6306 12.808 39.6306 13.448ZM46.682 15.5C46.114 15.5 45.67 15.408 45.35 15.224C45.03 15.032 44.802 14.748 44.666 14.372C44.538 13.996 44.474 13.5 44.474 12.884C44.474 11.972 44.454 10.94 44.414 9.788C44.382 8.628 44.33 7.816 44.258 7.352L45.218 7.148C45.282 7.556 45.33 8.272 45.362 9.296C45.402 10.312 45.422 11.236 45.422 12.068V12.572L45.41 12.992C45.41 13.368 45.442 13.656 45.506 13.856C45.57 14.048 45.69 14.192 45.866 14.288C46.05 14.376 46.322 14.42 46.682 14.42H46.742L46.802 14.96L46.742 15.5H46.682ZM46.6275 14.42H46.9275C47.7195 14.42 48.3395 14.356 48.7875 14.228C49.2435 14.1 49.5475 13.896 49.6995 13.616C49.7555 13.528 49.7835 13.416 49.7835 13.28C49.7835 12.896 49.5515 12.416 49.0875 11.84C48.6315 11.264 48.0115 10.672 47.2275 10.064L47.3475 9.032L51.7395 7.148L52.0515 8.024L48.2955 9.656C48.9355 10.192 49.4835 10.788 49.9395 11.444C50.4035 12.1 50.6355 12.72 50.6355 13.304C50.6355 13.52 50.5995 13.724 50.5275 13.916C50.1435 14.972 48.9435 15.5 46.9275 15.5H46.6275V14.42ZM47.4795 7.628L51.2835 6.008L51.4635 6.464L47.4195 8.192L47.4795 7.628ZM58.5783 15.5C57.8583 15.5 57.2863 15.236 56.8623 14.708C56.5663 14.948 56.2343 15.148 55.8663 15.308C55.5063 15.468 55.0783 15.548 54.5823 15.548C54.0383 15.548 53.5703 15.464 53.1783 15.296C52.7863 15.128 52.4263 14.924 52.0983 14.684L52.5663 13.892C52.8783 14.076 53.1783 14.228 53.4663 14.348C53.7543 14.46 54.0983 14.516 54.4983 14.516C55.1783 14.516 55.8103 14.32 56.3943 13.928L56.3703 13.868L54.6903 9.944L55.5543 9.488L57.1983 13.376C57.3583 13.768 57.5383 14.04 57.7383 14.192C57.9463 14.344 58.2263 14.42 58.5783 14.42H58.7103L58.7703 14.96L58.7103 15.5H58.5783ZM58.5923 14.42H59.0723C59.9283 14.42 60.5323 14.34 60.8843 14.18C61.2363 14.012 61.4123 13.74 61.4123 13.364C61.4043 13.116 61.3203 12.74 61.1603 12.236C61.0083 11.724 60.8763 11.356 60.7643 11.132L61.6283 10.676C61.7883 10.988 61.9443 11.412 62.0963 11.948C62.2563 12.476 62.3363 12.936 62.3363 13.328C62.3363 14.04 62.0763 14.58 61.5563 14.948C61.0363 15.316 60.2523 15.5 59.2043 15.5H58.5923V14.42ZM58.7243 16.616L59.5763 17.468L58.7243 18.32L57.8723 17.468L58.7243 16.616ZM60.8723 16.616L61.7243 17.468L60.8723 18.32L60.0203 17.468L60.8723 16.616ZM65.8722 15.536C65.2402 15.536 64.7002 15.452 64.2522 15.284C63.8042 15.108 63.4482 14.908 63.1842 14.684L63.6522 13.892C63.6842 13.908 63.8002 13.976 64.0002 14.096C64.2082 14.208 64.4682 14.304 64.7802 14.384C65.1002 14.464 65.4362 14.504 65.7882 14.504C66.2202 14.504 66.5722 14.444 66.8442 14.324C67.1242 14.196 67.3042 14.056 67.3842 13.904C67.4242 13.808 67.4442 13.708 67.4442 13.604C67.4442 13.228 67.2362 12.764 66.8202 12.212C66.4122 11.652 65.7882 11.064 64.9482 10.448L65.4882 9.512C66.3762 10.184 67.0682 10.88 67.5642 11.6C68.0682 12.312 68.3202 12.98 68.3202 13.604C68.3202 13.892 68.2682 14.152 68.1642 14.384C68.0042 14.752 67.7162 15.036 67.3002 15.236C66.8842 15.436 66.4082 15.536 65.8722 15.536ZM74.3062 14.96C74.3062 14.304 74.2862 13.632 74.2462 12.944C74.2142 12.256 74.1662 11.648 74.1022 11.12C74.0142 10.416 73.8942 9.8 73.7422 9.272C73.5982 8.736 73.4182 8.224 73.2022 7.736L74.2222 7.148C74.3982 7.508 74.5662 7.984 74.7262 8.576C74.9102 9.208 75.1702 9.708 75.5062 10.076L75.4702 9.824C75.4382 9.384 75.5222 8.964 75.7222 8.564C75.9222 8.164 76.2102 7.844 76.5862 7.604C76.9702 7.356 77.3942 7.232 77.8582 7.232C78.2182 7.232 78.5582 7.304 78.8782 7.448C79.1982 7.592 79.5182 7.792 79.8382 8.048L79.4182 8.852C79.2102 8.716 78.9702 8.604 78.6982 8.516C78.4342 8.42 78.1742 8.372 77.9182 8.372C77.4862 8.372 77.1262 8.496 76.8382 8.744C76.5502 8.984 76.4062 9.28 76.4062 9.632C76.4062 10 76.5302 10.304 76.7782 10.544C77.0262 10.776 77.3782 10.892 77.8342 10.892C78.3862 10.892 79.0382 10.704 79.7902 10.328L80.0662 11.312C79.7542 11.512 79.3862 11.676 78.9622 11.804C78.5462 11.924 78.1142 11.984 77.6662 11.984C77.2102 11.984 76.7622 11.908 76.3222 11.756C75.8902 11.604 75.4982 11.364 75.1462 11.036C75.2582 12.044 75.3142 13.3 75.3142 14.804V15.5H74.3062V14.96ZM82.8894 14.984C82.5374 14.984 82.2134 14.9 81.9174 14.732C81.6214 14.556 81.3854 14.32 81.2094 14.024C81.0334 13.728 80.9454 13.412 80.9454 13.076C80.9454 12.732 81.0334 12.416 81.2094 12.128C81.3854 11.832 81.6214 11.6 81.9174 11.432C82.2134 11.256 82.5374 11.168 82.8894 11.168C83.2414 11.168 83.5654 11.256 83.8614 11.432C84.1574 11.6 84.3934 11.832 84.5694 12.128C84.7454 12.416 84.8334 12.732 84.8334 13.076C84.8334 13.412 84.7454 13.728 84.5694 14.024C84.3934 14.32 84.1574 14.556 83.8614 14.732C83.5654 14.9 83.2414 14.984 82.8894 14.984ZM81.9534 13.076C81.9534 13.356 82.0414 13.588 82.2174 13.772C82.4014 13.948 82.6254 14.036 82.8894 14.036C83.1534 14.036 83.3734 13.948 83.5494 13.772C83.7254 13.588 83.8134 13.356 83.8134 13.076C83.8134 12.796 83.7254 12.568 83.5494 12.392C83.3734 12.208 83.1534 12.116 82.8894 12.116C82.6254 12.116 82.4014 12.208 82.2174 12.392C82.0414 12.568 81.9534 12.796 81.9534 13.076ZM86.8998 6.332C87.7398 7.004 88.4438 7.84 89.0118 8.84C89.5878 9.84 89.8758 11.032 89.8758 12.416C89.8758 13.76 89.5838 14.944 88.9998 15.968C88.4238 17 87.7238 17.844 86.8998 18.5L86.3358 17.804C87.0318 17.196 87.6318 16.452 88.1358 15.572C88.6478 14.692 88.9038 13.64 88.9038 12.416C88.9038 10.312 88.0478 8.516 86.3358 7.028L86.8998 6.332Z" fill="#404040"/>
<path d="M0 18.176H2.71312V18.416H0V18.176ZM3.82594 18.176H6.76V18.416H3.82594V18.176ZM10.4275 18.176H14.6506V18.416H10.4275V18.176ZM16.9587 18.176H20.3225V18.416H16.9587V18.176ZM21.0837 18.176H22.4553V18.416H21.0837V18.176ZM24.7634 18.176H58.4162V18.416H24.7634V18.176ZM61.2556 18.176H86.4006V18.416H61.2556V18.176ZM87.5134 18.176H90.2238V18.416H87.5134V18.176Z" fill="#404040"/>
<path d="M108.73 4.00989L110.49 7.52989C110.73 8.01989 111.37 8.48989 111.91 8.57989L115.1 9.10989C117.14 9.44989 117.62 10.9299 116.15 12.3899L113.67 14.8699C113.25 15.2899 113.02 16.0999 113.15 16.6799L113.86 19.7499C114.42 22.1799 113.13 23.1199 110.98 21.8499L107.99 20.0799C107.45 19.7599 106.56 19.7599 106.01 20.0799L103.02 21.8499C100.88 23.1199 99.5799 22.1699 100.14 19.7499L100.85 16.6799C100.98 16.0999 100.75 15.2899 100.33 14.8699L97.8499 12.3899C96.3899 10.9299 96.8599 9.44989 98.8999 9.10989L102.09 8.57989C102.62 8.48989 103.26 8.01989 103.5 7.52989L105.26 4.00989C106.22 2.09989 107.78 2.09989 108.73 4.00989Z" fill="#FDD013"/>
<path d="M125.538 17C125.55 16.676 125.556 16.196 125.556 15.56C125.556 13.628 125.454 11.882 125.25 10.322C124.986 8.366 124.536 6.656 123.9 5.192L125.898 3.986C126.234 4.67 126.522 5.45 126.762 6.326C126.918 6.794 127.104 7.208 127.32 7.568C127.404 6.932 127.632 6.338 128.004 5.786C128.376 5.234 128.844 4.796 129.408 4.472C129.984 4.148 130.596 3.986 131.244 3.986C132.324 3.986 133.434 4.448 134.574 5.372L133.674 7.208C132.846 6.86 132.114 6.686 131.478 6.686C130.83 6.686 130.29 6.83 129.858 7.118C129.438 7.394 129.228 7.754 129.228 8.198C129.228 8.57 129.432 8.894 129.84 9.17C130.26 9.446 130.818 9.584 131.514 9.584C132.33 9.584 133.254 9.368 134.286 8.936L134.844 11.294C134.316 11.57 133.728 11.792 133.08 11.96C132.444 12.116 131.796 12.194 131.136 12.194C129.744 12.194 128.538 11.816 127.518 11.06C127.602 12.116 127.644 13.328 127.644 14.696C127.644 15.2 127.632 15.968 127.608 17H125.538ZM138.436 17C137.98 17 137.596 16.844 137.284 16.532C136.984 16.22 136.834 15.836 136.834 15.38C136.834 14.924 136.984 14.546 137.284 14.246C137.596 13.946 137.98 13.796 138.436 13.796C138.892 13.796 139.27 13.952 139.57 14.264C139.882 14.564 140.038 14.936 140.038 15.38C140.038 15.836 139.882 16.22 139.57 16.532C139.27 16.844 138.892 17 138.436 17ZM142.247 12.536C142.355 11.552 142.667 10.526 143.183 9.458C143.711 8.378 144.347 7.364 145.091 6.416C144.827 6.248 144.629 6.128 144.497 6.056L145.811 3.77C147.707 5.102 149.279 6.554 150.527 8.126C151.775 9.698 152.399 11.42 152.399 13.292C152.399 14.072 152.279 14.756 152.039 15.344C151.799 15.92 151.463 16.37 151.031 16.694C150.599 17.006 150.107 17.162 149.555 17.162C149.159 17.162 148.775 17.072 148.403 16.892C148.031 16.7 147.707 16.4 147.431 15.992C146.963 16.772 146.249 17.162 145.289 17.162C144.353 17.162 143.603 16.802 143.039 16.082C142.487 15.362 142.211 14.42 142.211 13.256C142.211 13.112 142.223 12.872 142.247 12.536ZM144.227 12.338C144.191 12.554 144.173 12.752 144.173 12.932C144.173 13.436 144.281 13.82 144.497 14.084C144.713 14.348 145.013 14.48 145.397 14.48C145.817 14.48 146.117 14.276 146.297 13.868C146.477 13.448 146.567 13.034 146.567 12.626L148.187 12.356C148.223 12.872 148.319 13.358 148.475 13.814C148.643 14.258 148.931 14.48 149.339 14.48C150.107 14.48 150.491 13.958 150.491 12.914C150.491 12.014 150.155 11.114 149.483 10.214C148.811 9.302 147.911 8.42 146.783 7.568C145.307 9.212 144.455 10.802 144.227 12.338Z" fill="#404040"/>
</svg>
